<svg width="50" height="48" fill="none" xmlns="http://www.w3.org/2000/svg"><path d="m49.8793 23.6027-4.3324-6.2898-.1914-7.6344a.6828.6828 0 0 0-.4563-.6273l-7.2039-2.5375L33.0594.4432a.6852.6852 0 0 0-.7391-.2402L25 2.3906 17.6797.2031a.6852.6852 0 0 0-.7391.2402l-4.6359 6.0704L5.1 9.0507a.6824.6824 0 0 0-.4562.6274l-.1907 7.6352-4.3324 6.2894a.6826.6826 0 0 0 0 .775l4.3324 6.2899.1918 7.6343a.682.682 0 0 0 .4563.6274l7.2043 2.539 4.6363 6.0703a.6836.6836 0 0 0 .7391.2403L25 45.5918l7.3203 2.1875a.684.684 0 0 0 .7391-.2403l4.6359-6.0722 7.2043-2.5371a.6826.6826 0 0 0 .4563-.6274l.1914-7.6351 4.3316-6.2891a.6838.6838 0 0 0 .0004-.7754Zm-5.5727 6.4563a.6795.6795 0 0 0-.1203.3703l-.1847 7.3676-6.9532 2.448a.687.687 0 0 0-.3164.2297l-4.4726 5.8594-7.0637-2.1094a.6851.6851 0 0 0-.3906 0l-7.0637 2.1094-4.4742-5.8594a.687.687 0 0 0-.3164-.2297l-6.9531-2.4484-.1844-7.3668a.68.68 0 0 0-.1203-.3703l-4.1793-6.0692 4.1797-6.0687a.6795.6795 0 0 0 .1203-.3704l.1844-7.3675 6.9531-2.448a.6871.6871 0 0 0 .3164-.2298l4.473-5.8574 7.0637 2.1094a.6812.6812 0 0 0 .3906 0l7.0637-2.1094 4.4734 5.8594a.687.687 0 0 0 .3164.2297l6.9532 2.4484.1847 7.3668a.6808.6808 0 0 0 .1203.3703l4.1797 6.0672-4.1797 6.0688Z" fill="#2BA84A"/><path d="M25 7.2156a16.775 16.775 0 0 0-9.3195 2.827 16.7753 16.7753 0 0 0-7.1328 17.2202 16.775 16.775 0 0 0 13.1797 13.1797 16.7743 16.7743 0 0 0 20.0472-16.4523A16.7932 16.7932 0 0 0 25 7.2156Zm0 32.182A15.4072 15.4072 0 0 1 9.8886 20.9844 15.407 15.407 0 0 1 21.9942 8.8788a15.4076 15.4076 0 0 1 18.4132 15.1114A15.4247 15.4247 0 0 1 25 39.3976Z" fill="#2BA84A"/><path d="M25 10.3406a13.6493 13.6493 0 0 0-12.6106 8.4261 13.6496 13.6496 0 1 0 26.2602 5.2235A13.665 13.665 0 0 0 25 10.3406Zm0 25.932a12.2823 12.2823 0 0 1-2.3962-24.3288 12.2829 12.2829 0 0 1 12.6087 5.2227 12.2823 12.2823 0 0 1 2.0699 6.8237A12.296 12.296 0 0 1 25 36.2726Z" fill="#2BA84A"/><path d="m31.0277 17.0785-7.3828 7.3828-3.4457-3.4453a.6836.6836 0 0 0-.745-.1483.684.684 0 0 0-.2218.1483l-2.7617 2.7617a.684.684 0 0 0-.1483.7451.6836.6836 0 0 0 .1483.2217l6.691 6.6914a.6845.6845 0 0 0 .9668 0L34.7563 20.807a.6839.6839 0 0 0 0-.9668l-2.7622-2.7617a.6831.6831 0 0 0-.7447-.1483.6846.6846 0 0 0-.2217.1483Zm-7.3828 12.9066-5.7242-5.725 1.7969-1.7968 3.4457 3.4453a.6836.6836 0 0 0 .745.1483.684.684 0 0 0 .2218-.1483l7.3828-7.3828 1.7969 1.7949-9.6649 9.6644Z" fill="#2BA84A"/></svg>