<svg width="40" height="53" fill="none" xmlns="http://www.w3.org/2000/svg"><path d="M37.4356 52.5682h-35.18a.891.891 0 0 1-.8856-.7964C-.4567 34.6717-.4567 17.5207 1.37.7943A.891.891 0 0 1 2.2556 0h35.18a.8899.8899 0 0 1 .8825.7698c2.2423 16.29 2.2423 33.4558.0016 51.0199a.8915.8915 0 0 1-.8841.7785ZM3.0581 50.7863H36.65c2.0882-16.862 2.0913-33.339.0071-49.0045H3.0561c-1.6993 16.0891-1.6983 32.5657.002 49.0045Z" fill="#fff"/><path d="M20.2759 39.195c-7.3675 0-13.3605-5.9935-13.3605-13.3605S12.9084 12.474 20.276 12.474c7.367 0 13.36 5.993 13.36 13.36 0 7.3675-5.993 13.361-13.36 13.361Zm0-24.9392c-6.385 0-11.5786 5.1942-11.5786 11.5782 0 6.3845 5.1936 11.5787 11.5786 11.5787 6.3846 0 11.5782-5.1942 11.5782-11.5787 0-6.384-5.1936-11.5782-11.5782-11.5782ZM34.0208 7.128h-3.5642a.8903.8903 0 0 1-.8906-.8913c0-.492.3981-.8906.8906-.8906h3.5642a.8903.8903 0 0 1 .8907.8906.8904.8904 0 0 1-.8907.8912ZM27.7836 7.128H2.8363a.8908.8908 0 0 1-.8912-.8913c0-.492.3987-.8906.8912-.8906h24.9473c.4925 0 .8912.3986.8912.8906a.8908.8908 0 0 1-.8912.8912ZM34.0208 46.3314h-3.5642c-.4925 0-.8906-.3992-.8906-.8912 0-.4919.3981-.8911.8906-.8911h3.5642c.4925 0 .8907.3992.8907.8911 0 .492-.3982.8912-.8907.8912ZM27.7836 46.3314H2.8363a.8911.8911 0 0 1-.8912-.8912.8911.8911 0 0 1 .8912-.8911h24.9473a.8911.8911 0 0 1 .8912.8911.8911.8911 0 0 1-.8912.8912Z" fill="#fff"/><path d="M20.1393 26.2952c-1.9455 0-3.5295-1.583-3.5295-3.529 0-1.636 2.3156-5.3282 2.7795-6.0516.3268-.5109 1.1726-.5109 1.4999 0 .4635.7234 2.7791 4.4156 2.7791 6.0516 0 1.946-1.5835 3.529-3.529 3.529Zm0-7.3909c-.9345 1.6023-1.7472 3.2776-1.7472 3.8619 0 .9631.7841 1.7472 1.7472 1.7472.963 0 1.7472-.7841 1.7472-1.7472-.0006-.5853-.8127-2.2606-1.7472-3.8619Z" fill="#fff"/><path d="M19.7651 39.2035a.8916.8916 0 0 1-.8015-.5022l-3.5387-7.289c-.2151-.4425-.0306-.9752.4125-1.1904a.8904.8904 0 0 1 1.1904.4125l1.8461 3.8022v-8.5982c0-.492.3987-.8906.8912-.8906a.8901.8901 0 0 1 .8906.8906v12.4739a.8916.8916 0 0 1-.8906.8912Z" fill="#fff"/><path d="M19.764 39.2035a.8912.8912 0 0 1-.7927-1.296l3.945-7.7437a.8895.8895 0 0 1 1.1986-.3895.8906.8906 0 0 1 .3885 1.1986l-3.945 7.7437a.8894.8894 0 0 1-.7944.4869ZM15.1012 31.9105a3.5487 3.5487 0 0 1-.6857-.0668c-.9259-.1815-1.7248-.7117-2.2509-1.4943-.9121-1.3576-1.0513-5.7126-1.0701-6.5721a.8907.8907 0 0 1 .3941-.7586c.2513-.1703.5715-.1979.8509-.0791.7881.3416 4.7699 2.1138 5.6835 3.4704 1.0849 1.6157.6546 3.813-.9605 4.8989-.5884.3962-1.2669.6016-1.9613.6016Zm-1.4576-2.5552c.26.3869.6561.65 1.114.7392.4588.0908.9238-.0046 1.3102-.2646.8004-.5378 1.0135-1.6258.4762-2.4257-.3258-.4844-1.9353-1.4209-3.605-2.229.1183 1.8517.3783 3.6952.7046 4.1801Z" fill="#fff"/><path d="M25.1769 31.91c-.6949 0-1.3745-.2055-1.9639-.6021-.781-.5267-1.3118-1.3256-1.4927-2.2509-.181-.9253.0096-1.8654.5358-2.648.9131-1.3572 4.8953-3.1273 5.6845-3.4684a.8933.8933 0 0 1 .8509.079.8934.8934 0 0 1 .3931.7587c-.0188.859-.1591 5.215-1.0716 6.5721-.5262.7821-1.3261 1.3123-2.2519 1.4933a3.5808 3.5808 0 0 1-.6842.0663Zm2.1632-6.7343c-1.6697.8071-3.2803 1.7436-3.606 2.2279-.5384.7995-.3253 1.8874.4746 2.4258.387.26.855.3553 1.3103.2651a1.7317 1.7317 0 0 0 1.1144-.7392c.3263-.4844.5874-2.3284.7067-4.1796Z" fill="#fff"/></svg>