<svg width="50" height="50" fill="none" xmlns="http://www.w3.org/2000/svg"><path d="M39.2187 20.1465c0-7.8516-6.3671-14.2188-14.2187-14.2188S10.7812 12.295 10.7812 20.1465c0 7.8515 6.3672 14.2187 14.2188 14.2187 7.8516 0 14.2187-6.3672 14.2187-14.2187ZM25 32.998c-7.1094 0-12.8516-5.7421-12.8516-12.8515S17.8906 7.2949 25 7.2949c7.1094 0 12.8516 5.7422 12.8516 12.8516 0 7.1094-5.7422 12.8515-12.8516 12.8515Z" fill="#2BA84A"/><path d="M49.8828 43.0371 42.2656 29.873l.1172-4.0625 3.6328-5.2734a.7094.7094 0 0 0 0-.7812l-3.6328-5.2735-.1562-6.4062c0-.2735-.1953-.5469-.4688-.625l-6.0156-2.1094L31.875.2637c-.1562-.2344-.4687-.3125-.7422-.2344L25 1.8653 18.8672.0292c-.2734-.0781-.5469 0-.7422.2344l-3.8672 5.0781-6.0156 2.1094c-.2735.0781-.4297.3515-.4688.625l-.1562 6.4062-3.6328 5.2735a.7096.7096 0 0 0 0 .7812l3.6328 5.2734.1172 4.0625L.1172 43.0371c-.2734.4688.0781 1.0547.625 1.0156.664-.039-2.461.1563 6.6406-.3906l2.9688 5.9375c.2343.4688.9375.5078 1.2109.0391l6.0156-10.3907.586.7813c.1562.2344.4687.3125.7422.2344L25 38.4277l6.1328 1.836c.2735.0781.5469 0 .7422-.2344l.5859-.7813 6.0157 10.3907c.2734.4687.9765.4687 1.2109-.0391l2.9688-5.9375c.1562 0 6.4062.3906 6.6406.3906.5078.0391.8594-.5468.5859-1.0156Zm-7.6172-.7812c-.2734 0-.5468.1171-.664.3906l-.4688.9375-5.0781-8.7891c.0391 0 2.5781-.8984 2.4219-.8594l4.8437 8.3594-1.0547-.039ZM7.8125 32.4121c.0781.1953.2344.3125.4297.3906l1.9531.7032-5.1562 8.9062-3.125.1953 5.8984-10.1953Zm6.1328 2.4219-5.0781 8.789-.4688-.9375c-.1172-.2343-.3125-.3906-.664-.3906l-1.0547.0781 4.8437-8.3984 2.4219.8594Zm-2.9297 13.0078-1.4062-2.7734 5.3125-9.2188 1.7187 2.2266-5.625 9.7656Zm20.0391-9.0234-5.8594-1.7579c-.1172-.039-.2734-.039-.3906 0l-5.8594 1.7579-3.7109-4.8829c-.0781-.1171-.1953-.1953-.3125-.2343l-5.7813-2.0313-.1562-6.0937c0-.1172-.039-.2735-.1172-.3516l-3.4766-5.0391 3.4766-5.039c.0781-.1172.1172-.2344.1172-.3516l.1562-6.1328L14.922 6.631c.1172-.0391.2344-.1172.3125-.2344l3.7109-4.8828 5.8594 1.7578c.1172.039.2734.039.3906 0l5.8594-1.7578 3.7109 4.8437c.0782.1172.1953.1953.3125.2344l5.7813 2.0312.1562 6.1329c0 .1171.0391.2734.1172.3515l3.4766 5.0391-3.4766 5.039c-.0781.1172-.1172.2344-.1172.3516-.039 1.0156-.039 1.1719-.1562 6.1328 0 0-6.0156 2.1094-5.7813 2.0313-.1172.039-.2343.1172-.3125.2343-.1562.2344-3.7109 4.8829-3.7109 4.8829Zm7.9297 9.0234-5.6641-9.7656c.0391-.0391 1.836-2.3828 1.7188-2.2266l5.3125 9.2188-1.3672 2.7734Zm5.9765-5.4297-5.1562-8.9062 1.9531-.7032c.1953-.0781.3516-.2343.4297-.3906l5.8984 10.1953-3.125-.1953Z" fill="#2BA84A"/><path d="M31.3672 17.959h-2.1094l.4688-3.1641c.1172-.7812-.2344-1.6015-.8985-2.0312l-.9765-.625c-.3516-.2344-.8594-.0781-1.0157.3125l-.8203 2.1484c-.664 1.6797-2.1094 2.9297-3.9062 3.3203h-.625v-1.0937c0-.3906-.3125-.6641-.6641-.6641h-3.0859c-.3906 0-.6641.3125-.6641.6641v10.7031c0 .3906.3125.6641.6641.6641h3.0859c.3906 0 .6641-.3125.6641-.6641v-1.0937h.3515c.3125 0 .586.1562.7813.3906.4297.625 1.1328.9765 1.875.9765h5.9375c.8984 0 1.6406-.7421 1.6406-1.6406 0-.2734-.0781-.5469-.1953-.7812a1.5003 1.5003 0 0 0 .4297-.8985l.0391-.4297c.039-.3515 0-.7031-.1954-.9765a1.4998 1.4998 0 0 0 .4297-.8985l.0391-.4296c.0391-.3516 0-.7032-.1953-.9766 1.0547-.9766.4297-2.8125-1.0547-2.8125Zm-11.25 8.9062h-1.7188v-9.3359h1.7188v9.3359Zm11.4844-7.2265v.0781c0 .1172-.1172.2344-.2735.2344h-.625c-.3906 0-.664.3125-.664.664 0 .3516.3125.6641.664.6641h.3516c.1562 0 .2734.1563.2734.3125l-.039.4297c0 .1172-.1172.2344-.2735.2344h-.5078c-.3906 0-.664.3125-.664.664 0 .3907.3125.6641.664.6641h.2344c.1562 0 .2734.1562.2734.3125l-.039.4297c0 .1172-.1172.2344-.2735.2344h-.3906c-.3906 0-.6641.3125-.6641.664 0 .3906.3125.6641.6641.6641h.1172c.1562 0 .2734.1172.2734.2734 0 .1563-.1172.2735-.2734.2735h-5.9375c-.3125 0-.5859-.1563-.7813-.3907-.4296-.625-1.1328-.9765-1.875-.9765h-.3515v-5.7422H22.3047c2.2656-.4297 4.1406-2.0313 4.9609-4.1797l.5469-1.3672.2734.1563c.2344.1562.3516.3906.3125.664l-.5859 3.9453c-.0781.4297.2734.7813.6641.7813h2.8906c.1562 0 .2734.1562.2344.3125Z" fill="#2BA84A"/></svg>