<svg width="40" height="45" fill="none" xmlns="http://www.w3.org/2000/svg"><path d="M20.1031 19.1746h.6875c.3438 0 .5844-.275.5844-.5844s-.275-.5844-.5844-.5844l-.6531.0344.2406-1.6156c.0344-.3438-.1719-.6188-.5156-.6875-.3094-.0344-.6188.1718-.6875.4812l-.2406 1.6156c-.1375.6876.4125 1.3407 1.1687 1.3407ZM23.8156 16.1496c.7974 0 1.4438-.6464 1.4438-1.4438 0-.7973-.6464-1.4437-1.4438-1.4437-.7973 0-1.4437.6464-1.4437 1.4437 0 .7974.6464 1.4438 1.4437 1.4438ZM17.25 20.6871c-.2406.2062-.3093.5844-.0687.8594.7219.7562 1.7187 1.2031 2.7844 1.1687 1.0656.0344 2.0625-.3781 2.7843-1.1687.2063-.2407.1719-.6188-.0687-.8594-.275-.2063-.6531-.1719-.8594.0687-.4812.4813-1.1687.7563-1.8562.7219-.6875.0344-1.375-.2406-1.8563-.7219-.2062-.2406-.5844-.275-.8594-.0687ZM16.1844 16.1496c.7906 0 1.4437-.6531 1.4437-1.4438 0-.7906-.6531-1.4437-1.4437-1.4437s-1.4438.6531-1.4438 1.4437c.0344.7907.6532 1.4438 1.4438 1.4438Z" fill="#2BA84A"/><path d="M33.6469 30.9996c-2.0969-.5156-3.3-.3781-6.05-.6875-1.1-.1031-1.9938-.55-2.1313-1.65l-.3437-2.6125c1.0656-.8594 1.925-1.9938 2.4406-3.3.3438-.9625.6188-1.9594.7906-2.9563h1.375v4.0907l-1.7875.825c-.3093.1375-.4468.4812-.3093.7906.1375.3094.4812.4469.7906.3094l2.1312-.9969c.2063-.1031.3438-.3094.3438-.55v-4.4688h.1719c1.2718 0 2.3031-1.0312 2.3031-2.3031v-2.3375c0-1.2719-1.0313-2.3031-2.3031-2.3031h-1.8563v-2.3719c.0344-5.1906-4.125-9.5562-9.3844-9.4875-5.0187.1375-9.075 4.2281-9.075 9.2813v2.5437H8.8969c-1.2719 0-2.3031 1.0313-2.3031 2.3031v2.3375c0 1.2719 1.0312 2.3032 2.303 2.3032h2.7501c.1719.9968.4125 1.9937.7906 2.9562.5156 1.2719 1.375 2.4063 2.4406 3.3 0 0-.2406 1.925-.3437 2.5781-.0688.4125-.3094.825-.6531 1.1344-.3782.3781-.9282.4813-1.4782.55-1.4093.1719-3.3343.0344-6.05.6875-3.6093 1.0313-6.153 4.3313-6.153 8.0781v5.3282c0 .3437.275.5843.6187.5843h38.3968c.3438 0 .5844-.275.5844-.5843v-5.3282c0-3.7468-2.5437-7.0468-6.1531-8.0437Zm-5.9813.5156-2.0968 5.2938L21.1 34.4371l4.5719-3.5063c.7219.3782 1.3062.5157 1.9937.5844Zm4.5719-16.3969v2.3375c0 .6188-.5156 1.1-1.1 1.1h-2.5094l.4469-2.0968c.1375-.5844.1719-1.1688.1719-1.7532v-.7218h1.8562c.6188.0343 1.1344.55 1.1344 1.1343Zm-12.375-12.925c4.5719-.0687 8.1813 3.747 8.2156 8.25v2.3719h-.5156c-.5156 0-.9625-.3437-1.0656-.825l-1.2375-4.675c-.1375-.4469-.6875-.5844-.9969-.275 0 0-1.2375 1.2031-4.2281 1.2031-2.9906 0-4.1938-1.1687-4.1938-1.203-.3093-.3438-.8593-.2063-.9968.2405l-1.5125 4.7782c-.1375.4468-.5844.7906-1.0657.7906h-.2406v-2.5781c-.0687-4.4 3.4375-7.975 7.8375-8.0782Zm-12.1 15.2625v-2.3375c0-.6187.5156-1.1 1.1-1.1h1.8563v.7219c0 .5844.0687 1.1688.1718 1.7531l.4469 2.0969H8.8281c-.55 0-1.0656-.5156-1.0656-1.1344Zm5.775 4.8469c-.4812-1.3406-.3094-.9969-1.4437-6.05-.1032-.4812-.1719-.9969-.1719-1.4781v-.7219h.2406c.9969 0 1.8906-.6531 2.2-1.6156l1.2719-3.9875c.7562.4469 2.1656.9969 4.3312.9969 2.1313 0 3.5063-.55 4.2625-.997l.9969 3.8501c.275 1.0312 1.2031 1.7187 2.2344 1.7187h.5156v.7219c0 .5156-.0687.9969-.1719 1.4781-.9968 4.4688-.8937 4.5719-1.4437 6.05-2.1656 5.6719-10.4156 5.9125-12.8219.0344ZM20 27.8371c1.4094 0 2.7844-.3438 4.0219-1.0656l.2406 1.9937c.0688.5156.3438 1.1.5156 1.3406L20 33.784c-6.0844-4.6407-4.3312-3.3344-4.8125-3.6782.3094-.4812.5156-1.0312.55-1.3062l.2406-1.9938c1.2375.6875 2.6125 1.0313 4.0219 1.0313Zm-5.6719 3.1281L18.9 34.4715l-4.4687 2.3718-2.0969-5.2937c.2062-.0688 1.0656 0 1.9937-.5844Zm24.2688 12.8219H1.4031v-4.7438c0-3.2312 2.1657-6.05 5.2594-6.9093 1.9938-.4813 3.1625-.4469 4.4-.55l2.475 6.2562c.1375.3438.5156.4813.825.3094l5.0188-2.6469v2.4063c0 .3437.275.5843.5843.5843.3438 0 .5844-.275.5844-.5843v-2.4063l5.0188 2.6469c.3093.1719.7218.0344.825-.3094l2.5437-6.2219c1.4438.1375 3.025.1719 4.4.5157 3.0938.8593 5.2594 3.6781 5.2594 6.9093v4.7438Z" fill="#2BA84A"/><path d="M20 39.6965c-.3437 0-.5844.275-.5844.5843v1.6157c0 .3437.275.5843.5844.5843.3438 0 .5844-.275.5844-.5843v-1.6157c.0344-.3093-.2406-.5843-.5844-.5843Z" fill="#2BA84A"/></svg>