<svg width="32" height="32" viewBox="0 0 32 32" fill="none" xmlns="http://www.w3.org/2000/svg">
<path d="M30.0204 13.2262V7.38156C30.0204 6.30612 29.1476 5.43335 28.0722 5.43335H2.74502C1.66958 5.43324 0.796814 6.30612 0.796814 7.38156V23.9416C0.796814 25.0171 1.66958 25.8898 2.74502 25.8898H28.0722C29.1476 25.8898 30.0204 25.0171 30.0204 23.9416V18.0969C31.0958 18.0969 31.9686 17.2241 31.9686 16.1487V15.1745C31.9688 14.0991 31.0968 13.2262 30.0204 13.2262Z" fill="#A66333"/>
<path d="M5.66739 0.5625H25.1498C26.2253 0.5625 27.098 1.43527 27.098 2.51167V16.1484C27.098 17.2248 26.2253 18.0966 25.1498 18.0966H5.66739C4.59195 18.0966 3.71918 17.2238 3.71918 16.1484V2.51167C3.71918 1.43527 4.59195 0.5625 5.66739 0.5625Z" fill="#E4E7E7"/>
<path d="M9.82113 5.45376C9.82113 5.45376 11.0028 5.43335 12.1191 5.43335C13.2365 5.43335 13.4342 7.31147 13.4342 7.31147C13.4342 7.31147 13.4546 9.27624 13.4546 9.76044C13.4546 10.2456 12.4932 11.207 12.4932 11.207V12.1938L15.4165 13.3627V15.1746H6.63573L6.64545 13.3248L9.57166 12.2036V11.2373C9.57166 11.2373 8.59954 10.3674 8.59954 9.76055V7.31137C8.59954 7.31137 8.6833 5.45376 9.82113 5.45376Z" fill="#868686"/>
<path d="M23.2016 9.32959H16.3828V11.2778H23.2016V9.32959Z" fill="#B7BBBD"/>
<path d="M23.2016 5.43311H16.3828V7.38228H23.2016V5.43311Z" fill="#B7BBBD"/>
<path d="M25.1498 0.5625H5.66739C4.59195 0.5625 3.71918 1.43527 3.71918 2.51167V3.48487H27.0981V2.51167C27.098 1.43527 26.2262 0.5625 25.1498 0.5625Z" fill="#B7BBBD"/>
<path d="M2.74502 8.3564L24.1757 11.2778C25.2511 11.2778 26.1239 12.1506 26.1239 13.226V29.7861C26.1239 30.8615 25.2511 31.7343 24.1757 31.7343L2.74502 28.812C1.66958 28.812 0.796814 27.9391 0.796814 26.8637V6.40723C0.796814 7.49047 1.66958 8.3564 2.74502 8.3564Z" fill="#F4B459"/>
<path d="M21.7404 18.0967C22.5469 18.0967 23.2015 18.7513 23.2015 19.5578C23.2015 20.3643 22.5469 21.0189 21.7404 21.0189C20.9338 21.0189 20.2792 20.3653 20.2792 19.5578C20.2792 18.7503 20.9338 18.0967 21.7404 18.0967Z" fill="#E4E7E7"/>
<path d="M2.74502 28.812L24.1757 31.7344C25.2511 31.7344 26.1239 30.8616 26.1239 29.7861V25.8896L2.74502 22.9673C1.66958 22.9673 0.796814 22.1012 0.796814 21.019V26.8638C0.796814 27.9401 1.66958 28.812 2.74502 28.812Z" fill="#D07C40"/>
<path d="M27.0981 17.1225C27.0981 17.1225 31.9686 16.1065 31.9686 15.1743V18.0967C31.9686 18.0967 31.0959 20.0449 30.0204 20.0449L27.0981 21.0191C26.0216 21.0191 25.1498 20.1463 25.1498 19.0708C25.1498 17.9953 26.0227 17.1225 27.0981 17.1225Z" fill="#D07C40"/>
</svg>
