<svg width="481" height="229" fill="none" xmlns="http://www.w3.org/2000/svg"><path fill-rule="evenodd" clip-rule="evenodd" d="M210.142 186.433a.4347.4347 0 0 1-.084-.225l.084.225Zm92.756-142.3387c.159-.1874.141-.178.122-.1687l-.122.1687Zm.112.3092.122-.2624-.122.2624Zm-14.166 9.1444.187-.1686-.187.1686Zm6.905-31.4808c.206-.2342.384-.4872.459-.8058l-.459.8058Zm-3.129 19.1977a1.0511 1.0511 0 0 0-.328-.1125l.328.1125ZM39.5179 200.44c.1874.037.3748.009.5341-.094l-.5341.094Zm99.9141-45.779c-.056-.281-.169-.553-.337-.843l.337.843Zm-68.1616 32.915c-.0749-.075-.2623-2.736-.3466-2.811l.3466 2.811ZM383.09 172.482l.215-.122-.215.122Zm-163.335 42.827c.103.103.187.178.253.196l-.253-.196Zm8.713-32.062-.018-.009-.253.112.271-.103ZM17.6125 202.848c.6371-.844 1.2367-1.565 1.7427-2.043 1.2555-.974 4.6003 10.213 5.6309 9.107.328-.319.6559-.618.9838-.946.9838-1.068 1.293-5.631 1.9208-6.952-.9276-3.654 5.228-4.676 5.5278-5.65.075-.29.1218-.543.1406-.834-.0094 0-.0094-.431-.0094-.487-.4029-.712 1.649-2.511 1.6864-3.336.2156-2.323.6559-3.832.9651-5.668 3.8883 2.23 1.2274 2.998 3.4291 3.832.862.319 1.5647.918 1.9676 1.752.1311.122.8807.731.8994.703.3748.234.6465.393.9651.712-.0094.009 2.2674 2.389 2.2767 2.398.8901 1.237.2905.581 1.115 1.93.4872.741 1.6396 1.218.7682 2.689.506.656-.1967.497.328 1.144 1.7708 2.22 1.3492.58 2.183.196.1312.272.4778 1.677.4778 1.677-.5621-.299.759.047.8527.375l.1686.038c4.8627-5.837 9.8003-10.569 14.0446-17.746.1686-.759.4778-1.283 1.0681-1.789.609-.478-.3186-3.57.4591-3.589.2436 1.106 1.6958 3.205 2.3142 3.682.506.431 2.0518 3.355 2.2392 3.935 1.8458 1.5 2.7078 4.919 4.6566 6.165 3.2511 1.912 1.649 7.262 3.7852 10.185 1.1992 2.904 2.8389-1.846 5.8651-7.833.4217-.393.8152-.824 1.2274-1.218.0562.619.1125 1.19.1968 1.677 3.12-3.494 9.1444-7.13 9.135-7.12 3.0357-3.448 1.0681-5.463 2.6328-9.885.8715-2.801 1.1615-5.425.5809-8.32-.1218-.749-.0468-1.433.2436-2.127.337-.721-1.6397-2.248-.9744-2.689.6839-.412 4.7504.703 5.5464.722.797.047.309.056.965.515l3.542 1.434c-.122.496-.028 1.03.243 1.461.094.253.244.487.441.675.262.262.412.403.749.571.263.244.534.366.844.469.262.206.787.468 1.124.534.3.449.665.749 1.199.871.244 1.096.197-1.218.993-.684.469.478 1.031.675 1.424 1.068l.741.74c.15.15.552.3.852.497.338.215.469.497.787.693.169.291.384.478.619.722.103.206.196.356.356.524.084.197.206.375.356.534.084.188.206.375.356.535.084.196.206.374.346.524l.225.441c.056.309.272.777.45 1.049.272.721 1.077 1.237 1.789 1.237h.713c.768 0 1.424-.45 1.724-1.106l.534.881c.121.197.571.599.74.824.702.9.88.965 1.105 2.268 0 .89.609 1.639 1.434 1.845.028.197.14.366.159.581.047.441-.019.778.178 1.209.009.253.075.487.178.703 0 .496 1.64-1.462 1.921-1.022.168.459 2.623 1.106 2.951 1.434 1.181 1.18 3.251.356 3.251-1.349v-6.109l-.384.384c.272-.272.459-.618.525-1.021.047-.131.103-.234.14-.384.478-.591.413-1.125.413-1.827 1.639-.431 1.92-2.642.468-3.486.038-.15.056-.318.056-.478v-1.236c0-.572-.309-1.068-.562-1.574-.065-.366-.234-.694-.468-.956-.244-.75-.506-1.302-1.331-1.583-.018-.647-.028-1.143-.047-1.34-.337-3.879.994-2.558-.899-5.997-.853-1.517-.581-3.223.703-4.394.674-.562.852-3.485-3.055-6.886.881 0 4.713.571 5.416 1.096.534.422 1.077.853 1.621 1.265-.385 1.283.59 2.455 1.911 2.455.103.046.534.346.562.365.403.403.628.59 1.237.881.168.159.328.253.534.356l-.038-.038.534.534c.244.244.422.422.75.572.253.234.824.534 1.162.628.328.328.628.665 1.068.833.3.188.646.3 1.021.3.197 0 .206-.009.394.057.487.309.871.299 1.414.299 1.603 1.171 3.205 2.343 4.844 3.439 1.078.703 2.043 1.358 2.999 2.061-.497.956-.047 2.174.824 2.605l.103.047c.281.337.665.562.956.787.346.281.571.59 1.068.843.215.309.459.487.787.656.234.234.862.918.712.627-.272-.543.422.506.44.535.244.365.338.74.703 1.049.15.347.534.778.871 1.002.057.085.122.16.188.235.15.309.309.496.543.74.141.3.309.478.534.702l.01-.477c.037.496.252.937.59 1.255.093.337.393.909.628 1.162l.009.028c.028.469.215.89.515 1.209.122.262.3.496.516.684.131.253.271.571.44.787.065.253.187.496.356.702.056.225.159.45.309.647.047.337.178.665.403.946.037.131.084.262.141.384.046.253.14.487.271.694.131.356.319.552.572.815.084.196.206.374.356.534.131.29.328.543.581.74.075.094.112.131.168.234.113.628.431.909.844 1.331.187.412.393.815.758 1.086.15.207.619.647.806.778.216.328.544.59.918.731.132.084.272.15.422.197.197.356.253.571.59.862.534.609.965.824 1.79.824 1.771 0 2.558-2.192 1.255-3.335l-.047-.047c-.084-.197-.206-.375-.356-.534l-.009-.019c-.843-3.626-2.867-7.533-6.708-13.286 1.93.319 3.916.666 5.921 1.087l-.037-.065c-.01 0-.103-.253-.188-.497-.421-.309-.937-.618-1.096-.712l-1.424-.497c-.394-.093-.918-.234-1.293-.374-.122-.057-.262-.16-.384-.235-.16-.037-4.666-1.433.103-.674l.562.197c.918.187 1.79.487 2.642.862-.197-.338-.131-1.396.319-1.209 0 .159.103.375.15.478.009 0 .056.14.056.14.328.356.609.844.834 1.275.328.168.337.028.609.018.281.028 1.639 1.059 1.92 1.284.385.3 1.902.721 1.809.693l.281.216c.159-.085.365-.057.515.018.478.272.928.563 1.49.609l2.932 1.031c.572.009 1.649-.234 2.202-.178.394.122.759.244 1.153.403.655.347 1.18 1.087 1.77 1.433.3.141.319-.149.872-.44.805-.384.59-.215 1.124-.122.3-.009 1.012-.103 1.237-.281.178-.187.618.366.618.366.15.121.572.253.768.299.113.01.282-.009.431-.018.178.14.356.29.525.44l.515.009.188-.271.346.346-.187-.009.019.347c.009 0 .365.009.356-.01l.431-.103c.478.309 1.405.956 1.405.956.272.122 2.38 1.424 2.38 1.424.881.084 2.876 1.077 3.56 1.677.787.862 1.424 2.136 1.79 3.233-.01 0 .234.833.206.843l.009.206c.459-1.049.965-2.071 1.593-3.017l-.159.028c-.515.197-.375.197-.366.244-.056.065-.178.159-.262.187-.262 0-.778-.215-.937-.431.141.028.366-.028.356-.028.141-.178.412-.309.619-.403.009.019.609-.281.599-.3.178-.178.094-.262.131-.459.075-.281 1.087-.871 1.05-.843.225-.122.656-.946.627-.9l.197-.093c-.215-.441.516-.412.628-.984l.319-.646c.065-.057.721-.638.702-.647.066-.253-.131-1.077-.084-1.293.112-.159.215-.3.365-.431.3-.187.937-.131 1.2-.253.112-.075-.291-.403-.441-.59-.337-.44-.234-.272-.234-.515-.056-.122-.187-.272-.281-.375-.094.084-.178.197-.253.3-.047-.038-.056-.085-.131-.132-.131-.103.028-.196.112-.253 0-.009.122-.093.122-.093.103-.103.159-.375.169-.516-.019-.14-.141-.412-.122-.496.075-.094.403-.253.525-.309-.029-.375.037-.253-.272-.497l.3-.094v.113l.309.094c-.019-.272-.019-.207-.159-.469.224-.131.674-.384.674-.384.056-.084.993-.918.881-.909 0-.215.206-1.555.272-1.752.037-.047.149-.131.196-.169.019.019 1.162-.871 1.181-.833.112-.066.253-.085.253-.085.206-.178.318-.553.412-.806.038-.046.544-.103.628-.215.084-.216.206-.131.262-.356.113-.365.216-.328.019-.693.459.065.103-.207.543-.235.16.028.31.066.45.103.169-1.255.309-2.379.384-3.504l-.009-.075c-.178.132-.778.572-.965.619-.075-.16-.197-.497-.197-.497l-.15.197c-.037-.206-.019-1.658 0-1.658.01 0-.009-2.109-.009-2.249l.253.159c.018-.581-.178-.393-.234-.59.009-.197.084-.59.084-.59.056-.131.3-.338.3-.328-.094-.366-.141-.216.065-.525l-.019-.056c-.075.075-.178.169-.14.281l-.056.075.112-.431c-.065-.262-.14-.525-.187-.787-1.809-5.322-5.144-9.679-8.189-12.208-.347-.16-.684-.328-.993-.497-1.04-.599-2.043-1.096-3.092-1.574l-.084-.009c-1.874-.319-1.827.524-3.832.553-1.631-.047-3.252-.122-4.882-.141-.524-.009-1.04-.038-1.564-.075-1.256-.15-2.427.656-3.167 1.602l-.3.169c.009.3-.3.534-.487.731-.178.131-.122.093-.338-.057-.215-.262.122.253-.168.169l.215.216c.066 0 .038.018.028.028-1.096-.3-.121-.085-.318.356-.319-.141-.319-.15-.309-.131.075.187.299.477.103.477-.141-.009-.169-.018-.197.15-.028.131-.169.197-.272.15-.599-.431-.028-.019-.084.347-.075-.038-.562-.263-.572-.113.057.244.31.609.31.609l-.544.094c.047.103.188.291.188.291.074.121-.085.402-.282.384-.365-.281-.356-.206-.346-.16.187.6.168.638.159.647-.047.103-.684.6-.618.628-.113.271.018.243-.206.552-.019.019-.253.263-.244.263-.356.693-.684 1.396-.946 2.136 0 0-.235.693-.225.693-.113.497-.206 1.415-.281 2.174.103.525.318 1.677.318 1.686.197.694.497 1.546.806 2.39l.365.496-.196-.037h.009l.103.196c.244.572.984 1.659.984 1.659.122.225 1.461 1.63 1.48 1.611.712.712 2.221 1.481 3.13 1.987 0 0 .421.253.421.262.094.066.188.122.291.169 2.595.431 5.218-.3 7.364-1.893 2.801-2.08 4.703-5.781 2.661-8.929-.675-1.04-2.061-1.527-3.439-.956-.777.319-1.096.769-1.311 1.293-.113 2.717-3.28 4.132-5.407 2.652l.01.084c0 .197.318.169.393.328.122.328.281.684.45.993.422.722.262.197.3.16.084.018.253.084.318.14.207.262.478.928.638 1.256-.253-.169-.741-.516-.741-.516-.253-.028-.44-.15-.637-.318 0 0-.403-.431-.449-.459-.16-.094-.216.018-.366.046-.272-.009-.515-.496-.59-.74-.038-.14-.469-.384-.45-.374v-.141c-.375.234-.084-.328-.412-.384-.094-.066-.197-.15-.291-.225l-.065-.553c-.113-.075-.815-.159-.975-.318-.037-.122-.074-.356-.009-.478.216-.309.647-.516.759-.675.047-.093-.478-.15-.693-.215-.6-.244-.394-.225-.45-.413-.131-.159-.45-.459-.628-.534-.187-.084.085-.224.169-.299.075-.075.065-.281.037-.385-.178-.384-.487-.309.188-.599l-.094-.225c-.328-.159-.375-.112-.028-.216l.028.085.309.075-.037-.085c.028-.028-.225-.253-.225-.253.169-.093.525-.271.525-.271.103-.122.58-.506.59-.619-.056-.196-.141-1.124-.103-1.302.178-.159.89-.478 1.133-.553.216-.065.188 0 .225-.009.169-.084.272-.366.375-.525.075-.019.487.103.572.066.093-.131.168 0 .271-.131.094-.132.281-.207.188-.385l-.01-.056c.31.263.216-.037.525.178.29.263.787.787.928.947 3.082-1.902 7.523-2.183 11.121 2.07.14-.047.646.169.806.234l-.113-.253c-.112 0-.328.029-.328.029l-.253-.038c.281-.047.806-.056.956.272.094-.16.262-.497.272-.506l-.019.131c.084-.169.375-.899.375-.853.122-.018.375-.009.375-.009v-.169c.487.15 1.218 1.012 1.396 1.509l-.263.028c.141.45.384-.159.319.609-.047.112-.272.309-.272.3l.084.206.057-.066c-.066.178-.122.356-.188.525-.365.871-1.058 1.284-.721 2.314.159.431.197.75.159 1.04.281 1.368.319 2.783.075 4.188.197.3.712.3.778.9-.019.543-.169 1.012-.328 1.527-.244.778-.909 1.358-.872 2.23l-.121.084c.112.094.037.047.112.188-.103.065-.084.028-.084.159l-.047.037c-.028-.009-.356-.15-.3-.112.178.131.038.084.009.075.038.019.31.15.31.159-.984-.29-.132-.066-.075.15-.31-.122-.319-.131-.3-.122.459.412.103.141.197.309.103.197-.469-.178-.431-.14.103.084.299.215.356.318l-.478-.215c.14.15.459.412.459.412l-.384-.122.234.216c.094.084.056.197-.103.112-.337-.271-.328-.243-.309-.225.14.281.178.422.215.459-.084.029-.281.066-.318.122-.038.122.056.16-.066.253-.009.01-.159.047-.15.056-.197.31-.318.544-.487.853-.178.609-.468.684-1.181.684-.768-.056-.833.084-.178.45-.149.075-.318.15-.487.15-.281-.01-.599.056-.871.028-.141-.019-1.106.271-1.106.253l-.093.019c-.057-.094-1.05.683-1.059.599-.328.047-.59.066-.862.066-7.065 3.523-15.272 1.349-20.678-5.116-2.905-3.476-4.291-7.552-4.254-11.674-.253.581-.375 1.321-.543 1.939-.3 1.415.168 2.661.468 4.01.403 1.724 1.125 4.591 2.211 5.997.3.346-.028-.366.169-.141.497.591.928 1.031 1.48 1.565.319.328.572.628.919.946 1.068.956 2.136 1.565 3.541 1.902-2.08-.197-3.663-.993-5.134-2.426-1.181-.984-2.033-2.212-2.717-3.589-.403-.852-.656-1.611-.993-2.464-.244-.581-.375-.759-.712-1.256-.731-1.274-.628-3.372-.338-4.768.047-.207.291-1.809.291-1.809.093-.534.206-1.077.337-1.602l.262-.506c-.075-.262 0-.59.103-.824.385-.806.844-1.574 1.078-2.446.197-.515.881-2.089.881-2.07.112-.188.993-1.528 1.442-2.23.141-.253.282-.516.422-.759.384-.975.656-2.249 1.106-3.12.384-.572.777-1.106 1.218-1.64.815-.89 1.845-1.358 2.642-2.098.309-.319.103-.197.056-.787.028-.178.066-.338.112-.516.413-1.302.497-1.162 1.303-1.93.29-.328 1.583-1.733 1.696-1.967.093-.235.646-.394.862-.469.009.019.758-.215.758-.187l1.959-.722c.403-.187 1.012-.571 1.414-.674.591-.094 1.396-.047 2.005-.01.291-.093.881-.262.881-.262l.131-.328.834.141-.328.084.272.3c.656-.178.534-.131 1.134-.45.834.084 2.511.3 2.511.3.44 0 4.609.281 4.637.281.591-.159 1.49-.187 2.146-.272 1.124-.15 2.661-.215 3.795-.075 2.155.497 5.022 1.64 7.036 2.586.881.506.928.525.946.534.291.141.609.263.909.384l3.523 1.546c.506.347 1.087 1.068 1.649 1.443.347.197.646.403.946.675-.019.028.89.637.89.637.75.525 1.415 1.059 2.09 1.677.412.375.852.721 1.255 1.106-.337.009.187.702.3.871l.187-.197c.413-.431.881-.674 1.368-1.002.534-.188.825-.394.993-.956.3-1.087.815-1.499 1.396-2.314.047-2.361-.093-4.676-.402-6.915-.104-.084-.179-.206-.244-.393-.197-.797-.319-1.509-.562-2.305-.216-.693-.375-1.443-.553-2.155-.216-.375-.206-.487-.553-.843l-.009-.206c-.15.009-.085-.019-.253-.085-.01-.253-.103-.131-.131-.328.609-.412-.075-.028.168-.262-.037.019-.3.169-.309.159.75-.731.122-.075-.122-.215.263-.216.272-.206.253-.206-.646.121-.187-.028-.421-.075-.244-.066.337-.356.309-.356-.15.037-.337.14-.478.112.394-.375.403-.375.384-.375-.215.038-.599.188-.599.188l.234-.366c-.103.028-.3.113-.3.113-.122.047-.234-.075-.112-.206.365-.235.346-.225.309-.235-.047 0-.534.075-.534.075-.057-.056.009-.384-.075-.468-.122-.094-.178-.01-.263-.197l-.047-.206c-.393-.506-.815-1.021-1.218-1.537-.871-.908-1.03-1.105-1.321-2.454-.046-.244-.103-.516-.206-.741-.365-.515-.421.029-.44.366-.178-.225-.431-.525-.553-.768-.159-.347-.431-.722-.553-1.04-.046-.132-.665-.834-.665-.834-.131-.178-.421-.281-.637-.347-.028.056-.262-.187-.3-.253.01-.009-.262-.459-.234-.468l-.468-1.762c-1.546-.965-3.252-1.705-5.125-2.192.149.272.299.459.515.674-.225-.196-.422-.421-.572-.693l-.29-.075.215-.075c-.431-.909-.196-1.967.553-2.633.553-.449 1.134-.58 1.837-.534 1.077.019 1.93.637 2.258 1.677-.01.244.037.488.093.722.928.019 1.855.122 2.783.318l-1.518-1.442c-.244-.169-.628-.469-.834-.684-.056-.075-.112-.197-.159-.281-.234-.347-.553-.862-.506-1.293-.009-.178.103-.207.225-.094.047.084.112.178.178.272.14.318.159.665.103 1.011.066-.327.066-.59-.019-.908.216.253.469.515.703.759.609.421 1.171.918 1.714 1.424.394.365.759.768 1.19 1.096.441.328.703.337 1.181.515.253.103.59.338.946.609 4.807 1.921 9.51 5.809 13.633 10.419.224.084.449.15.58.131.244-.066.506.759.506.759.122.234.525.628.731.806.206.14.628.29.75.421.121.206.3.759.384 1.012l.44.309.309-.121.113.496-.159-.112-.169.309c.365.253.253.187.693.3l.544 1.349c1.667.974 2.773 4.338 2.379 2.014.104.094.197.169.282.235-.075-.675-.169-1.368-.272-2.034-.066-.356-.15-.74-.216-1.105.019-.01-.506-.084-.543-.291-.038-.449.037-1.058.028-1.63-.122-.112-.169.066-.122-.122.056-.093.075-.271.075-.374-.056-.319-7.402-21.4-7.43-21.765-.028-.441-.047-.581-.121-1.012-.104-.637 0-1.9115-.113-2.5486-.056-.3186-.14-.5247-.234-.8151.169.0187.15-.2624.15-.2624-.019-.1593.112.0469.187.0187.028-.0655.056-.1124.094-.1499.019-.3092.009-.534-.019-.8619.009-.1874.066-.5997.094-.9182l-.066-.4685c-.028-.0281-.112-.1686-.122-.2061-.028-.3373 0-.4685-.065-.8714-.028-.2061-.066-.4872-.094-.7776l-.234-1.4991c-.15-.4685-3.364-3.4104-3.392-3.5135l-.431-.9275c.15-.2717.122-.1874.159-.4872l-.224-.0563-.01.1312-.196-.2811.196-.103.038-.3561c-.085-.1218-3.739-3.1012-3.785-3.223-.019-.1124 1.574-1.04 1.583-1.1993-.009-.1686-.075-.4872-.159-.6277-.075-.0937-.338-.3186-.244-.4404.122-.1405.141-.534.131-.7214-.159-.684-1.902.1124-1.724-.7121.094-.2998.206-.4028.253-.4965l-.047-.2624c-.187-.2811-.506-.5528-.702-.8057l.047-.0188.234.3092c.047.0375.534.5434.534.5528.019.2155-.3.5996-.319.7308.028.1124-.374-1.0493-.543-1.5366-.056.0469-.084.1031-.047.1874l-.159-.0094c-.375-.1124-1.022.0656-1.406.1312-.309.0469-.44.178-.73.2249-.225.0749-.506.4497-.666.5247-.477.0656-1.096.0843-1.546.2342-.009 0-.018.0094-.299.1874-.656.2717-1.856.6746-2.539.7776-.553-.0281-1.762-.3185-2.333-.4497-.038-.0656-.132-.0843-.188-.1312-.065-.0187-1.527.1406-1.714.1593 0 0-.281.0281-.319.0281-.356.0843-.806.1874-1.171.2061-.3-.2529-.422-.3372-.768-.5153-.141.0562-.291.0937-.441.0844 0 0 .338.1967.431.2436-.243-.0375-.45-.1125-.674-.2343h.056c-.009 0-.019-.1874-.019-.2061-.178-.1499-.281-.2811-.412-.4685-.281-.1218-.525-.2717-.768-.4497-.057-.0281-.15-.0843-.197-.1311-.085-.1312-.141-.5154-.216-.6934-.047-.0843-.524-.9744-.571-.9463-.131-.1311-.497-.4872-.384-.6933.084-.1405.225-1.1524.271-1.4054.01-.1312-.037-.2249-.018-.3935.075-.4591.609-.965 1.077-1.0213.15 0 .131.0188.178-.1499.103-.3654.094-.5996.244-1.0306.281-.7683.412-.9744 1.03-1.5178.413-.2249 1.143-.1687 1.49-.2717.319-.2155.525-.3935.881-.5903 0 0 .14-.0187.14-.0281.216-.0375.413-.0562.628-.0562.328.0656.656-.0656.965-.1312.131-.0187.244.0375.309.1499l.234-.0656c.066.0188.844.2062 1.265.253-.046-.0375-.093-.0749-.093-.0843l-.263-.2155c.113.0281.225.0468.356.0562-.431-.0468-.393-.1312-.73-.3185l-.047.0374c.14.1312.328.1499.431.2249-.15-.0375-.328-.1124-.45-.2061l-.497.178c-.524-.1124-1.246.0375-1.798.0656-.328.0187-.506.1405-.816.1405-.234.0375-.571.4029-.73.4029-.45-.0094-.891-.1031-1.34-.1499-.01 0-.019 0-.281.103-.497.075-1.546.1499-2.024.1125-.731-.2624-1.499-.6559-2.333-.937-.066-.0281-.206-.0843-.253-.1218 0 0-1.771-.2061-1.996-.281 0 0-.824-.075-1.227-.1593-.178-.3654-.094-.253-.365-.5434l-.244.1686.122.1218s-.309-.0375-.459-.0656l.065-.2717s-.215-.2529-.309-.3841c-.29-.1031-.768-.3279-.984-.5434-.15-.1968-.234-.6371-.328-.8901 0 0-.477-1.1806-.459-1.1899-.093-.2249-.421-.7964-.215-1.0213.103-.0843.328-.5621.403-.6933.112-.1686.234-.3467.346-.5153.206-.4778.057-.4966.74-.8058l.066-.0281c.515-.1686.618.0375.731-.2248.187-.5341.15-1.2087.515-1.724a3.355 3.355 0 0 1 .675-.5903c.14-.0749.599-.0749.768-.0749.131 0 .712.0375.787.0187.365-.1686.675-.3466 1.059-.4966 0 0 .571-.0468.862-.0468.506.1124 1.171-.3654 1.452-.0375l.244-.0843c.084.0094 1.143.1312 1.405.0656-.094.0281 1.256-.2905 1.593-.1874l-.01-.0281c-.131-.2717-.215-.4872.132-.7308.337.2623.459.4403.59.8339l-.075.0562.084-.0281c.094.2717.141.3841.094.6652-.15.0937-.281.1686-.422.2342.366.1031.759.2061 1.162.3279-.037-.2248-.112-.7776-.187-1.3679-.103-.0187-.206-.0187-.328-.0093.131-.0281.197-.0188.328 0l-.141-1.1525-.206.0656c-.112.4591-.384-.0468-.487.3467l-.103-.1218c-.131.0562-.234.1124-.309.1686-.066-.0562-.132-.103-.197-.1311-.384-.2624-.3.4309-.431-.4872-.197-.0844-.366-.0282-.609-.1312-.234-.0562-.675.1312-.862.1031-.459-.1968-1.078-.4966-1.555-.5716-.01 0-.019 0-.356.0375-.778-.0468-1.172-.0375-1.931-.0094-.065-.0281-.14-.1405-.159-.2061-.281-.0468-.487-.1124-.749-.2342-.394-.2905-1.068-.8714-1.331-1.2836-.29-.2998-1.03-.7121-1.48-1.1899-.3-.2155-.572-.431-.825-.7027.066-.3935.075-.2436.038-.6371l-.291-.0094.019.1687s-.215-.2062-.318-.3092l.224-.1687s-.009-.2998 0-.4497c0 0-.196-.3092-.206-.3092-.384-.7308-.206-.609.019-1.3304.084-.3467.178-.7121.234-1.0588 0 0 .075-.9556.347-.965.112-.0094.468-.2155.59-.2811.3-.1499.516-.2342.825-.3373.44-.2061.44-.356 1.077-.1311l.131.0843c.431.3466.319.5715.562.5247.347-.075.591-.2249 1.05-.3092.515-.1499.768-.0469 1.246.2061.122.0937.356.534.478.7589.834.3748 2.398 1.2461 3.963 2.0425.262 0 .609 0 .787.0281.019-.2342.056-.4497.122-.6933 0 0 .009-.5341-.094-.8526.337-.2811.693.7121.712.9369-.009.3467-.112.7214-.197 1.0681.122.0562.235.0843.16.253l.478.2155c.121-.2343.665-2.333.796-2.5485-.693-.3091-1.415-.8245-2.136-1.4709-.525-.1406-.928-.2811-1.452-.5341-.516-.3092-.919-.9931-1.368-1.2742-.291-.1593-.6-.4685-.862-.5903-.281-.1124-.609-.3654-.881-.5247-.197-.1124-.403-.3373-.553-.5059 1.106.0843.066-.5153-.29-.7121-.225-.1218-.422-.2436-.628-.4029-.778-.6277-.806-.7776-1.181-1.5927-.271-.4966-.552-1.0588-.768-1.5834l-.131-.1218c-.112-.1499-.019-.1499-.047-.2905-.028-.103-.3-.2155-.318-.2904l.29-.3561c.009-.0093.047-.0656-.3.1031-.15.0187-.178-.1218-.094-.1874 0 0 .15-.103.216-.1593l-.365-.0187s.29-.1968.412-.3279c.009-.0188.009 0-.441.0749.047-.1124.207-.1874.31-.2717.009-.0187-.469.2249-.394.0281.084-.1874-.243.0562.159-.3279.01-.0094.01-.0094-.262.0562.028-.2436.787-.2998-.084-.2061 0-.0094.225-.0937.262-.1124-.281.0374.319-.2062-.262-.0375-.103-.1218 0-.1312-.141-.2717.047-.1499-.009-.1218.075-.2155l-.122-.1312c-.065-.9838-.646-1.649-.946-2.5297-.178-.7777-.347-1.4241-.356-2.2299.084-1.1056.759-.7495.796-1.6865.019-.4403.038-.4872.3-.787.16.0094.309-.0187.459-.0562 0 0-.431-.6184-.609-.9369.356.1499.253.0468.403.3841-.009.0281.103-.4591.206-.5809.103-.1405-.168-.6933.413-.5153l.187-.1686s-.009-.2718 0-.4029c.543-1.3305 1.508-1.9676 2.942-1.5834 1.508.4029 2.014.1499 3.298.3373l.806.1686-.085.0187c-.14-.103-.299 0-.431.075l.431-.075.235.1968s.253-.0937.374-.0656c0 0 .31.1406.45.2343.094.1311-.122.1499.197.4403l.065-.2342c.497.4591.937 1.2274 1.115 1.8832-.234-.431-.534-.7214-.993-.9088l.225.1593a9.1476 9.1476 0 0 0-.262-.0844l.225.1781c-.085-.0375-.169-.075-.263-.1031.216.1593.356.3185.487.5434l-.084.0094c-.225-.0469-.412-.075-.637-.075.15.2155.262.4216.244.684-.019-.1124-.047-.178-.103-.2811.037.1312.046.2436.018.3841l-.262-.0093c.009.0093.047.0843.056.103-.056-.1124-.14-.1873-.262-.2248.225.1405.356.3092.431.5434.178.1593.356.3373.515.5247.122-.5903.15-.2717.028.0281l.113.1405c0-.1593-.01-.431-.019-.5996.178-.4497.431-.862.693-1.2649.347-.1218.375.7027.666.431l.028.1406c0 .3747.234.6839.393 1.0118.103.2155.206.1687.291.3467.084.0937.459.0937.534.1405.084.1968.159.5247.299.684.029.0281.01-.0562.197.1124.291.2811.722.8995.853 1.2743 0 .4403-.188 1.5084-.216 2.0612l-.047.1031c-.112-.0844.366.7495.375.7776l.412.3748c-.168.1499-.159.1031-.243.2904l.262-.0281.028-.0749.216.103c-.281.1125-.225.0469-.328.3092.571.3842.309.2155.187.6371-.009.1031 0 .328.075.4029.085.075.328.2061.188.3092-.169.1124-.347.4591-.413.6559 0 .2436.178.1405-.253.5715l-.065.0562c.122.3279.234.6558.346.9931.188.1687.366.5903.263.8339.543 1.7989.909 3.551.899 4.9938.263-.0468.628-.1218.853-.2061-.291.3373-.497.5153-.881.7402-.019.1686.028.1967.047.356l-.084-.0656-.019.1125c.356.0093 2.342.3747 2.717.4497.187-1.3867.459-2.8389.722-4.1038-.057-.281-.16-.7964-.263-1.0306 0 0-.112-.3935-.15-.5903.703.328.609-.0281.141-.4028-.609-.3748-.778-.5341-.487-1.2368.093-.3373.356-.7964.524-1.1055.019-.2624-.018-.2718.216-.4029.037-.0188.028-.4498.065-.506 0 0 .431-.0562.488-.0749.028-.0094.084-.0188-.263-.178-.103-.1218.019-.3092.131-.2905 0 0 .188.0281.281.0281l-.159-.4029s.506.0469.515.0188c.207-.0843-.009-.431-.056-.5809.441-.2717.806.4216.534-.1968-.009-.0562.16-.2155.235-.1686.168.103-.01-.253.309.1967.009.0094 0 .0094-.028-.2717.224.0562.234.8058.187-.0562.009 0 .084.2342.094.2717-.019-.2717.187.3279.037-.253.122-.103.103.0375.216-.1124.131.0562.093 0 .168.0937l.085-.1124c.365-.0094.356-.0562.665-.1593 0 0 .356-.1124.356-.1312 1.134-.2904 2.211.3935 3.082 1.04.281.2155.478.4216.675.7121.553.9931-.281 1.0962-.103 1.9301.028.1967.066.5246-.066.6933.085.2717.15.5528.188.8339l.028.0281h-.028a4.5893 4.5893 0 0 1-.122 1.7801c-.178.6652-.609 2.1737-1.227 3.9351.028.4872.206.9182.327 1.6584 0 0 .075.3466.132.5059l-.047-.0562c.047-.1218-.159-.2436-.234-.3092l.234.3092-.075.1968c-.01-.0094.197.1593.234.253.103.6558-.15.1499-.206.534h.215c-.037.2155-.093.3654-.206.5528 0 0-.187.4122-.356.4778l-.084-.0656s-.159.0281-.244.0375c-.187-.0656-.477-.2342-.646-.3373l.075.0656-.394-.2342c.01.1499-.159.2717-.318.356-.188.4029-.384.7964-.581 1.1805.243.2998 1.255 2.2393 1.49 2.5672.833-1.4335 1.649-2.689 2.22-3.5322.047-.1968.159-.431.244-.609l.056.1593c.159-.2249.309-.4591.487-.6653.028-.2436.075-.4591.159-.7027.385-.8244.628-1.0868 1.406-1.4522.496-.2623 1.049-.4872 1.564-.7214.01.0093.104-.1125.113-.1218.131-.1031.131-.0094.253-.0188.094-.0187.178-.2717.243-.281l.31.3185c.065.0562-.132-.2904-.094-.3841.169-.1968.29.103.375.2061l.084-.3748s.178.3092.3.4404c.019.0094.009.0093 0-.4497.122.0562.169.2248.243.3372.019.0188-.149-.4965.066-.3935.028.0188.084.0469.103-.0093.066-.2717.141.0562.225.2248.009.0094 0 .0094.019-.2717.271.0844.056.8433.271-.0187.01 0 .019.2436.019.2904.084-.281.075.3748.15-.2248l.422.0093c.131.0937.168.075.225.2062 0 0 .168 0 .253.0093.327.2249.674.4872.965.759l.112.1124c.543.4591.871.7214 1.274 1.3304.478.787.928 1.471 1.134 2.3892.131 1.0681-.618.8901-.637 1.7989-.019.2061-.094.609-.253.7402l-.178.1311c-.141-.0468-.309-.0562-.45-.0655.187.3279.3.6183.403.9744l-.3-.4591c-.056.103-.234.4028-.328.4778-.14.1124-.028.5528-.375.5059-.253.4872-.627.9651-.946 1.4148-.3.5809-.637 1.218-.693 1.1712l-.478.5059c-1.134 1.1805-.918 1.7333-1.349 3.0919 0 0-.113.3841-.15.5902l-.019-.0749c.094-.1031 0-.3092-.065-.4123l.065.4123-.178.1874s.094.2342.084.3466c0 0-.093.253-.159.3748-.103.075-.159-.1218-.356.1405l.216.075c-.169.2249-.338.3935-.563.5622.01 0-.487.4309-.712.4497l-.028-.1124c-.112-.0188-.234-.0094-.309-.0937 0 0-.225-.4029-.328-.5997l.019.1031-.216-.4216c-.065.103-.168.1686-.281.2061l-.562.5434c.122.5247-.047 1.6396.019 2.183l.075-.0281c1.068-1.0774 1.986-1.9113 2.427-2.2954 1.264-1.115 3.101-1.4054 4.591-.8152.833.0094 1.199.4966 1.798.9838.31.2717.656.5903.853.8432.009.0094.141.0844.216.1406.168.1405.084.1593.149.3186.085.1499.563.3185.328.5246-.271.2436-.403.3467.075.1874.15 0 .169.1499.075.1968 0 0-.159.0843-.234.1218l.356.0749s-.318.1406-.459.2436c-.009.0094-.009.0094.44 0-.065.1031-.243.1499-.356.2061-.018.0188.506-.1311.384.0469-.112.1499.253 0-.224.2623-.01.0094-.01 0 .271 0-.084.2062-.843.1218.028.1968 0 .0094-.253.0375-.281.0468.225.0282-.178.0937.019.0937l.216-.0093c.065.1405-.047.0936.056.2717-.085.1124-.028.103-.141.1592l.075.1406-.028.0749c-.028-.0093-.15.8526-.14.862-.113.684-.094 1.218-.431 1.8645-.347.6184-.703 1.1337-1.2 1.6396-.627.5715-.984-.0843-1.433.3279-.253.2062-.328.2436-.628.1874 0 0-.197-.2342-.309-.3279 0 0-.01.6465-.038.9651l-.084-.5154c.019-.0093-.319.1968-.431.2062-.159.0281-.234.5996-.618.1218l-.263.0374-.159.328c-1.012.9463-1.368 1.4147-2.773 1.7614-1.453.4216-1.462.9931-2.343 1.9301 0 0-.234.2717-.346.4216.009-.0562 0-.0656.047-.0843.084-.0469.084-.2718.084-.3654l-.113.3747-.215.0656c0-.0094-.019.253-.075.3373-.525.4778-.234-.0187-.628.1593l.141.178c-.244.1031-.45.1406-.712.1687.019 0-.647.0936-.862-.0188l.056-.103s-.141-.1218-.197-.1874l.094-.7402-.047.1031.066-.4685c-.169.0843-.384 0-.562-.1031.084.3279 1.667.253 2.173 3.1294.291.5153.562.8526.815 1.4803.244.684 2.371 4.6191 2.483 5.3311.075.9557-.524.7496-.356 1.6209.066.3654.113.4966-.028.8245h-.009l3.485 3.045-.253.0281-.094-.0843.103.6465c.085.1124.16.2155.057.3373l.121.5715.16.2249c.571.965 1.115 1.5647.562 2.6796-.291.6184 1.921 8.8355 2.117 9.4535.347.281.478.656.684 1.04l-.056-.037c.009-.122-.14-.178-.234-.216.009.047.187.178.234.216l-.009.243s.197.113.243.206c0 0 .085.281.113.422-.028.141-.169.019-.131.412l.168-.112c.028.412-.29 6.08-.318 6.483.037.225.075.45.103.684l-.169-.131-.009.075c.075.562.178.347.234.581.019.262 5.359 9.266 5.359 9.266-.028.178-.178.422-.178.422l-.112.899c.075-.084.215-.234.197-.421-.019-.085-.01-.066.028-.141-.066.515-.094 1.115-.225 1.621.14 1.19.393.412.524 1.658.282.647.31 2.483.347 3.186-.009.337-.047.731-.103 1.143l.534 2.53c.141.515.15.534.159.543.272.544.741 1.171 1.106 1.687l.281-.075c.834-.253 1.658-.047 2.014-1.003.207-.712.497-1.012.872-1.377.412-1.846.759-3.701 1.059-5.556-.179-.478-.619-.656-.647-1.79.047-1.424.169-2.829.206-4.263.028-.74.075-1.48.122-2.22.112-.815.253-1.49-.038-2.296l.075-.196c-.14-.057-.065-.047-.187-.188.094-.225-.037-.168.019-.347.019 0 .393-.046.309-.065-.225-.047-.075-.094-.047-.094-.037 0-.347.028-.347.019 1.003-.319.141-.019-.018-.244.328-.075.337-.065.318-.075-.627-.168-.159-.103-.337-.234-.187-.15.468-.159.431-.168-.15-.029-.365-.019-.478-.104.525-.149.534-.14.515-.149-.206-.057-.618-.085-.618-.085l.375-.206c-.103-.019-.319-.028-.319-.028-.122-.009-.178-.15 0-.206.431-.038.413-.047.375-.056l-.506-.16c-.028-.065.187-.299.159-.403-.112-.224-.206-.046-.065-.431-.075-.524-.169-1.086-.216-1.611-.225-1.059-.168-1.387.45-2.399.956-1.452-.225-.665-.215-.674.028-.206.084-.497.178-.675.159-.262.299-.656.477-.89.15-.225.253-.693.403-.974.291-.619.103-1.471.469-2.165-.113-1.517-.263-3.045-.431-4.59.693.609 1.368 1.274 2.024 1.986.149-.234.309-.45.524-.637.375-.244.6-.319.984-.628.506-.394.834-.778 1.199-1.302-.112.262-.215.515-.337.74l.037-.075c-.037.515-.018 1.546-.018 1.546.159.459.225.89.271 1.377.029.319.019.656.113.956.112.328.215.29.44.478.244.253.525 1.611.515 1.564.085.3.497.787.713 1.003l.037.225c.497-.057.281.655.843.937.197.168.6.496.6.496.047.084.59.871.59.871.291.075 1.162.066 1.415.15.309.244.525.385.665.75.225.215.366.412.459.703-.159.159-.3.477-.253.712.066.187.384-.01.806-.028.778.009 1.293 5.106 1.574 5.378.244.14.862.402 1.124.365.235-.028.291.459.338.628.084.196.384.506.552.646.169.103.525.178.619.263.084.159.131.515.159.73.028.01.3.131.319.122.14.122.159.15.018-.009l-.487-5.153-.028.309c-.028-.01.647 4.975.628 4.994.281.271-.244-4.432-.084-4.076v-.028c-.178-1.312-.31-2.577-.357-3.954.01-.618.085-1.002.169-1.284-.103-3.654-.159-7.242-.169-10.709-.112-.477-.215-.955-.271-1.349-.047-.843.009-1.602.271-2.4077.01-1.4991.019-2.9795.038-4.4223-.225-.5809-.337-1.293-.478-1.902.056.0937.056.075.056.1687.01.2155.188.3841.291.4778l-.253-1.0681s-.216-.2811-.272-.4872c0 0-.065-.609-.075-.9182.047-.2904.188-.0375.206-.7214l-.028-.0937-.187.178c.009-.2905.019-.5622.037-.8339-.084-.4872-.178-.9275-.196-1.4335l.215.1125c-.009-.4685-.169-.3092-.215-.4779.009-.178.074-.5247.074-.5247.047-.1124.272-.2717.263-.2717l-.038-.2904-.056.0562c.197-.4778.3-.9463.684-1.3304.159-.7683.272-1.368-.15-2.0707-.796-1.2648-.225-2.0425.337-3.2698-.009-.0094.16-.2905.16-.2905l.065-.7027c-.14-.1405-.065-.2717.019-.4122l.038-.7871-.104.1125h-.309l.422-.3279.028-.506h-.009c-.206-.3841-.169-.5528-.132-.9838.094-1.0587-.59-.7495-.627-1.8926.047-.8713.215-1.6583.421-2.5016.216-.7776.506-1.218.787-1.8738.244-3.5041.281-4.2349.338-4.6284-.197.1499-.45.281-.656.1967l.131.5528-.066-.1124.207.8807c-.066.0937-.216.2529-.216.2529l.075.1219c-.253.1686-1.059.1311-1.031.1311-.318 0-.571-.0187-.871-.1124l.141-.2249c-.488-.1593-.085.3935-.769-.1124-.075-.1031-.131-.4029-.131-.3935l-.262-.0469-.188-.4403c.01.1124.038.3841.15.431.057.0093.047.0281.066.0937-.15-.1593-.469-.4591-.469-.4591-1.18-1.0119-1.255-1.6865-3.045-2.0144-1.761-.2624-2.183-.7308-3.541-1.7615l-.234-.3747-.31-.0094c-.402.609-.552-.0562-.749-.075-.141 0-.572-.2061-.544-.1967.122.3748.103.2342-.028.6277-.075-.3747-.168-1.143-.168-1.143-.122.1311-.328.431-.328.431-.028 0-.216.0562-.206.0655-.16.0375-.431-.1218-.563-.2061-.59-.431-.927.3935-1.752-.2155-.655-.534-1.152-1.1149-1.639-1.8082-.478-.7308-.525-1.368-.75-2.1737.01 0-.253-1.0306-.281-1.0119l-.037-.0843.065-.178c-.131-.0469-.065-.0375-.187-.1687.103-.2248-.028-.1593.037-.3279.722-.0469-.046-.0656.272-.1312-.037 0-.347-.0094-.347-.0187 1.031-.2061.132 0 .01-.2436.337-.0281.337-.0281.328-.0281-.6-.2624-.15-.1218-.3-.2905-.159-.1967.487-.0843.459-.103-.141-.0563-.356-.0937-.45-.1968.544-.0468.553-.0375.534-.0562-.187-.1031-.581-.2342-.581-.2342l.413-.1406c-.094-.0468-.3-.1218-.3-.1218-.122-.0468-.122-.2249.065-.2436.591.1312.403.0656.066-.2248-.328-.1781.253-.4872.328-.6746.056-.2062-.056-.2062.131-.4029.084-.075.169-.0937.244-.1968.281-.4028.581-.7589.918-1.1149.646-.6465 1.021-1.2742 2.024-1.396 1.714-.8901 3.944-.7683 5.593.4122.581.4123 1.78 1.293 3.195 2.4454l.094.0281c.009-.6559-.328-1.9769-.253-2.614a37.1903 37.1903 0 0 1-.74-.5809c-.141-.0375-.272-.1031-.356-.2155l-.207.534.01-.1311c-.094.2529-.309.7589-.309.7589-.085.1218-.206.1218-.356.1499l-.019.1405c-.272.0094-.918-.4497-.909-.4497-.281-.178-.515-.356-.74-.5996l.243-.1125c-.262-.2904-.299-.0562-.44-.1218-.094-.1311-.244-.431-.244-.431-.028-.1311.057-.4309.057-.4309l-.235-.1968-.009.0937c-.065-.2342-.243-.684-.243-.684-.694-1.5646-.497-2.258-2.006-3.5228 0 0-.646-.5434-.637-.5434-.065.0562-.543-.6559-.974-1.3117-.45-.4966-.946-1.0119-1.312-1.5741-.412.0937-.328-.4403-.506-.5621-.131-.075-.374-.4029-.459-.5247-.056.431.028.2717-.309.5809.084-.4497.187-.7964.365-1.218-.168.0281-.374.0656-.534.1311l-.234-.1405c-.197-.1499-.337-.6184-.393-.8526 0-.0187-.047-.2717-.047-.2717-.281-.8433-.965-.5809-.937-1.7989.084-.7027.272-1.2649.543-1.9114 0 0 .506-1.0868.516-1.0868.206-.4029.402-.6839.627-.9557l-.009.0937c.206-.1124.422-.2061.637-.281-.112-.0937-.197-.1593-.272-.2062l.385-.3935c.009 0 .121-.1499.121-.1405.3-.3654.694-.7121 1.059-1.0213.103-.0187.3-.0468.3-.0468.075-.2717.496-.3654.74-.3373 0 .0187.075.3841.094.3092.056-.2343.112-.0843.122-.0562 0-.0469-.029-.3467-.019-.3467.365 1.0025.019.1218.328-.0094.056.3373.056.3373.065.328.075-.2155.131-.609.235-.2999.018.0656.084.0188.121 0 .244-.1592.113.4779.132.4591.074-.1499.112-.356.252-.4403.047.5528.038.5528.057.5434.131-.178.309-.5622.309-.5622l.15.431c.093-.1405.197-.5059.421-.2998.057.1124-.14.5434-.065.4778.028-.0281.328-.4122.328-.4122.075 0 .206.2904.318.3092.15 0 .141-.1125.309 0l.15.1311c.647.1968 1.331.4217 1.959.6653.974.3466 1.293.6277 1.855 1.5646.122.2811.206.5247.271.8152.235.2342.45.4872.666.7401l.046-.1967c.132.1967.3.4591.375.6933.787.9463 1.921 2.3423 3.092 3.9539.234-.4123 1.209-2.867 1.462-3.2512-.291-.431-.572-.8807-.844-1.3398-.196-.0843-.421-.2155-.43-.3935l-.45.3279.075-.0937c-.197.1406-.516.3842-.731.4779-.094 0-.3-.0094-.3-.0094l-.084.0843c-.216-.0562-.497-.5247-.487-.5247-.15-.2155-.235-.3841-.31-.6371l.263-.0281c-.113-.4497-.356.178-.309-.609.037-.1124.253-.3373.253-.3279l-.113-.2249-.047.075c.047-.2062.094-.6278.094-.6278.056-.89.215-1.4335.187-2.0237-.955-2.0332-1.658-3.7852-1.958-4.5535a5.516 5.516 0 0 1-.365-2.1175l-.028.0094.037-.0375c.009-.3466.047-.6839.122-1.0212-.169-.1687-.178-.5903-.169-.8152.103-1.0118-.899-1.0493-.365-2.2954.431-.8339 1.34-1.5179 2.108-2.0332.14-.0937.281-.1592.44-.2155.591-.2904 1.078-.4122 1.734-.3185 0 .0187.44.103.44.1124.384.0843.375.1499.806.1124l.112.1218c.084-.1218.047-.0468.197-.1311.15.1593.112 0 .272.1124-.103.7214.065-.0375.075.2998.009-.0375.075-.3373.075-.3373.056 1.04-.029.1406.234.0469 0 .3373-.01.3373 0 .3279.328-.5809.15-.1312.346-.2811.085-.0656.3.1031.3.1687-.262.7683.103-.1031.656.1686-.028.1312-.197.609-.075.6746l.075.0187c.009.0375.609-.0843.609-.0843l-.14.506c.112-.0094.328-.075.328-.075.131-.0281.299.178.187.3373-.403.2342-.328.2342-.3.2436.075.0094.59.0187.6.0281.056.0656.093.6371.14.5903.131.1218.197.0281.272.2436.009.0187.028.2155.037.2061.244.356.619.862.769 1.2555.44.7964.262 1.0119-.422 1.5365-.506.506-.571.9463.225.4685-.019.2342-.103.7215-.103.7215-.094.2998-.159.9275-.187 1.2742.468 1.471.974 3.1855 1.377 4.8158.431-.1405 2.764-.8245 3.185-.8807l-.037-.1312c-.028.0281-.056.0656-.094.0843.01-.1967.056-.2342.019-.431-.487-.2155-.75-.4122-1.143-.7776.281.0656.731.1124 1.049.1405-.197-1.7239.019-3.8695.45-6.0806-.028-.0563-.056-.1031-.066-.1499.028-.328.047-.6278.281-.8808.094-.4122.188-.8151.291-1.2273l-.075-.0563c-.572-.4591-.347-.3654-.375-.6558-.103-.2249-.365-.6184-.581-.7308-.178-.1031.085-.2998.178-.3935.075-.1124.066-.3654.038-.4966-.047-.1218-.253-.3279-.253-.4029.037-.0843.309-.2998.393-.3747-.15-.3092-.084-.2343-.431-.3373l.244-.1499.047.0843h.318c-.121-.2155-.103-.1687-.328-.3186l.45-.4965c.009-.0375.469-1.0963.347-.9838l-.066-.1125c-.122-.6558-.459-1.9113-.515-2.436.103-.4684.553-1.2555.852-1.6302.197-.2155.188-.1218.216-.15.141-.206.197-.609.272-.8525.084-.0656.524-.1125.618-.2343.084-.2248.216-.178.309-.4497.15-.4029.384-.8151.338-1.2555l.018-.1686c.235.178.384-.2343.366-.2343.056-.1592.159-.4122.374-.356.366.4497.722.9088.994 1.4335.009.1968.037.534.056.7214l.122-.178-.141-.4684c.047.0936.113.253.169.4216.168-.2436.346-.4685.543-.6933.066-.2905.197-.506.45-.7027-.141.0655-.234.1592-.281.2998.009-.0188.037-.1125.056-.1312-.028 0-.309.0375-.309.0375-.056-.1593-.056-.2905-.028-.4591-.056.1218-.085.2155-.094.3466-.056-.3185.047-.5809.206-.8526-.281.0282-.496.075-.759.1687l-.103-.0094c.131-.2904.291-.4966.515-.712-.103.0374-.206.0937-.299.1499l.243-.2436a2.9333 2.9333 0 0 0-.3.1311l.253-.2155c-.524.2811-.843.6652-1.068 1.2087.132-.7964.562-1.7802 1.097-2.3892l.112.2624c.347-.3842.084-.3748.178-.5528.15-.1312.506-.3373.506-.3373.15-.0469.459.0374.459.0374l.253-.2623-.103-.0094.937-.2998c1.518-.3841 2.155-.1499 3.907-.8245 1.658-.6465 2.895.0094 3.719 1.5272.029.1593.057.4872.057.4872.084.0656.159.1218.253.178.674-.281.421.4123.562.5715.14.1312.328.6934.318.6653.141-.4216.028-.2905.441-.506-.188.4123-.619 1.1993-.619 1.1993.188.0281.366.0375.553 0 0 0 .206.2155.206.1874.141.1218.225.5247.253.712.169 1.115.928.5997 1.162 1.9208.047.4216.047.8245.028 1.2554 0 0-.14 1.4617-.178 1.4617-.225 1.1055-.862 1.9581-.815 3.148l-.131.1687c.178.1593.103.4216-.019.5902-.019 0-.384-.0843-.318-.0374.196.1218.037.1124.009.1124.047.0187.337.0937.328.1031-1.05-.0094-.141-.0375-.075.2529-.337-.0468-.337-.0468-.328-.0374.534.4122.103.1592.225.3654.112.2342-.487 0-.469.0187.132.0843.328.1593.403.2904-.543-.0374-.543-.0468-.534-.0374.159.1405.534.3373.534.3373l-.431.0749c.085.0562.281.1687.281.1687.113.0655.094.2436-.093.2342-.431-.1593-.385-.1031-.366-.0937.028.0375.384.3841.384.3841-.009.0937-.318.253-.337.3842-.009.1686.103.1593-.019.3466-.009.0094-.159.1593-.15.1687-.215.6558-.449 1.3585-.721 1.9957-.347 1.0212-.356 1.1992-1.209 2.0518-.234.2155-.44.3842-.702.5622-.403.2811-1.574 1.1243-.263.8901-.159.2248-.384.5153-.599.6746-.31.2154-.666.5715-.993.7401-.3.178-.628.5903-.956.8152-.515.4028-.9 1.2648-1.48 1.6958-.591.3654-1.059.5903-1.668.8245-.787.862-1.584 1.5647-2.371 2.0238.197.2342 1.106 2.6796 1.275 2.9419l.543-.3185c-.103-.1874.028-.2436.159-.328-.14-.3935-.318-.8338-.365-1.2461 0-.3092.3-1.5084.74-1.2086-.075.3935 0 1.04-.009 1.0306.103.2811.187.5434.234.8151.206-.0468.628-.0937.937-.1311 1.771-1.1431 3.532-2.3798 4.488-2.9326.122-.2905.346-.8433.478-.9651.534-.356.815-.5153 1.461-.4028.562.0374.872.1873 1.293.2342.3.0187.131-.2342.609-.7027l.15-.1218c.731-.3467.75-.1686 1.302.0281.385.0843.656.1499 1.031.2998.15.0562.6.2624.74.2624.337-.0188.553 1.1055.534 1.1055.131.4123.263.8339.403 1.2368.356.8245.553.6652.187 1.5834-.009 0-.206.3935-.206.3935.028.178.057.5341.057.5341l.281.1686c-.103.1405-.338.4123-.338.4123v-.2062l-.346.0469c0 .4684-.01.2998.121.7589-.281.356-.552.6371-.899.9463-.487.6277-1.312 1.2086-1.621 1.6021-.262.5341-1.002 1.3024-1.433 1.7052-.291.1781-.534.2811-.862.3748-.01.0843-.094.2249-.169.2624-.909.0655-1.387.1124-2.305.2529-.403 0-.421 0-.431.0094-.562.1499-1.255.5903-1.789.8807-.216.0469-.769-.1124-1.04-.0187-.281.1499-.488.103-.712.2248-.057 1.115-.029.2624-.459.6278-.075.0468-.15.1124-.216.1874.44.2436.375.5059.244.8526l-.01.0281c.394-.1593 2.043.0468 1.93.0281.319.0468 1.574-.2249 1.668-.253l.3.075c.103-.1406.243-.2062.421-.1968.394.0562.947.178 1.331.0562.347-.0281 1.031-.0468 1.031-.0468.477.1312.871.2998 1.33.4591.094.0093.778-.1031.937-.1218.197-.0188.749-.075.918-.0094.337.178.609.3654.89.6278.497.5621.544 1.3772.825 1.9956.168.2998.262.0468.909.178l.084.0188c.862.2904.684.3279.993.8713.15.1874.319.3748.478.5715.103.1593.44.6934.571.7871.253.2248-.028.9743-.131 1.2461.028.0093-.393 1.4803-.393 1.4803-.075.3092-.122.8432-.281 1.0962-.235.2811-.769.609-1.106.7683-.103.1687-.319.4966-.319.4966l.113.3092c-.178.0562-.534.1405-.534.1405l.131-.1686-.309-.1687c-.291.3748-.206.2342-.375.6933-.468.1499-1.443.3467-1.443.3467-.272.1124-2.361.5809-2.352.5903-.065.0562-.206.1311-.29.178-.956.4497-1.827 1.0119-2.67 1.4147-.572.1125-1.837.1406-2.436.1218-.319-.0843-.338-.0843-.347-.0843-.534.1125-1.059.2155-1.583.3467-.197-.0281-.637-.3748-.918-.3842-.207.0188-.253.0188-.46-.0281-.243-.0562-.271-.0468-.524-.0374-.656.0374-1.537-.0563-2.155.1405l-.619-.1499c-.14.1312-.337.2342-.515.3092l-.281.2904c0 .0094-.047.0562-.103.1031.497-.1125 1.396-.431 1.48-.4591l.281.0468c.066-.1405.197-.2155.356-.2155.385.0375.797.1499 1.172.0281.253-.0187.496-.0281.758-.0093 0 .0093.179.0093.179.0093.449.1874.721.3748 1.124.5903.431.0843 1.293-.0843 1.817.1406.319.2248.591.4497.872.7308.206.2248.421.6839.553.9556.234.4872.253.7777.421 1.1993.085.1967.056.178.234.1593.563 0 1.265.5434 1.415 1.0774.047.1968 0 .3186.028.4685.085.2998.384 1.4897.497 1.6396.169.2436-.281.7496-.431.9557-.15.2249-.403.8526-.506 1.1243-.066.2343-.084.6933-.169.862-.047.0656-.15.1312-.215.178-.272.2436-.544.4497-.862.6371-.141.2342-.244.4029-.441.609 0 .0188.019.2436.01.253l.065-.0094c-.243.1687-.487.2811-.777.3561.103-.0656.487-.3373.487-.3373-.197.0281-.347 0-.543-.0469l-.225.1406c-.384.2529-.319.2342-.637.5621-.45.0281-.984-.0468-1.425-.0937-.046.0094-.384.0094-.384.0094-.225.0094-2.005-.0094-2.07.0187-.066.0562-.178.0937-.216.178-.665.2249-2.07.7308-2.726.8339-.834-.0375-2.314-.3654-3.139-.609-.356-.178-.375-.1874-.384-.1874-.553-.1218-1.293-.0656-1.874-.0843-.197-.0656-.581-.4872-.862-.5434-.356-.0188-.525-.1687-.909-.1874-.478-.0281-1.265-.1593-1.705.0187l-.187.0375c.047-.1031 0-.178-.075-.2248-.141.609-.478 2.0424-.459 1.9113.318.965.009.8432-.103 1.6771.018.2249.084.6839.253.8432.131.1406-.16.4404-.235.5622-.093.178-.122.5715-.112.7683.028.1873.169.4872.169.6277-.038.1405-.282.5996-.366.7495l.084.4217.253.103-.206.3561-.028-.1593-.272.0937c.085.356.047.2529.253.5621l-.393 1.1618c-.009.1218-.159.8058-.281 1.3867l-.094 1.827c0 .3467-.009.6933-.019.9369-.028.4966.019.6465.038 1.0494-.009.0468-.084.2248-.122.2623l-.028.5622c.075.3747.197.8619.225 1.0868.019.3842.028.6559.084 1.0306.047.0375.094.0937.131.1687.094.0281.225-.2436.225-.0375 0 0 .01.3373.206.2998-.084.3561-.15.6184-.187 1.0025-.047.7777-.075 1.5553-.122 2.333-.047.7776.01 1.5178-.037 2.2861.018.1312.065.3373.14.4404.085.2154 0 .0093-.131.1592.056.6934.216 1.4054.234 1.9488-.018.2436-.253 2.7827-.234 2.7921-.037.4403-.094.9088-.122 1.3398 0 .0281-.009.0843-.028 1.1805-.056.5997-.3 2.2676-.281 2.6986.019.225.066.093.122.365.028.075.065.234.075.319-.01.712-.066.993-.038 1.864.019.89.038 2.502-.047 3.364 0 0 .403 3.598.431 3.991l.403 2.061c-.206.544-.178.375-.253 1.003.328.197.263.234.3-.113l.206.628-.253.178-.028.965c.16-.412.647-1.133 1.143-1.152-.206.037-.412 1.293-.412 1.283.028.778-.056 1.584-.15 2.352-.065.487-.15.956-.197 1.443.094.234.178.506.103.656-.037.065-.065.15-.093.262.037.253.112.412.206.787.159.89-.216 3.532-.188 3.392-.084.6.122 2.295.132 2.37l-.085.366c.131.131.197.271.188.459.234.59.281.965.318 1.602-.028.169-.196.497-.328.843.272.337.787.656 1.003 1.256.084.468.15.918.187 1.386.01.375-.047.769-.112 1.171.3.825.824 1.565 1.218 2.193.168.29.365.749.431 1.162l.365.468c.047.094.525 1.134.9 1.78-.019-2.239.356-3.213 1.105-5.696l.328-1.171c-.665-.385.019-1.031.028-1.453-.009-.328.216-1.246.197-1.199l-.3.375-.384-.009c.412-.403 1.265-1.19 1.256-1.19-.122-.122-.3-.281-.469-.338l-.056-.393c-.028-.328.197-1.096.3-1.434.59-1.799-.31-1.733.328-3.616.562-1.406 1.358-2.717 1.995-4.104.881-1.827 1.453-1.724 1.818-3.766l.197-.31c-.085-.168-.028-.187-.047-.412l.122-.187c.037-.206.028-.244.131-.422l.262.047c.319.112-.234-.187.094-.225l-.281-.112c-.056.028-.047-.01-.038-.01 1.125-.121.141.019.15-.449.347.018.347.028.337.009-.224-.234-.505-.347-.187-.422.075-.028.056-.112.047-.168-.019-.131.094-.225.197-.206.712.206.028.009-.047-.328.084.009.618.084.562-.047-.131-.197-.487-.459-.487-.459l.487-.206c-.075-.085-.262-.216-.262-.216-.103-.084-.038-.384.159-.403.431.169.393.113.375.066-.338-.506-.328-.553-.328-.553.019-.112.459-2.68.459-2.736 0-.29-.075-.234.094-.571l.196-.3c.356-1.096.769-2.211 1.228-3.279.702-1.921 1.161-2.708 2.829-4.0667l1.125-.8807c.318-.4591-.235-.3561-.516-.2998.263-.2905.581-.6278.9-.8526.478-.328.871-1.0775 1.358-1.3773.169-.1031.778-1.2742.778-1.2742.927-.8058 1.124-1.9208 2.108-2.8108.656-.5341 1.874-4.7034 2.52-5.1719 6.793-6.9801 5.369-4.9657 10.1-5.6216-4.103 3.1856-3.438 1.6397-5.734 5.2656l.516 1.0212c.168-.178.478-.459.674-.5902.169-.0843.506-.1593.694-.1968l.309-.1124c.918-.2623 1.227-.1031 1.583-1.1993-.3.9838-.721 1.1056-1.48 1.6771.009.0094-.619.4029-.619.4029-.43.4685.862-1.6396.338-1.293l-1.265.8995c-.356.3466-.3.3935-.506.7776-.253.3373 3.457.1781 3.017.2343-.084.0093-.187.1124-.253.1686-.703 1.4242-2.314 5.1625-2.68 6.671.16.281.338.5715.375.7308a5.649 5.649 0 0 1-.084.8057c-.131.4591-1.499 2.9232-1.668 3.4292l-.019.253c.075.1408.347.1588.712.4028.16.112.3.225.431.375.206.272.075.309.132.468.149.253.534.769.805.872.216.084.028.524-.009.684-.028.206.094.618.178.815.103.178.375.421.422.552 0 .169-.132.647-.178.844l.234.365.328.009-.141.394-.084-.131-.291.168c.206.31.141.225.459.431l-.149 1.134c.028.178.075 2.033.149 1.968 0 0 1.977 1.92 2.118 2.248l2.558 1.621c.056.328.065.338.065.347.188.337.872.918 1.171 1.218.094.187.075.759.225 1.002.132.16.16.207.244.403.084.235.103.253.253.45.244.347.44.703.646 1.068.169.291.375.497.563.759-.478.037.309.899-.094 1.096l-.394-.112c3.158 4.75 5.584 8.741 5.509 16.124.225-.328-.018-.309.019-.459.113-.122.366-.328.366-.328.121-.056.431-.028.431-.028l.14-.262-.094.009c.207-.112.609-.356.609-.356 1.406-.918 2.062-.768 3.045-2.464.881-1.63.553-2.033 2.099-3.036l.441-.103.131-.299c-.441-.563.281-.544.365-.713.056-.14.431-.505.403-.477-.403 0-.262.037-.6-.235.394.047 1.181.197 1.181.197-.075-.159-.291-.459-.291-.459.029-.131 0-.225.075-.347-.018 0-.056.038-.065.047.056-.159.14-.281.234-.412.703-.946.843.656 1.649-.543.3-.385.618-.731 1.012-1.012.075-.141 1.04-.338 1.143-.487.609-.816.478-1.153 1.162-1.771.403-.384.496-.431.834-.909l.234-.084c-.028-.16.028-.132.056-.282.234-.046.094-.112.272-.168.506.525.009-.084.281.122-.028-.038-.225-.263-.216-.272.834.618.094.112.178-.15.253.225.253.234.244.216-.234-.609-.009-.188-.009-.413.009-.243.393.281.384.253-.066-.131-.197-.318-.197-.449.422.346.422.356.422.327-.066-.206-.281-.562-.281-.562l.384.188c-.047-.094-.15-.281-.15-.281-.056-.113.037-.235.178-.132.272.338.272.31.262.272l-.15-.515c.047-.066.366-.028.441-.122.084-.131-.019-.178.159-.272l.197-.056c.44-.431.918-.871 1.386-1.293.3-.309.3-.421.731-.749.412-.16-.356-1.856.422-2.315.337-.084.562-.159.702-.234l.15-.29c-.14-.113-.862.524-.852.524.3-.243.834-1.049 1.171-1.199 2.445-5.518.768-10.54-.787-13.1825-1.733-2.9419-4.966-4.6753-9.126-4.5909-4.16.0843-8.423 3.4572-7.542 8.5264 1.33 7.692 11.243 6.249 11.065 1.396-.047-1.284-1.63-2.137-2.67-1.35-1.078 1.64-3.654 1.069-3.935-.862-.253-1.714 1.358-2.941 3.063-3.1288 2.427-.2624 5.463 1.0588 5.894 4.7318.384 3.241-1.134 6.558-4.394 7.982.29-.018.58-.028.862-.028.843 0 2.145.075 2.679-.731.019.01 0 .038.009.057 1.05-.422 1.968-1.022 2.615-1.977.037-.534.037-.516.046-.562.281-.806.347-1.35.422-2.184.103-.833.159-1.667.225-2.511.037-.309.103-1.396.44-1.527-.112.206.131 3.355.113 3.964l-.028.346c-.066 2.389-1.2 4.123-3.336 5.135-.328.374-.768.618-1.227.787-.525.178-1.265.459-1.79.59-1.077.318-4.497-.347-4.282-.3-.018 0-.234-.037-.234-.037 0-.01-3.738-.31-3.738-.31l-1.434-.131c-.515-.131-1.424-.45-1.93-.393-1.883-.122-3.092-.825-4.272-2.296-.722-.749-.965-.852-1.565-1.846-.178-.29-.496-.852-.562-1.18-.112-.75-.112-1.405-.037-2.164.215-1.359.993-2.53 1.536-3.767.216-.581-.094-.543-.244-1.49-.14-1.3206-.018-1.1239.338-2.1358.103-.4403.431-1.9394.356-2.3048-.113-.2624.665-1.0587.665-1.0587.047.0281 1.33-1.977 1.33-1.977.619-1.2835.994-1.8832 2.455-2.361.412-.2249.75-.5622 1.125-.8433.009-.1218 0-.2436 0-.356.281-.0656.833-.178.833-.178l-.281.1967.366.1687c.553-.4029.478-.3279.937-.8432 1.002-.2811 1.995-.5903 3.007-.8058.665-.2155 1.303-.3467 2.015-.3654.777.0562 2.586.2998 3.251.2717 1.593-.1312 3.794-.0187 5.378.1968l.759.178c2.323.8432 4.235 2.4454 5.79 4.3473.412.6278.44.6559.45.6652.833.9276 1.902 1.6303 3.035 2.1362.131.075.394.2905.525.3936.59.2717 1.002.7308 1.19 1.3585-.094.7308.206.9744.478 1.6022.215.5059.506.9462.759 1.4334.459 1.1337.955 2.2577 1.246 3.4477-.441-.271.037 1.987-.441 1.996-.178-.309-.44-.722-.702-1.115.993 3.335 1.442 6.558 1.19 9.819.88-1.846 1.227-3.129 1.274-3.223.15-.337.187-.45.29-.806.169-.524.806-4.113.975-4.628.075-.263.093-.441.131-.703.122.075.215-.14.215-.14.047-.132.066.084.131.084.047-.038.085-.066.122-.075.141-.225-.674-1.724-.571-1.977.084-.141.281-.422.421-.647l.131-.374c-.009-.038-.018-.169-.009-.197.113-.262.178-.347.291-.675.206-.6086.421-1.2176.627-1.836.066-.4123-.337-2.5203-.309-2.6047l.038-.862c.215-.1499.168-.0936.309-.2998l-.15-.1311-.056.0937-.047-.2811h.187l.169-.253c-.019-.1218-.675-2.5391-.665-2.6421.028-.0937.637-1.3961.702-1.5085.057-.1312.132-.3935.122-.534-.019-.1031-.131-.3654-.019-.431.15-.0656.31-.3467.375-.4872.141-.5716-1.471-.6465-1.021-1.1993.178-.1874.309-.2249.375-.2811l.065-.2155c-.028-.281-.168-.609-.215-.8713h.047l.243.9463c-.065.178-.45.3373-.515.4216-.028.0937.112-.9276.178-1.3679-.056.0094-.103.0468-.103.1218l-.113-.0656c-.243-.2249-.787-.3373-1.105-.4404-.253-.0843-.394-.0281-.637-.1124-.197-.0281-.553.1405-.703.1405-.384-.1311-.853-.356-1.246-.4216l-.3.0281c-.6-.0468-1.649-.2061-2.202-.3935-.403-.2342-1.199-.9182-1.574-1.2273 0-.0656-.065-.1218-.093-.1687-.038-.0375-1.2-.4778-1.35-.534-.402-.1593-.824-.2249-1.208-.4029-.131-.3092-.188-.4123-.375-.6746-.131-.0187-.253-.0375-.365-.1031 0 0 .178.2811.234.3467-.169-.1218-.3-.253-.412-.431l.037.0187c-.009-.0093.056-.1499.066-.1592-.075-.1781-.103-.3186-.132-.506-.112-.1405-.44-.6277-.496-.8057-.019-.1312.094-.4404.103-.609 0-.0844-.019-.9276-.066-.9276-.046-.1499-.187-.5528-.018-.6652.112-.075.609-.7777.74-.9463.056-.0937.056-.178.14-.2998.235-.3092.825-.4872 1.2-.3467.112.0562.093.0656.196-.0468.216-.2343.3-.4123.572-.6746.506-.4685.684-.5809 1.358-.7496.403-.0093.919.3092 1.218.3654.797-.103.797-.2061 1.49.1312.319.253.928.1686.946.5059l.197.0375c.047.0375.553.4778.853.6746l-.15-.356c.075.0656.15.1218.244.178-.31-.2061-.244-.2436-.422-.5247l-.047.0094c.056.1499.187.2342.234.3373-.103-.0844-.196-.2155-.262-.3279l-.44-.0563c-.356-.281-.947-.4497-1.368-.6371-.253-.1124-.431-.0937-.666-.2061-.187-.0656-.646.0375-.702.0187-.291-.1124-.628-.4216-.947-.6277-.009 0-.018-.0094-.243-.0281-.403-.1312-1.218-.4779-1.565-.6933-.45-.4779-.871-1.0681-1.386-1.6022-.038-.0468-.122-.1405-.141-.1874 0 0-1.246-.8338-1.387-.9744 0 0-.581-.3748-.852-.5903.009-.3372.028-.2248-.066-.5434l-.243.0281.046.1406s-.215-.1499-.318-.2249l.159-.178s-.065-.2717-.084-.4029c-.178-.1874-.45-.5434-.534-.7776-.038-.2062.065-.5716.093-.787 0 0 .094-1.0681.113-1.0681.019-.2062-.019-.759.225-.8527.112-.0281.459-.2904.571-.3654.15-.0843.309-.1686.459-.2529.403-.328.328-.3748.928-.3186.45.075.45.2624.637.1124.347-.3279.581-.8526 1.04-1.0962.244-.0937.469-.1499.74-.1873.131 0 .478.178.6.2436.103.0468.515.2998.581.3091.337.0094.637 0 .984.0375 0 0 .449.1874.665.2905.337.281 1.021.1686 1.105.5246l.216.0282c.056.0374.815.534 1.03.5902-.084-.0187 1.05.2624 1.265.4685l.01-.0188c0-.2529.028-.4497.374-.4965.15.3279.178.5059.122.8432l-.075.0094.075.0093c-.037.2437-.047.3374-.178.5341-.15.0187-.272.0187-.403.0094l.75.6933c.056-.1874.215-.6277.384-1.0962-.075-.0562-.15-.0937-.244-.1312.113.0281.15.0656.244.1218l.337-.9182-.178-.0281c-.262.2998-.271-.178-.496.075l-.028-.1312c-.122-.0094-.216 0-.3.0094-.028-.0656-.066-.1218-.094-.178-.187-.3467-.384.2155-.14-.5247-.122-.1406-.263-.1593-.413-.328-.15-.1311-.552-.1592-.684-.2435-.271-.3186-.618-.7777-.946-1.0213-.009 0-.019-.0094-.281-.1124-.562-.328-.862-.4779-1.443-.7496-.037-.0468-.056-.1593-.047-.2155-.197-.1405-.328-.2717-.468-.4591-.178-.3654-.469-1.0587-.506-1.4709-.103-.3373-.497-.9276-.656-1.4617-.141-.281-.262-.5434-.347-.8432.206-.2717.15-.1593.272-.4685l-.215-.1124-.047.1312s-.085-.2342-.122-.356l.225-.0375.168-.3373s-.028-.3092-.037-.3092c-.009-.6933.084-.5341.525-.9838.196-.2342.402-.4684.581-.7027 0 0 .421-.6839.627-.5902.094.0374.431.0093.544.0093.281 0 .478.0281.749.0656.412.0094.469-.103.853.3092l.065.1218c.197.4216.019.5528.225.609.338.0843 1.059.1218 1.331.3186.506.4309.487.5996.496 1.2367.487.609 1.321 1.8551 2.193 3.0544.196.1031.459.2342.581.3185.103-.1686.215-.3185.356-.4778 0 0 .206-.4029.262-.6746.365-.0843.244.7964.178.9744-.141.2624-.356.4966-.553.7215.066.0843.141.1499.028.2529l.272.3467c.178-.1312 1.387-1.4991 1.574-1.6021-.403-.4966-.74-1.1618-1.04-1.9207-.337-.3092-.59-.5716-.881-.9557-.271-.431-.309-1.0962-.543-1.4804-.159-.2342-.272-.5809-.422-.7776-.168-.1874-.309-.506-.459-.7308-.103-.1593-.178-.4123-.225-.5903.797.4872.244-.356.057-.6465-.122-.178-.216-.3466-.319-.5434-.347-.7683-.309-.8901-.272-1.6396-.018-.4778-.009-1.0025.038-1.4804l-.056-.1499c-.029-.1592.037-.1218.075-.2342.018-.0937-.141-.2717-.122-.3373.037-.075.731-.178.084-.1874-.122-.0375-.094-.1593 0-.178 0 0 .15-.0187.225-.0375l-.262-.1592s.29-.0375.431-.0844c.009-.0094.009 0-.356-.1124.074-.0656.234-.0656.337-.0843.019-.0094-.431-.0094-.3-.1312.131-.1031-.206-.0468.244-.1874.009 0 .009 0-.225-.0562.112-.178.702.0749.018-.1874 0-.0094.207.0188.244.0188-.225-.0844.319-.0375-.178-.1219-.028-.1311.056-.0936 0-.2623.094-.0937.038-.0937.141-.1312l-.038-.1405c.328-.7589.141-1.4803.262-2.258.169-.6465.282-1.2086.591-1.8083.487-.7964.852-.2717 1.246-.9556.187-.3186.215-.3467.525-.4779.112.0656.234.1031.365.1406 0 0-.084-.6278-.103-.937.206.2436.169.1312.159.4404-.009.0187.253-.2998.375-.356.131-.0656.14-.5809.506-.2249l.206-.0562s.103-.2061.159-.2998c.918-.7871 1.883-.8995 2.811-.0563.974.8808 1.452.8901 2.342 1.5179l.544.431-.066-.0188c-.065-.1311-.225-.1218-.356-.1124l.356.1124.103.2343s.225.0281.309.0936c0 0 .178.2249.244.3467.019.1406-.15.0656-.019.4029l.141-.1499c.197.534.234 1.2836.122 1.8364-.01-.4123-.122-.7402-.394-1.0588l.113.2062-.169-.1593.103.2155c-.047-.0656-.103-.1218-.159-.1781.093.1968.15.3748.159.5997-.131-.0469-.347-.2342-.515-.3186.037.2155.037.4123-.085.609.028-.0843.038-.1499.028-.2436-.018.1125-.056.2062-.131.2905l-.196-.1031c.009.0188 0 .0843 0 .0937a.3758.3758 0 0 0-.113-.2717c.113.1968.15.3654.113.5715.074.1874.131.3842.187.5903.328-.4123.234-.1593.009.0375l.028.1499.216-.4591c.309-.2717.656-.4778 1.012-.684.3.0469.009.6653.337.5809l-.028.1125c-.141.281-.084.609-.094.9088-.009.2061.094.2061.085.3748.028.103.309.2435.346.3091-.009.178-.075.4591-.037.6278.009.0281.028-.0375.103.1593.103.3185.197.9463.15 1.2835-.113.2155-.89 1.4054-1.031 1.5179-.047-.1031-.019.7027-.019.7308l.169.4403c-.187.0469-.159.0188-.29.1312l.206.0843.047-.0468.121.1593c-.253-.0188-.187-.0563-.365.1124.29.5059.15.2811-.103.5434-.047.075-.122.2436-.094.3373.038.0843.159.2811.019.2998-.169.0188-.44.2061-.562.3279-.094.1781.075.1781-.412.328l-.066.0187c-.038.2905-.075.5809-.122.8714.075.1967.047.5809-.122.7308-.281 1.5553-.674 3.0075-1.236 4.085.215.0656.515.1499.721.178-.347.1405-.571.1967-.946.2248-.075.1218-.056.1593-.103.2905l-.038-.0843-.056.0749c.262.1406 1.612 1.1712 1.864 1.3773.675-.965 1.434-1.9582 2.109-2.8014.065-.2342.187-.6559.196-.8807 0 0 .066-.3373.113-.4966.403.5153.468.2155.262-.253-.309-.5153-.375-.7027.113-1.1055.196-.2155.571-.4685.824-.6278.112-.1874.094-.2155.319-.2155.037 0 .187-.3279.243-.356 0 0 .347.1218.394.1312.028 0 .075.0187-.131-.2343-.038-.1311.131-.2248.206-.1686 0 0 .131.0937.196.1312l.029-.3654s.356.2248.374.2061c.188.0187.16-.328.178-.4591.431-.0375.45.6277.469.0562.018-.0375.206-.1031.243-.0375.085.1499.085-.1967.16.2717 0 .0094 0 .0094.084-.2155.15.1312-.131.6934.169.0281.009 0-.029.2062-.038.2343.094-.2249 0 .3279.122-.178.131-.0375.065.0655.206 0 .075.0936.066.0374.094.1311l.103-.0468c.272.1312.29.0937.553.1312 0 0 .309.0468.318.0374.965.2155 1.509 1.1431 1.921 1.9582.131.2717.197.4966.234.7964.038.9557-.628.7214-.815 1.4054-.056.1593-.15.4122-.319.4966-.018.1124-.187.6839-.168.7308l-.019-.0188a3.9084 3.9084 0 0 1-.778 1.293c-.384.431-1.283 1.396-2.426 2.4829-.16.3747-.197.7682-.384 1.3679 0 0-.075.2904-.094.431l-.019-.0563c.075-.0749-.019-.2436-.056-.3185l.056.3185-.131.1218c0-.0093.084.1968.084.2718-.168.534-.168.0562-.356.3185l.169.0843c-.113.1499-.216.2343-.365.3373 0 0-.3.2343-.45.2155l-.038-.0843s-.131-.0375-.196-.0656c-.113-.1218-.263-.356-.356-.4966l.028.075-.207-.3279c-.046.1124-.224.1405-.374.1499-.291.2248-.591.4497-.89.6652.065.3186.084 2.1643.131 2.4922 1.171-.7589 2.258-1.3866 3.017-1.7989.103-.1311.281-.2623.421-.356l-.018.1405c.206-.1124.402-.2248.618-.3185.899-1.3117 2.08-1.0213 3.448-.9651 0 .0094.122-.0468.131-.0562.131-.0281.103.0375.197.0843.075.0188.234-.1405.29-.1218l.113.3561c.028.0656.009-.2717.075-.3279.196-.0844.178.1873.196.2998l.207-.2436s.018.2998.056.4403c.009.0094 0 .0094.178-.3373.065.0937.037.2343.056.3467.009.0187.084-.431.197-.2717.018.0281.047.0656.075.0375.15-.178.084.0937.075.2529 0 .0094 0 .0094.121-.1967.169.1686-.281.6558.216.0937.009 0-.084.1874-.094.2248.169-.178-.084.3092.206-.1124.122.0281.15.1124.31.1686.065.1219.103.1219.084.2343l.328.3654c.318.6933.693 1.5459.787 2.2861.056.7683.131 1.4522-.066 2.2205-.309.8526-.806.431-1.171 1.1056-.197.3092-.309.431-.656.4966-.084-.0844-.206-.1593-.309-.2249.009.3186-.009.5715-.066.8901l-.056-.4591c-.084.0562-.328.2155-.431.2342-.15.0375-.234.4029-.478.2436-.374.2717-.833.4872-1.255.6933-.45.328-.946.6653-.965.6184l-.553.1968c-1.302.4497-1.349.9463-2.192 1.7989 0 0-.235.2529-.338.3841l.019-.0656c.113-.0374.113-.2248.113-.3279l-.113.3279-.206.075s-.019.2155-.075.2998c-.478.4404-.234.0094-.59.1874l.131.1405c-.216.1031-.403.1593-.637.2062.009 0-.534.1405-.703.0655l.028-.0936c-.084-.0563-.168-.0937-.196-.1874 0 0-.01-.3842-.01-.5809l-.028.0843v-.4029c-.084.0562-.187.0656-.29.0469l-.628.1874c-.113.4403-.665 1.218-.825 1.6396l.066.0093c1.209-.3935 2.22-.6652 2.698-.7963 1.378-.3467 2.867.1311 3.757 1.143.628.3279.712.8339.975 1.4241.131.3186.253.6371.318.9651.01.0656.075.1218.113.1874.075.178 0 .1499-.01.2998 0 .1499.263.4965.047.5247-.253.0374-.431.103-.009.1686.112.0562.065.178-.019.178h-.225l.234.1968s-.29-.0094-.44.0094c-.019.0093-.009-.0001.337.1686-.084.0468-.234.0187-.346.0187-.019 0 .431.0937.271.1781-.14.0655.188.0936-.271.1124-.01 0-.01 0 .206.103-.141.1218-.675-.2342-.056.1593 0 .0094-.206-.0656-.235-.0749.16.103-.168 0-.018.0843l.168.0749c0 .1312-.075.0563-.056.2249-.112.0562-.065.0656-.159.0656v.1312c0-.0375-.497.6277-.487.6371-.347.4684-.534.8807-1.031 1.2273-.497.328-.965.5809-1.527.7683-.693.1874-.712-.4403-1.199-.2998-.272.0562-.338.0562-.544-.1031 0 0-.056-.2529-.103-.3654 0 0-.253.4779-.403.7027l.141-.4216c.018 0-.309.0281-.403-.0093-.131-.0375-.403.356-.506-.1406l-.206-.0749-.244.1873c-1.115.328-1.564.5341-2.754.253-1.256-.2342-1.471.1874-2.502.5528 0 0-.281.1124-.422.178.029-.0374.029-.0468.066-.0468.084-.0094.169-.178.206-.2436l-.225.2436-.187-.0375s-.113.178-.188.2249c-.58.1593-.168-.1031-.534-.1218l.038.1873c-.225-.0187-.394-.0655-.6-.1499.019.0094-.515-.178-.637-.3466.141-.1031.047-.0843.01-.2811l.356-.5247-.066.0562.225-.3279c-.159 0-.291-.1405-.384-.2904-.066.2717 1.152.8338.431 3.1762.018.4965.093.8526.047 1.4241-.075.5996.009 4.3661-.178 4.947-.31.7401-.684.3654-.891 1.0774-.093.2999-.103.4123-.337.609h-.009l.562 2.2861-.197-.0749-.037-.0937-.178.5247c.018.1124.037.2155-.094.272l-.131.478s.037.224.028.234c.056.946 1.124 2.923.281 3.551-.422.328-1.799 8.685-2.071 10.325l.797-.131-.375.084c.918-.843 3.382-2.033 3.345-2.015 1.002-.496 1.939-.899 3.007-1.246l-.262.356c.965-.309.796-.468 1.19-.637.468-.122 1.415-.29 1.415-.29.206-.01.356.019.553.075 0 .009.224.075.224.075l1.799-.113c-.318-.187-.59-.243-.946-.14l-.169-.028c.609-.038 1.827-.132 1.827-.132 3.523-.271 6.446-.009 10.25-.449.844-.103 1.668-.178 2.511-.197 2.539.056 5.378 1.658 7.552 2.829.347.253 1.04.778 1.04.778.356.131 1.068.403 1.068.403.843-.403 1.921.853 2.642 1.171.665.291 2.015 1.153 2.043 1.171l-.6-.618.075-.394c.628.75 1.799 2.296 1.799 2.296.178-.019.496-.075.618-.225l.637.262c.591.263 1.556 1.031 2.08 1.462 1.518 1.302.319 2.698 1.368 3.701-.018.028.684.853.684.853 1.518 2.183 2.764 4.159 3.617 6.736l.056.178c1.115 3.907.216 6.081-.853 9.585l-.29.44c.084.431-.356 1.087-.562 1.462l-.263-.066c-.056-.037-.131-.093-.074.028.168.281.262.235-.104.291.066.047 2.521-1.125 2.596-1.078.075-.037.047.01.037.019-.609.084-.609.066-.599.103.196.225.365.187.243.553-.075.084-.384-.15-.356-.019.15.384.375.515.01.628-.141.037-.141.646-.441.571-.047-.028-.309-.253-.3-.131.094.281.244.319.178.637-.14-.028-.627-.121-.646.085.075.44.187.403.3.721l-.647.356c.038.113.094.253.169.337.075.15-.188.628-.403.684-.244-.046-.337-.674-.384-.093.094.834.056.909.056.918-.084.178-.918 1.283-.918 1.283-.056.413-.047.394-.394.797l-.412.393c-1.04 1.265-2.427 2.268-3.794 3.167-1.996 2.193-4.301 3.87-6.765 4.994l-.019.047.141.065c-.178.263-.975.647-.947.628-.271.141-.515.244-.824.3l.019-.262c-.338.056-.16.215-.281.29-.141 0-.403-.047-.403-.047-.038-.018-.085-.065-.131-.112-6.044 1.78-12.34.14-16.903-4.123-.028.038-.056.085-.009-.009l-.103-.103a.156.156 0 0 1-.094.028l.038-.066-.085-.074c-.234.14.01-.075-.178-.019-.112.028-.037-.131-.009-.169l-.047-.047c-.047.038-.103.066-.15.085l.085-.15-.104-.103-.206.178.103-.291-.037-.037-.169.14c-.103.085-.215.019-.131-.131l.15-.169-.047-.056-.328.169c-.056-.028-.037-.328-.112-.375-.206-.084-.178.113-.3-.262-.403-.347-.862-.862-1.181-1.303-.712-.787-.861-1.236-.693-2.323-.103-.262-.206-.525-.29-.787l-.122.131c-.038-.187-.066-.412-.028-.6-1.171-3.991-.01-8.488 2.567-11.608 4.038-4.891 9.538-4.319 12.883-1.799 2.37 1.789 3.588 5.087 1.78 7.336-1.968 2.436-6.081 1.302-6.54-1.78-.187.262-.206.337-.037-.047-.956-.3-2.455-.112-3.42.066l-.75.234c-.196.656-.281 1.265-.299 2.024.028 2.164.815 3.644 1.836 5.537.628.328 1.19.778 1.761 1.18.825.591 1.246.9 2.305 1.003 1.443.075 3.064-.113 4.516-.253 1.265-.15 3.607-.937 4.9-1.274.085-.122.169-.235.244-.347l.478-.506c-.3.131-.469.178-.778.094.375-.375.59-.825.59-1.359l.356.01c.253 0 .712-.525.703-.525l.187-.028c-.14-.45.553-.272.619-.75.094-.178.262-.534.262-.534.056-.047.619-.581.619-.581.084.028-.244-1.255-.244-1.255.094-.131.178-.356.3-.534.29-.309 1.124-.572 1.218-.787 0-.01-.244-.309-.525-.609-.496-.581-.281-.422-.272-.74-.075-.244-.281-.675-.496-.816-.169-.121.112-.309.206-.412.084-.112.094-.403.066-.543-.047-.141-.244-.356-.244-.441.047-.093.309-.337.403-.421l-.122-.262-.309-.085.234-.178.047.094.318-.019c-.121-.225-.103-.178-.337-.337l.038-.047c-.01-.009.403-.731.403-.731.009-.084.402-1.237.234-1.237-.169 0-.328-.402-.553-.29-.028.094-.122.225-.216.15-.084-.253-.056-.328-.215-.656-.122-.337-.262-.637-.412-.956-.066-.29-.075-.299-.075-.309-.188-.281-.731-.628-1.031-.824-.075-.122-.084-.609-.206-.759-.234-.15-1.827-3.345-2.061-3.486l-.6-.346c-.15-.019 1.078-.45.937-.394.019-.065-1.874.656-1.949.619-.018-.01-.009-.216-.009-.253.009-.394.122-.712.356-.975-.628-.581-1.284 1.106-1.986.619-.16-.038-.328-.085-.516-.16-1.086-.534-2.304-2.351-3.494-2.586-.769-.121-.825.216-1.799.6-1.762.637-2.408.609-4.076.693l-.787.075c-.656.103-2.342.459-2.829.881-.3.225-1.846.375-2.324.469-.853.206-1.958.712-2.727 1.143-.665.412-1.377 1.517-1.986 1.92-.234.131-2.22 1.481-2.464 1.593-.618.309.675 1.134.075 1.471-.365.337-1.387.853-1.387.853l-.009.412c-.394.225-1.162.693-1.162.693l.375-.393-.515.018c-.656.703-.178 5.332-.684 6.147-.853.665-.797 3.86-1.406 4.385-1.939 3.738 2.699 2.276 2.577 6.417.243 1.481-2.277-2.473-1.911-.796.065.375.112.787.168 1.171.075.469.159.928.253 1.387.281-.009.693.028.806.309.112-.15-.59 3.954-.59 3.945l-.038.121c.15-.234.3-.581.469-.787.112-.018.346 0 .346 0l.019-.159c.356.122 1.059.909 1.181 1.312l-.253.047c.103.365.374-.188.271.477l-.037.047c-.272.094-.506.253-.703.45l.262-.262c-.712 0-1.311.271-1.705.88l-.112.075c-.375.113-.703.338-.946.637-.291.235 3.616.844 3.504 1.209-.31.262-.534.618-.628 1.021.581 1.396 1.227 4.507 1.18 4.31.31 1.321.534 2.596.675 3.945l-.459-.431c.131 1.48.422 1.143.534 1.705.019.628-.066 1.892-.066 1.892-.075.357-.506.956-.506.956.029.394.075 1.171.075 1.171-.187.384-.581 1.153-.581 1.153.563-.459.525-.759.694-1.368l.871 2.127c-.543 2.417 1.574.59.337 2.698-.018.365.094 2.174.113 2.539.122 1.321.834.956 1.049 2.305.047.3-.553.806-.534.993.188 1.808-.384.572-.234 1.94-.169.552-1.162 1.798-.281 1.33.225-.019.365.009.571.103.066-.103.235-.29.235-.29-.066-.244-.113-.553.121-.722.506-.243.581 1.584 1.059 1.134 1.05-.993 2.061-3.158 3.167-4.151-.572.384-2.014 2.633-2.014 2.633l-.075-.646c.196-.094 1.789-2.287 1.827-2.287.571 0 1.133-.14 1.677-.328-.056-.262-.169-.665-.375-.852.037-.084.3-.722.3-.722.29-.646 1.536-2.145 2.042-2.782.403-.487.769-.956 1.115-1.481.928-1.583.806-2.642 1.687-4.225.496-.703 1.133-1.546 1.817-2.061.694-.844 5.163-1.855 5.95-2.521 1.312-.403-1.209 4.357 1.152 2.333l-.29 4.404c-.216 3.064-1.874 5.724-.094 8.32.206.318.019 4.553.234 4.862l.291.778c.599.253.993 1.19 1.293 1.733l-.309.281c-.075.029-.235.113-.038.113.487-.038.515-.188.253.29l.431-.215c.009-.113.047-.056.056-.038-.449.778-.478.769-.421.769.384-.094.543-.338.871-.01-.365.422-.384.403-.356.413.543.009.965-.188.721.29-.056.103.103.225.178.272.178.131.197.393.047.506-.459.253-.468.253-.44.262.356.028.6-.094.89.131.047 0-.853.609-.59.712.524.15.665.038 1.087.113-.113.281-.356.833-.356.833.159.038.374.075.543.066l.047.019c.974-2.446 1.724-4.226 3.176-7.055.478-.928.909-1.846 1.293-2.82.6-1.256.009-1.078-.759-.497.253-.712.656-1.565 1.078-2.174.749-1.03 1.461-2.211 2.304-3.166.3-.338 2.783-3.833 2.83-3.879.637-.628 1.18-1.659 1.705-2.436 1.106-1.64 2.577-3.842 3.963-5.219 1.771-1.668 3.458-3.092 5.875-3.776l4.01-1.958c.787-.459 1.789-1.021 2.623-1.349.881-.253 2.174-.356 3.111-.441 1.733-.093 5.209-.309 5.209-.309-2.67.478-5.481.956-8.02 1.93l-1.143.628c.319.056.525.319 1.096.834 1.659 1.508.984 2.886.328 3.72.066-.038.553-.338.431-.085-.225.281-.618.319-.693.403.178-.037.356-.084.515-.169-.421.403-.834.984-1.162 1.443-.515.722-.993 1.462-1.517 2.183-.46.656-.844 1.171-1.368 1.631-.094.262-.188.524-.272.805-.187 1.003-.244 1.799-.206 2.83-.056.834-.319-2.221.703 5.022.281 1.199.599 2.361.955 3.532.15.74.337 1.387.572 2.099.524 1.499 1.058 2.351 1.696 3.719.908 2.165 1.658 5.079 2.201 7.355.319 1.434.6 2.848.769 4.31l.056.422c.506-.703 1.049-1.481 1.049-1.481.525-.712 1.134-1.508 1.555-2.295.066-.103.122-.178.197-.272.459-.553.918-1.143 1.424-1.649 1.19-1.199.984-.618 2.146-1.855l.74-.843c1.115-1.883.75 1.162 1.48-.937.675-1.574 4.62 8.798 5.266 7.205.534-1.265 1.265-2.605 1.911-3.823-.046-.037 2.427-4.834 2.436-4.9.16-.543.197-.881.169-1.209 1.087.019 1.968-.815 1.968-1.902v-.271l-.385.384c.319-.319.534-.759.553-1.246.103-.225.159-.337.319-.534.281-.216.496-.506.628-.843.131-.207.224-.441.271-.694.122-.234.188-.487.206-.759.075-.168.132-.346.16-.524.103-.103.187-.197.299-.31.45-.196.947-.693 1.153-1.143l.075-.084c.346-.15.703-.468.937-.768.253-.197.449-.45.581-.74l.056-.066c-.422 2.005.674 2.904.112 4.628-.131.675.609 2.287.722 2.905.131.487-1.424 3.944-1.424 3.944-.291.769-.741 2.521-.675 3.336.028.131.112.253.206.075.178.075.347.337.412.506.291 1.34.506 2.127.984 3.429.45.656 1.359 1.958 1.359 1.958l.656.15.796 2.136-.515-.768-.113.843c.806 1.181 1.068 1.509 1.968 2.586.065.178.581 1.874.581 1.883.215 1.125.609 2.23.918 3.345.3-.506 11.974-8.845 12.283-9.35.618 3.326.909 7.223 3.635 9.425.647.796 1.518 2.558 2.352 3.214l6.015 7.832c-.487.713-7.364-2.614-7.786-2.782-.037.29-6.483-7.514-6.399-7.224-.047.038-.309.375-.309.375-.169.215-1.078.693-1.387.89-.646.384-.881.721-.984 1.115.01.356-3.794.375-3.804.628l-1.639 2.155c-.019.206-3.298 2.998-3.345 3.26-.159.487-.44.89-.628 1.359-.468 1.18-1.461 1.799-2.483 1.873l-.618-1.246c-.131-.271-.319-.515-.562-.693-.131-.169-.366-.328-.478-.506-.206-.328-.309-.684-.609-.965-.094-.337-.394-.909-.628-1.162-.187-.421-.524-.759-.937-.955-.309-1.003-.562-2.015-.89-3.017-.159-.45-2.239-2.642-2.483-3.055-.234-.374-.403-.665-.712-.955-.262-.047-.553-.066-.506.046.281.403.459.431.731.741-.253.065-.759.178-.759.178.113.131.384.356.384.356.15.14.028.524-.281.506-.637-.366-.581-.263-.562-.216.084.225.431.815.431.834-.075.206-.665.459-.787.703-.122.328.066.328-.253.646l-.347.253c-.955 1.34-2.173 2.464-3.56 3.364-.215.15-.459.365-.693.524-1.452 1.022-1.068 2.858-2.802 3.027-.796.103-3.616.665-1.255 1.143-.497.262-1.115.618-1.63.806-.684.224-1.893.871-2.352 1.133-.469-1.143.796-13.716-.206-12.967l-.665.497-.919.609c-.29.14-.506.271-.768.449-.712 0-1.152.338-1.696.722-.393.047-.768.225-1.077.515h-1.687c-.318 0-.552.075-.796.178h-.262c-.797 0-1.481.497-1.771 1.19-.712-.094-1.565-.281-2.136-.403-.656-.168-1.35-.393-2.005-.59-.45-.253-.741-.506-1.125-.843-.562-.534-.815 1.536-1.368 1.265-.346 1.424-1.115-.01-1.714 1.405.609-1.977.777-2.839.862-4.113a9.378 9.378 0 0 0-.778-.244c.291.038.553.075.787.113.15-2.474.206-4.975.066-7.44-.103-.918-1.574-10.053-1.574-10.062-.216-1.565-.281-2.745-.178-4.319l.047-1.509-1.631 2.333c-1.555 2.239-3.064 4.966-4.469 7.346l-.843 1.021c-.169.984-.843 1.752-1.462 2.501-1.058 1.35-2.108 2.671-3.007 4.132-1.134 1.593-2.249 3.017-3.57 4.469-1.63 1.528-3.364 2.839-5.35 3.87-.009-.009-.984.468-.984.468-1.677.844-2.267 1.275-4.244 1.678-.403.018-.778-.057-1.105-.225l.009-.15c0-.113.019-.113.056-.216.141-.215.225-.449.272-.693.065-.122.112-.253.15-.384.262-.328.412-.74.412-1.19v-1.949c0-.309-.075-.6-.206-.862-.038-.187-.094-.365-.178-.534-.066-.393-.263-.749-.534-1.021l.384.384v-1.509c0-.29-.066-.562-.178-.805 0-.562-.159-1.031-.562-1.434l.037.038c-.318-.637-.693-.825-1.218-1.162-.3-.197-.712-.328-1.087-.319-.421-2.679-.496-5.518-.552-8.226-.141.169-.3.347-.469.562-.815 1.143-3.766 4.9-4.15 5.753-.216.74-3.289 2.445-3.364 2.445-.244 0-.45.225-.675.338-.065-.066-2.913 1.724-2.942 1.742-.843.712-1.761 1.621-2.642 2.23-1.274.722 4.301-7.158 2.942-6.549-.693.525-1.386 1.021-2.099 1.518l-.178.675c-.749.29-2.276.815-2.276.815l.824-.516-.871-.121c-1.171.73-1.705 1.105-2.82 1.902-2.249.646-4.085.974-6.437.908-1.555.019.75 1.303 0 0 .44-.046-2.801-2.295-2.502-2.586l.216-.215c.487-.131.721-.375 1.059-.712.702-.197.965-.6 1.33-1.162.216-.094.403-.225.572-.393l-1.743 3.101c.272-.272.403-.59.571-.928.787-.787.694-1.246.694-2.192 0-1.05-.853-1.902-1.902-1.902h-.178l.075-.253c.356-.356.524-.796.749-1.237.131-.272.188-.534.197-.806.056-.075.112-.159.159-.253l1.415-2.829c.15-.291-3.588 3.214-3.588 2.886l.253-.769c.374-1.115-.347-2.295-1.499-2.483.046-.683.065-1.349.046-2.014.759-.3 1.265-1.077 1.19-1.939l1.218-8.564c-.093-1.096-1.105-1.883-2.183-1.714-.178-.862-.365-1.753-.59-2.699-.703-2.773-1.677-4.516-2.389-7.289-.45-2.296.955-.965.946-1.012-.59-2.333-1.302-4.563-1.302-6.989 0-1.931-1.406.168-1.181-1.771.366-2.127 1.331-4.029 1.893-6.025.187-.787-2.314 2.193-2.024 1.434.272-.712.469-1.349.544-2.108.103-2.09.318-3.711.861-5.725.235-.853-.871-3.317-.73-4.188.056-.225.15-.684.15-.684.328.515-1.04-1.649-1.031-1.705.037-.244.225-1.78.553-1.818.225.45.412.862.562 1.256.14-4.301 1.171-7.758-.768-6.634.328-.824.646-1.527 1.021-2.258l2.024-4.816-2.774 2.942c-.459.469-5.762 3.626-5.584 3.533-.15.074 2.352-1.396 2.136-1.209l-1.686 1.274c-.703.45-.909 2.624-1.593 3.055-.159.159-.628.552-.665.702-.122-.028-.244-.047-.365-.065-.712.431-.394 2.061-1.162 2.464l-.469.29c-.075.516-.168 1.012-.328 1.556.741-.122-.515.768-.515.768l-.712.122c-.29.88-1.218.852-1.977 1.461.347.056 1.049.131 1.049.131l-.29.066c.515.056-1.996 1.705-1.996 1.705l.113.056c-.019.253-.122.75-.122.75l.337-.084c-.3.74-1.255.393-1.208.328-.506.599-.319.187-.928.693l-.094-.45c-.665.544-.243.59-.431.853-.271.187-.59 2.042-.59 2.042-.243.066-.74-.075-.74-.075l-.431.441.159.009c-.449.15-.834.281-1.265.487-.74.544.272-1.518-.271-1.33-.309.496-.984.796-1.303 1.283-.365.609-.946.741-1.143.89-.103 1.078-.955.825-.965 1.209-.047-.815-.365-1.49-.965-2.042-.206.065-.609.524-.731.702.169.347.178.609.01.956-2.296-.515-1.846 2.53-1.968 2.605-.009-2.455-3.729 2.988-4.085 1.236-.496-2.445.487-.59.497-4.497.056-2.67.065-.3-.619-2.136.272-.918.141.328.263-1.78.131-1.762-.497-2.699-.441-4.366.01-1.078-1.377-.431-1.592-1.537l.131-.459c-.394-.3-.253-.909-.225-1.33.028 0 .618-.066.496-.113-.356-.15-.112-.234-.074-.253-.15-.009-.328-.019-.478-.019-.075.057-.066.01-.066 0 1.612-.637.216-.037-.009-.609.524-.131.534-.121.506-.14-.431-.178-.947-.197-.497-.431.103-.047.019-.178-.028-.234-.112-.169.038-.319.178-.338.525-.037.534-.018.515-.037-.271-.113-.581-.113-.749-.347.103-.019.965-.168.815-.318-.422-.235-.59-.188-.974-.338l.599-.477c-.159-.066-1.227-1.799-1.227-1.799-.197-.057-.263-.45.009-.572.731 0 .637-.056.6-.094-.778-.459-.797-.515-.797-.515-.037-.206.31-.787.263-1.087-.094-.375-.244-.234-.197-.749l.103-.478c-.122-1.593-.899-2.53-1.031-4.123-.028-.299-.131-.702-.178-1.021-.121-.852-.918-1.874-.824-2.726.009-.225.037-.422.094-.609-.066-.094-.141-.178-.225-.272a4.2606 4.2606 0 0 0-.413-.684c-.149-.525-.421-1.031-.805-1.471-.066-.806-.394-1.583-.965-2.22-.188-.385-.384-.806-.619-1.153-.103-.675-.365-1.106-.646-1.696-.234-1.218-.871-1.789-1.668-2.586-.731-.73 0 1.181-.956 1.181.066 2.174.132 4.094.132 4.094-.197 2.155-.385 6.484-.385 6.484l.422-2.08c-.047-.637-.131-1.93-.131-1.93.028-.675.103-2.024.103-2.024.066 2.23-1.555 2.979-1.958 5.181.337-.459-.75 2.015-1.115 2.877.506-.713.028 1.349.028 1.349l.131-.075c.113.496.244 1.518.244 1.518l.262-.675c.103 2.483-2.473 4.535-2.473 4.479-.394 2.473-.01 3.194-.816 5.565-.037-.319-.112-.946-.112-.946-.506 1.508-.45 2.258-.731 3.166l.59 1.94c-.43.74 1.181.131.609.749-.318.741-.974 2.221-.974 2.221l.272-.3c-.684 1.096-2.165 3.214-2.165 3.214-2.239 2.989-.112-.244-2.941 3.298-.207.168-.45.468-.703.852.45.722-1.659 3.523-1.274 4.357.646 1.499-.844 2.445-.797 4.085.01.628-4.066 4.985-4.282 5.575-.234.571.469.824.047 1.283-.431.441 1.012 1.012.45 1.265-.571.234-1.049.338-1.658.347-.675-.009.487-2.67-.16-2.867-2.061-.703-3.298-2.342-3.513-4.497-.075-1.743-1.387-.431-.722-2.015.094-.215-2.604-1.911-2.501-2.136-1.396-1.724-.075-1.893-1.565-3.542-.843-.927-2.633-1.677-3.448-2.585-.927-1.031-.955-2.296-1.845-3.392-1.097-1.34-2.268-2.867-2.502-4.638l-.112-.3c.018-.009-.553-1.63-.553-1.621-.947-.534-1.274-2.379-1.415-3.391-.112.337-.225.684-.281 1.04-.234 1.471-1.302 4.319-1.302 4.319.29-.459.852-1.396.852-1.396l.647-.066c-1.04 1.546-3.383 4.441-3.383 4.441.047.244.188.937.45 1.059-.047.169-.356 1.368-.356 1.368-.44 1.555-1.611 3.888-2.305 5.453-.112.244-1.405 3.457-1.405 3.532-.113 1.406-.056 6.812-.122 9.229.365.534.665 1.096.937 1.714.712 1.781.824 3.261.309 5.125l-.056-.281-1.443-.028v.028l-.197-.028c-5.19-.084-3.054-.065-6.193-1.105-.056-.731-.103-1.977-.122-2.68-1.517-1.283-3.344-2.314-5.078-3.298-1.977-1.096-4.338-2.295-6.596-3.598l.572 1.621-.347.272c-.309.019-.037.178-.037.178.552.3.581.056.299.721.15-.018.347-.028.478-.065.028-.169.047-.085.066-.019.056.581-.778.918-.45 1.124.553.16.618-.196.993.722.038.281-.581.3-.384.524.675.525 1.068.45.834 1.218-.066.15.141.591.206.713.103.215.291.946.075 1.096-.14.018-.637-.019-.478.196.487.441.647.253.984.975-.272.234-.806.731-.6 1.115.591.721.703.515 1.181.965l-.319 1.602c.16.141.384.337.581.412.272.197.469 1.462.281 1.827-.805-.075-.609.235-.552.338.974 1.414 1.011 1.602 1.011 1.611.075.412.029.843.047 1.284.01.168.019 2.07.028 2.108.207.974.319 1.115.328 2.258 0 .112-.065 1.377-.065 1.377.122 2.811.056 5.35-.497 8.133.056-.085.094.421.103.862l-.646-.225.018.318c-.402-.093-.758-.187-1.068-.271-.14-.15-.299-.282-.477-.385l-.104-.159a1.8892 1.8892 0 0 0-.412-1.143c-.131-.506-.459-.927-.899-1.171l-.103-.159c-.019-.609-.309-1.143-.769-1.481-.206-.824-.955-1.443-1.845-1.443h.225c-.291-.196-.628-.449-.947-.58-2.633-2.736-4.31-4.001-6.53-7.393.225-.215-4.066-4.132-4.385-4.413-.225 1.199-.497 2.689-.497 2.689-.505 2.474-.749 4.994-1.246 7.458-.047.234-.337 2.183-.337 2.183.066.01-1.096 6.287-1.124 6.39-.74 2.427-.965 4.45-2.277 6.737-.037-.01-1.312 3.588-1.321 3.616-.693 1.462-1.434 3.326-2.961 4.141-.159.075-.309.047-.431-.075-.637-.927-1.293-1.986-1.949-3.091l-.131.206c-.712.534-1.293.908-1.733 1.677l-.74-.516v-.393c0-1.302-.628-2.286-1.584-3.139-.112-.131-.309-.281-.374-.421-.169-.347-.394-.656-.647-.928l.066.066c-.31-.628-.591-1.218-1.059-1.687l-.75-.749c-.29-.394-.618-.778-.852-1.209-1.096-.131-2.361-.328-3.664-.562-.018-.881-.627-1.612-1.442-1.818-.347-.468-.9-.768-1.528-.768l-.74-.113c-.637-.646-1.18-.59-1.995-.59l-1.724-.862c-.263-.131-.534-.197-.816-.197h.394l-.15-.149c-.684-.684-1.527-.563-2.408-.563-1.049 0-1.902.853-1.902 1.902 0 .488-.009.844.253 1.312l-.056.178.009-.009c-.346.346-.562.927-.562 1.349v3.185c0 .45.159.862.412 1.19.263 1.031 1.321 1.631 2.333 1.368-.037.89-.046 1.762-.065 2.652l-.394-.553c-.065 1.64.263 1.274.319 1.911-.047.6-.244 1.79-.244 1.79-.103.318-.581.796-.581.796 0 .319-.018.965-.018.965l.131-.159-.066.159c-.45 2.015-1.199 4.301-3.354 4.985-.103-.647-.525-1.19-1.106-1.443l-.112-.094c-.009-.346-.122-.674-.3-.955-.318-.844-.993-1.059-1.714-1.434-.3-.3-.497-.525-.891-.703-.206-.253-.412-.393-.693-.534-.243-.243-.393-.374-.712-.534-.319-.318-.478-.412-.881-.618-.243-.159-.459-.319-.712-.44-.468-.469-.674-.759-1.34-.984-.196-.197-.356-.309-.609-.431-.309-.309-.477-.506-.88-.712-.431-.431-.843-.694-1.481-.694h.609l-.328-.328c-.646-.646-1.639-.73-2.379-.253l-.759-.543c-3.945-2.848-6.428-5.069-10.016-8.348l-.909-1.181c-.384-.215-1.133-.646-1.133-.646-1.19.506-2.193-1.434-2.999-1.996-.852-.562-2.567-2.201-2.632-2.258l.721 1.125-.244.581c-.749-1.406-2.229-4.226-2.229-4.226-.15-.019-.713.262-.825.365l-.628-.328c-.674-.449-2.033-2.173-2.558-2.895l-.393-.543c-.487 1.574-1.003 3.129-1.452 4.713a2.0577 2.0577 0 0 0-.347-.028c-.806 0-1.134.168-1.705.74-.506.506-.3-.544-.3.281 0 .731-.637 2.689-.084 3.27v.018c-.16.169.328-1.058.234-.862-.141.122-.544.516-.647.656-.449.347-.749.9-.749 1.509v2.473c0 .272.103.722.29 1.012.075.253.178.572.3.797-1.049.037-2.014 1.021-2.014 2.08v2.511c-.056.168-.113.337-.141.505-.084.169-.206.394-.262.553-.188.3-.3.647-.3 1.021v2.127c0 .188.066.572.187.825l-.009-.019v4.863c0 .206.075.609.206.862-.29-.057-.309.056-.421-.291-.038-.122-.281-.131-.375-.122-.225 0-.497-.187-.459-.384.159-.496.178-.496.15-.487-.356.206-.403.45-.844.459.01-.103.103-1.03-.121-.937-.516.263-.506.431-.881.675-.131-.281-.394-.853-.394-.853-.15.094-.318.206-.44.347-.187.14-.768-.112-.806-.44.094-.366.89-.647.169-.591-1.059.291-1.153.253-1.162.244-.234-.103-1.358-1.199-1.424-1.218-.628-.169-.562-.084-1.209-.59l-.627-.581c-2.408-1.584-4.863-3.532-7.009-5.481-3.466-2.97-9.238-3.148-10.934-7.599l-.084-.243c-.206-.525-2.792-6.09-2.071-2.286-.609-.825-1.321-1.753-1.827-2.633-.702-1.246-2.314-.066-2.829-1.387-.693-1.677-1.349-2.726-1.724-4.619l-.375-1.79c.01 0-.047-.187-.047-.187-.028-.084-.15-.084-.178 0 .113.075-1.405 6.324-1.489 6.456-1.93 2.82-1.968 3.832-4.17 6.492l-2.914 3.729c-.515.619-2.3325-.908-3.0539-.534-1.649.769 1.3773.928-.0937 1.949-.1968.487-2.0613-.759-2.4361-.206-.8432.693 3.0919-.881 3.0919-.881l1.2648-.412c.216-.272-2.0424 1.658-2.0424 1.658l-1.3492.544c-.7777 1.002-1.4054-.337-2.5765.206.4028.103 1.2179.281 1.2179.281l-.3841.028c.5809.131-.3186 1.584-.3186 1.584l.1031.084c-.1312.272-3.4573 1.087-3.4573 1.087l.3373.178c-.8526.909-6.8957 3.41-6.6802 3.279-1.2368.74-2.408 1.368-3.7384 1.921l.2717-.562c-1.3585.562-.9838.74-1.4803 1.011-.5154.169-.9932.291-1.5366.366-.3279 0-.8245-.281-.8245-.281l-1.827.056c.253.187.5996.394.9276.309.1499-.056.1311-.037.2904.019-.6371.019-1.9114.131-1.9114.131-3.401.394 12.227-.581 9.3974 1.668.0094.019 1.9114-2.389 1.9114-2.389-.9744.552-2.3236 1.077-3.3823 1.48-1.6303.6-1.9395 2.249-3.6915 2.211-.5997.056-1.1337-.318-1.2462-.918-.0936-1.34-.3654-2.342-.8713-3.598-.0843-.421-.2998-1.246-.2998-1.246-.253-.262-.7683-.778-.7683-.778-1.218.235-1.3773-1.368-2.005-1.939-.5153-.431-1.649-1.827-1.5928-1.771l.2904.862-.356.487c-.2249-1.049-.6277-3.157-.6277-3.157-.253 0-.7027.028-.9182.187-.075-.056-.6278-.44-.6278-.44-.5808-.45-3.7477-3.251-4.1131-3.935l-2.6796-2.371c-1.3117 1.752-.8339 3.298-2.6796 4.601l-2.792 2.586c-2.4361 1.377-.6091 4.038-3.0638 5.181l4.1038-3.008c-1.1056.516-4.3474 3.373-5.4061 4.01l-.6746.141c-.2624.534-1.1431.74-1.6678.918l-.2154-.356c-.1406-.506-.0094.459-.3842.131.0375.141.0937.319.1405.459.0937.047.0375.057.0281.066-.6465-.59-.6464-.609-.6464-.562.0375.365.2436.59-.0937.843-.3373-.44-.3186-.45-.3279-.422-.0656.516.0843.965-.328.647-.0843-.075-.2061.056-.2529.112a.2523.2523 0 0 1-.4217-.047c-.2061-.487-.1967-.496-.1967-.468-.0281.262.0749.656-.1593.843-.103-.14-.5528-.824-.7401-.618-.253.553-.1125.637-.2343 1.096-.2811-.112-.8245-.375-.8245-.375-.0281.188-.0656.347-.0562.544-.0187.206-.4685.412-.6746.168-.1687-.712-.2061-.609-.2342-.562l-.0188.028c-2.5578-1.377-3.2043-1.939-3.4573-2.042.0375-.178.0563-.853.0469-.909-.1405-.553 1.1243 7.392 1.1618 6.643l.0937-.731c-.1781-2.23-.5153-4.132-1.1056-6.287-.8339-2.511-.4685-.243-1.0025-3.082l-.4591-1.246c-.0656-.15.4123-9.473.8713-5.875-.4122-.581-1.0212-1.368-1.3023-1.996-.1218-.309-1.7427-4.281-1.8363-4.553-.7121.487-1.3773 4.207-1.7989 4.628.0093.028-.1219 1.837-.1219 1.837-1.0399.937-4.8158 6.511-5.7715 7.748.0094.009-.8713 1.031-.8713 1.031-1.9488 1.92-2.9982 2.529-5.2374 4.225l-2.5953 2.08-3.3261-3.045c-.684.394.712-8.104-.0281-7.786l-1.0775.394c-.4872.131-1.4522.337-1.9488.187-.8058.206-4.3474 9.679-5.1719 9.791.8152.572.8152.843 1.396 1.668.5997.412 1.0307.581 1.7334.703.2904.056 1.3211.196 1.2555.215-1.3024-.075-1.9394-.009-3.0825-.778-1.0868-.955-10.428-.674-11.7023-1.068-.0468 0 7.889-.14 7.8422-.159-9.1258-4.047-.9183-5.181 2.0424-7.673 3.7384-2.97 6.9708-7.927 7.0832-11.749Zm309.5615-68.556c.084-.149.346-.084.487-.065l-.487.065ZM281.93 67.9204c-.141-.3467-.291-.4591-.357-.5622l.029-.3279c.187-.356.534-.7214.74-1.0494l-.066-.0187-.234.4029c-.047.0562-.572.7214-.572.7214-.018.2717.413.684.46.8339Zm9.875-13.1545c.131-.1218.262-.2436.403-.3373l-.403.3373Zm-.019.0187a2.6303 2.6303 0 0 1-.412.1125l.412-.1125Zm4.675-14.5786c-.365.3561-.487.5809-.599 1.0681l.093.0562-.103-.0281c-.047.2062-.075.4217-.093.5809l.056.2249c.187.0937.356.1686.534.2249-.431.1686-.881.3466-1.349.534.018-.2717.037-.9463.056-1.6584.122-.0281.243-.0468.384-.0562-.159-.0187-.234.0094-.384.0375l.028-1.396.253.0562c.056.1405.15.2998.328.2061-.009-.0187.197-.103.29.1499.047-.0562.075-.103.113-.1592.159.0468.29.0937.393.1592Zm-2.483-38.0768c.16-.1405.366-.0374.525.0375l-.525-.0375Zm-18.204 29.0261c-.066-.1405.159-.3186.244-.4029l-.244.4029Zm-5.978 16.2463c-.131-.1124-.037-.3654.019-.4965l-.019.4965Zm8.011 38.5172c-.019-.1405.141-.2342.244-.2905l-.244.2905Zm-64.142 69.7732c.056.122-.216.281-.291.337l.291-.337Zm-19.226 63.374c0 .646-.29 1.199-.787 1.611.113-.187.787-1.48.787-1.611Zm105.142-67.853c-.309.675-.693 1.181-1.386 1.518 0 0 .946-.993 1.386-1.518Zm29.926 4.507c-.225.234-.6.103-.862 0h.862Zm-32.39-136.192c.216-.3185.422-.6277.403-.6371.019-.0656.019-.1405.028-.2249l-.431.862Zm.928-14.7753c-.057-.1312-.422-.3467-.553-.403-.469-.2342-.59.0656-.59.0656-.085-.1592-.075-.1686-.3-.253-.487-.1498-.834-.028-1.303-.0093.478.0656.947.1874 1.415.3654a4.408 4.408 0 0 1 1.331.2343Zm.431 46.5185 1.208-.0562c0-.1593.057-.3092.178-.4029-.44.1874-.937.3279-1.386.4591Zm1.527-.5153c.178-.0375.431.0843.506.0281.084-.075.506-.2062.543-.2155-.15-.0844-.234-.0844-.3-.2249a6.3987 6.3987 0 0 1-.749.4123Zm.871-.4966c.328.2342.74.5153.74.5153-.009-.2061-.028-.3373-.084-.5341.019-.0281.113-.2061.113-.2061.093-.1499.44-.3092.608-.3841.834-.3842.207-.9182.778-1.5647.337-.2998.74-.5996.984-.9744.206-.3186.45-.5715.384-.9931-.084-.2905-.084-.328-.337-.5341l.009-.1593c-.15.0281-.065 0-.225-.0374l-.122-.253c.019-.0094.31-.2436.244-.2061-.215.0843-.103-.0282-.084-.0469-.028.0187-.281.2061-.281.1968.684-.7496.103-.0937-.113-.1499.244-.2343.244-.2343.225-.2343-.581.253-.178.0188-.384.0469-.216.0187.3-.3935.262-.3748-.121.0656-.299.2155-.421.2342l.318-.4216c-.131.0656-.337.2249-.44.2998.665 2.1456-.337 4.4973-2.174 5.7809Zm-8.329-8.1794c-.309-.1686-.319-.1968-.684-.0937.159-.2436.534-.1405.684.0937Zm-.665-3.1012c.018.1592.047.3185.093.4778l-.121.0187.009-.4872.019-.0093Zm-.141-7.2706c-.487-.2717-.45.2904-.075.0749.01.0094.038-.0281.075-.0749Zm42.424 58.1645c-.609-.3373-1.302-.7027-1.302-.7027-.169.1874-.262.2811-.253.5341.112.2342-.581.4403-.703.4872.759-.1405 1.518-.2436 2.258-.3186Zm4.085-.0749-1.002-.2249c-.047.075-.094.1312-.15.178.384.0094.768.0188 1.152.0469Zm-2.061-.0469c-.206-.0656-.412-.1311-.571-.1218-.385.0375-1.443-.0374-1.509-.0468.056.0281.534.2249.543.2436.525-.0375 1.031-.0656 1.537-.075ZM273.909 127.34c.207-.459.31-.937.122-1.733.01 0-.14-.515-.14-.515-.206-.956.093-1.63.299-2.577l.216-.318-.15-.206c-.74.009-.225-.366-.328-.506-.065-.066-.14-.375-.168-.478l-.15.253c-.066.018-.366.122-.347.122l.74-.891c-.178.01-.534.085-.534.085-.337-.15-.309-.15-.487-.497-.141-.365-.506-.14-.487.197-.244-.037-.45-.159-.637-.309-.132.037-.272-.028-.375-.122-.403-.431-.806-1.124-1.143-1.63-.45-.74-.75-1.93-1.434-2.446 1.827 3.589 3.495 7.505 5.003 11.571Zm-83.827 74.795-.075.253c-.262-.374-.552-.721-.843-1.011v.009c.244.309.562.553.918.749ZM43.0595 219.59c.8619.244 2.3048 1.752 2.2955 1.752-.2811.047-.5059.366-.7964.319-1.2367-.197-2.1175-1.18-2.0894-2.445.0375-.094.5809.468.5903.374Zm-20.2939 2.605-.5059.403c.787-.59.6558-.497.5059-.403Zm400.0404-52.58c.084-.047.159-.094.234-.15.197-.188-.187.112-.234.15Zm-3.86 4.778c.056-.103.103-.225.141-.347l-.141.347Zm-30.45 1.602c.337-.15.646-.347.965-.618-.028-.038-.628.375-.965.618Zm-1.818 2.108c-.103.066-.431.319-.431.319.122 0 .244 0 .356.009l.197-.309-.122-.019Zm.038.338c.093.009.178.028.271.046.413-.44.01-.224-.271-.046Zm-133.625 6.23c-.038.544.084 1.106.347 1.668-.347-.487-.572-.975-.656-1.518.103-.047.206-.094.309-.15Z" fill="#2BA84A"/></svg>