<svg width="65" height="46" fill="none" xmlns="http://www.w3.org/2000/svg"><path d="M45.9611 45.8831H19.0395c-4.1633 0-7.5501-3.3642-7.5501-7.4986v-4.9958c0-11.3248-10.7447-16.4291-10.8527-16.4793a1.0978 1.0978 0 0 1-.619-1.1928 1.0975 1.0975 0 0 1 1-.8971c10.0172-.7275 15.5064 6.8596 18.2579 12.9583C17.273 15.2891 7.8811 8.9248 7.7681 8.8508a1.0992 1.0992 0 0 1-.4614-1.1727 1.0976 1.0976 0 0 1 .9466-.833c9.8138-1.0867 15.1799 9.7962 17.7123 17.4041-.0967-12.512-3.2807-22.6993-3.3196-22.8192a1.0986 1.0986 0 0 1 .3685-1.1953 1.0935 1.0935 0 0 1 1.2486-.0734C28.9469 3.02 31.3167 9.3367 32.5 15.554 33.6833 9.3367 36.0531 3.0201 40.7369.1613c.3923-.238.8895-.209 1.2486.0734.3597.2825.5072.759.3685 1.1953-.0383.1205-3.2223 10.3079-3.3196 22.8204 2.5324-7.6085 7.9167-18.4794 17.7123-17.4053.4595.0508.8368.3835.946.8318a1.0994 1.0994 0 0 1-.4595 1.1732c-.1118.0741-9.4893 6.4641-11.5031 18.917 2.754-6.0968 8.235-13.6689 18.2528-12.9476a1.0975 1.0975 0 0 1 .3829 2.0892c-.1086.0509-10.854 5.1923-10.854 16.4807v4.9951c0 4.1344-3.3874 7.4986-7.5507 7.4986ZM5.3229 17.2854c3.5632 2.7377 8.3599 7.9393 8.3599 16.1033v4.9958c0 2.9247 2.4037 5.3039 5.3567 5.3039h26.9216c2.953 0 5.3561-2.3792 5.3561-5.3039v-4.9958c0-8.1665 4.7998-13.3688 8.3636-16.1058-11.1496 2.4294-14.1981 18.0312-14.2307 18.207-.0998.5392-.5813.9253-1.1337.8939-.5481-.027-.9919-.4564-1.0377-1.0038-1.1413-13.5816 6.0478-22.3615 10.1044-26.1752C43.1268 11.611 39.3646 31.4672 39.3238 31.687c-.0986.538-.5638.9071-1.1262.8983a1.0979 1.0979 0 0 1-1.0453-.9906c-1.0973-11.4253.8632-21.9535 2.142-27.2543-4.6373 5.685-5.5363 16.7387-5.6976 21.7476-.0195.5919-.5047 1.0621-1.0967 1.0621s-1.0772-.4702-1.0967-1.0621c-.1613-5.0089-1.0597-16.0626-5.6969-21.7476 1.2781 5.3008 3.2386 15.829 2.1413 27.2543a1.0965 1.0965 0 0 1-1.0453.9906c-.5643.017-1.027-.3597-1.1255-.8977-.0409-.2197-3.8143-20.0677-14.0581-22.4808 4.0566 3.813 11.2438 12.5929 10.1032 26.1733a1.0975 1.0975 0 0 1-1.0377 1.0038c-.5374.0364-1.0333-.3541-1.1344-.8933-.0333-.1752-3.1005-15.7656-14.227-18.2051Z" fill="#fff"/><path d="M35.792 41.4947h-8.6713c-.6058 0-1.0973-.4909-1.0973-1.0967 0-.6064.4915-1.0973 1.0973-1.0973h8.6713c.6058 0 1.0967.4909 1.0967 1.0973 0 .6058-.4909 1.0967-1.0967 1.0967ZM21.3767 41.4947h-3.1388c-.6058 0-1.0967-.4909-1.0967-1.0967 0-.6064.4909-1.0973 1.0967-1.0973h3.1388c.6058 0 1.0973.4909 1.0973 1.0973 0 .6058-.4909 1.0967-1.0973 1.0967Z" fill="#fff"/></svg>