<svg width="52" height="50" fill="none" xmlns="http://www.w3.org/2000/svg"><path d="M25.8266 49.6198c-1.8115 0-3.6219-.3651-5.2986-1.0943l-8.0172-3.4852A30.3993 30.3993 0 0 0 3.396 42.665l-2.6328-.2633A.8471.8471 0 0 1 0 41.5585v-8.2586a.8458.8458 0 0 1 .1697-.5081c.1969-.2633 4.9155-6.4278 12.1234-4.8239 4.054.9008 7.318 2.5867 9.3423 3.8425 1.4696.9115 3.1924 1.393 4.982 1.393h8.0171c1.3819 0 2.5965.7312 3.2758 1.8279l6.9048-7.9551c1.3387-1.7877 3.5289-2.8825 5.8218-2.8825h.5159a.8463.8463 0 0 1 .7093.384.8483.8483 0 0 1 .0664.8044l-6.245 14.1929c-1.3653 3.104-4.1455 5.4488-7.4363 6.2716l-1.0987.2744-6.3914 2.5567c-1.5729.6289-3.252.9421-4.9305.9421ZM1.6951 40.7915l1.8696.1871a32.1139 32.1139 0 0 1 9.6225 2.5077l8.0167 3.4852c2.819 1.2257 6.07 1.2737 8.9243.1319l6.4438-2.5775a.8837.8837 0 0 1 .1096-.035l1.1545-.2889c2.7865-.6968 5.1405-2.6818 6.2959-5.3097l5.6961-12.9453c-1.4584.2148-2.8005 1.0007-3.6946 2.1925l-7.6492 8.8157c.001.033.0015.0655.0015.099 0 2.1232-1.7276 3.8507-3.8508 3.8507H23.4493c-1.4541 0-2.8912.2332-4.2707.6929l-.3112-.7903-.2633-.8054.0431-.014a15.1686 15.1686 0 0 1 4.8021-.7782H34.635c1.1884 0 2.1562-.9673 2.1562-2.1562s-.9673-2.1562-2.1562-2.1562h-8.0171c-2.1058 0-4.1374-.5697-5.8751-1.6476-1.9123-1.1864-4.995-2.7782-8.8162-3.6282-5.4586-1.2107-9.3864 2.9785-10.231 3.9778v7.192H1.695ZM33.3729 24.0024c-1.3033 0-2.7646-.4024-4.3734-1.2068a.8521.8521 0 0 1-.4189-.4727c-.0655-.1838-1.5797-4.5393.8267-7.7602 1.7488-2.3414 5.0372-3.396 9.7791-3.1317a.8462.8462 0 0 1 .7986.8039c.0169.3365.3665 8.279-3.6835 10.9234-.8611.5629-1.8396.8441-2.9286.8441Zm-3.2927-2.5668c2.226 1.0439 4.0055 1.1462 5.2952.304 2.4015-1.5685 2.9208-6.2246 2.9334-8.648-3.7155-.0906-6.245.7467-7.5439 2.4849-1.5458 2.0699-.945 4.917-.6847 5.8591ZM20.4136 12.8995c-1.5025 0-3.2359-.322-4.7487-1.4299-2.5659-1.8803-3.745-5.46-3.5055-10.6393a.8477.8477 0 0 1 .7966-.8068c.3666-.0208 9.0426-.4839 11.962 3.8983 1.3595 2.0398 1.248 4.7114-.3302 7.942a.8463.8463 0 0 1-.4689.4233c-.1139.0422-1.7047.6124-3.7053.6124Zm3.413-1.4076h.0082-.0082Zm-9.9993-9.801c-.0732 4.1485.8805 6.9762 2.8389 8.4114 2.3447 1.7179 5.5463.9877 6.5528.6943 1.1516-2.499 1.249-4.4941.289-5.9352-1.7843-2.6783-7.0169-3.202-9.6807-3.1704Z" fill="#fff"/><path d="M27.0314 34.5999a.8473.8473 0 0 1-.847-.8902c.0499-.9968.1352-1.9423.2511-2.8383.3525-5.9968.1707-19.9617-8.6586-23.8251A.8477.8477 0 0 1 17.34 5.93c.1872-.428.6881-.6235 1.1162-.4363 5.203 2.2764 8.4763 7.9439 9.464 16.3897.0887.7569.1551 1.5031.2046 2.2299 2.3254-5.876 5.8828-7.9522 6.0947-8.071.4073-.2303.9241-.0839 1.1539.3229.2284.4073.0849.9227-.3209 1.1525-.0897.0524-5.5449 3.3262-6.9141 13.4219-.1043 1.7271-.2546 2.8282-.2687 2.9291a.847.847 0 0 1-.8383.7311Z" fill="#fff"/></svg>