<svg width="28" height="30" viewBox="0 0 28 30" fill="none" xmlns="http://www.w3.org/2000/svg">
<path d="M1.59369 0.5625H26.5312C27.0237 0.5625 27.4219 0.961529 27.4219 1.45316V29.0626L24.7375 26.3907L22.0834 29.0626L19.4026 26.3907L16.7165 29.0626L14.0392 26.3907L11.3744 29.0626L8.70081 26.3907L6.04142 29.0626L3.37491 26.3907L0.703125 29.0626V1.45316C0.703125 0.961529 1.10206 0.5625 1.59369 0.5625Z" fill="#E4E7E7"/>
<path d="M14.9531 20.1458H4.26556V21.9252H14.9531V20.1458Z" fill="#E2574C"/>
<path d="M22.0781 16.5848V18.3749H23.8593V16.5848H22.0781ZM4.26556 18.3625H20.2969V16.583H4.26556V18.3625Z" fill="#868686"/>
<path d="M4.26556 13.9221H6.04679V4.12524H4.26556V13.9221ZM7.82811 13.9221H10.5V4.12524H7.82811V13.9221ZM18.5156 13.9221H19.4063V4.12524H18.5156V13.9221ZM21.1875 4.12524V13.9221H23.8594V4.12524H21.1875ZM14.9531 13.9221H16.7343V4.12524H14.9531V13.9221ZM12.2812 13.9221H13.1719V4.12524H12.2812V13.9221Z" fill="#2494BC"/>
</svg>
