<svg width="60" height="40" fill="none" xmlns="http://www.w3.org/2000/svg"><path d="M45.3531 36.2924H22.1728c-.5571 0-1.0081-.451-1.0081-1.0075 0-.5571.451-1.008 1.0081-1.008h23.1803c.5571 0 1.0081.4509 1.0081 1.008 0 .5565-.451 1.0075-1.0081 1.0075ZM44.3456 26.2038H23.1803c-.5571 0-1.0075-.4509-1.0075-1.008v-5.6689c0-.5565.4504-1.0081 1.0075-1.0081s1.008.4516 1.008 1.0081v4.6614h19.1492v-4.5928c0-.5565.451-1.0075 1.0081-1.0075a1.007 1.007 0 0 1 1.0075 1.0075v5.6003c0 .5571-.4504 1.008-1.0075 1.008Z" fill="#fff"/><path d="M51.8029 39.7718c-4.5202 0-8.1966-3.677-8.1966-8.1966 0-4.5201 3.677-8.1971 8.1966-8.1971 4.5201 0 8.1971 3.677 8.1971 8.1971 0 4.5196-3.6764 8.1966-8.1971 8.1966Zm0-14.3788c-3.4083 0-6.1811 2.7734-6.1811 6.1816 0 3.4083 2.7728 6.1816 6.1811 6.1816 3.4082 0 6.1816-2.7733 6.1816-6.1816 0-3.4082-2.7734-6.1816-6.1816-6.1816Z" fill="#fff"/><path d="M51.8029 36.0342c-2.4591 0-4.4585-2.0005-4.4585-4.459 0-2.459 2-4.459 4.4585-4.459 2.4584 0 4.4584 2.0006 4.4584 4.459 0 2.4579-2 4.459-4.4584 4.459Zm0-6.9024c-1.3478 0-2.4429 1.0963-2.4429 2.4428 0 1.3478 1.0957 2.4435 2.4429 2.4435 1.3471 0 2.4428-1.0963 2.4428-2.4435 0-1.3465-1.0957-2.4428-2.4428-2.4428ZM15.4347 39.7718c-4.5207 0-8.1977-3.677-8.1977-8.1966 0-4.5201 3.677-8.1971 8.1977-8.1971 4.5195 0 8.1966 3.677 8.1966 8.1971 0 4.5196-3.6771 8.1966-8.1966 8.1966Zm0-14.3788c-3.4083 0-6.1822 2.7734-6.1822 6.1816 0 3.4083 2.7739 6.1816 6.1822 6.1816s6.1804-2.7733 6.1804-6.1816c0-3.4082-2.7721-6.1816-6.1804-6.1816ZM47.3686 20.1567H20.0857a1.007 1.007 0 0 1-1.0075-1.0075c0-5.0017 4.0686-9.0708 9.0703-9.0708h11.1573c5.0017 0 9.0709 4.0691 9.0709 9.0708 0 .5565-.451 1.0075-1.0081 1.0075Zm-26.2027-2.0156h25.1232c-.4897-3.4146-3.4348-6.0472-6.9833-6.0472H28.1491c-3.5484 0-6.493 2.6326-6.9832 6.0472Z" fill="#fff"/><path d="M26.7425 35.7407a1.0063 1.0063 0 0 1-.8604-.4815L5.5172 2.0155H1.0082C.451 2.0155 0 1.564 0 1.0075S.451 0 1.008 0h5.0744c.3506 0 .6765.1822.8593.481l20.659 33.7251c.2912.4752.1418 1.0958-.3328 1.3858a1.0017 1.0017 0 0 1-.5254.1488ZM40.3848 12.0938h-6.1181a1.007 1.007 0 0 1-1.0075-1.0074V8.0628c0-.5566.4504-1.0081 1.0075-1.0081h6.1181c.5571 0 1.0075.4515 1.0075 1.008v3.0237a1.007 1.007 0 0 1-1.0075 1.0074Zm-5.1101-2.0155h4.1021v-1.008h-4.1021v1.008ZM15.52 36.0342c-2.4584 0-4.4584-2.0005-4.4584-4.459 0-2.459 2-4.459 4.4584-4.459 2.4585 0 4.4585 2.0006 4.4585 4.459 0 2.4579-2 4.459-4.4585 4.459Zm0-6.9024c-1.3471 0-2.4428 1.0963-2.4428 2.4428 0 1.3478 1.0957 2.4435 2.4428 2.4435 1.3472 0 2.4429-1.0963 2.4429-2.4435 0-1.3465-1.0951-2.4428-2.4429-2.4428Z" fill="#fff"/></svg>