<svg width="150" height="103" fill="none" xmlns="http://www.w3.org/2000/svg"><path d="M76.9136.0292c.5952.1103.9854.458 1.1958 1.0223.367.9869.7032 1.9815.8358 3.0331.0413.2667.0457.5378.0131.8057-.0147.0979-.0694.205.0925.239.1473.0308.1627-.067.1951-.1704.1411-.4526.276-.9082.4387-1.353.259-.7063.9059-1.0525 1.5103-.8312.6168.2267.872.9252.5929 1.6445a12.3666 12.3666 0 0 1-.9067 1.8666 1.0093 1.0093 0 0 0-.1179.2382.1784.1784 0 0 0 .0971.1943c.071.0393.1056-.0432.1427-.0887.1287-.1603.2528-.3238.3855-.4842.104-.1295.2081-.2613.3215-.3855.5235-.5612 1.3106-.6322 1.8264-.168.5158.4641.5397 1.2598.0378 1.8372a12.9637 12.9637 0 0 1-1.6484 1.6191c-.1789.1434-.296.2806-.1788.5397.2312-.0625.3854-.259.579-.3917.6029-.4201 1.2844-.3723 1.6499.1273.377.5157.2213 1.2197-.3963 1.6306-.8851.589-1.7609 1.2097-2.8527 1.3762-.1673.0254-.1588.1072-.1341.2413.9645 5.2828.7039 10.6204.6939 15.9456 0 1.0909-.091 2.1811-.1396 3.2713-.0617.2983 0 .6013-.0323.9013a3.6464 3.6464 0 0 0-.0771.7563 2.6367 2.6367 0 0 1 .0771-.7139c.0177-.1851-.0286-.3855.1033-.5459.8218-4.2952 3.5951-6.8618 7.4785-8.4408a.2408.2408 0 0 1 .2313-.0084c-.2744.3215-.5636.6275-.8172.9614-1.2112 1.5967-1.8273 3.4316-2.0663 5.3969-.3061 2.491-.0347 4.9166.9776 7.2349.4804 1.0941 1.1488 2.0555 2.0732 2.8342.2768.2313.4341.2367.6608-.0686 1.0739-1.4456 1.6715-3.0778 1.9575-4.8372.2436-1.495.1866-2.966-.3786-4.3946-.239-.6022-.589-1.1357-1.0338-1.6692.3022.0331.5235.1542.747.2598 1.1874.5698 2.1056 1.4548 2.8828 2.4964 1.0277 1.3701 1.7216 2.9121 2.1888 4.5527a.3515.3515 0 0 1 .101.2984c-.0401-.2313.0547-.4981-.0224-.771-.2606-3.7678-.6514-7.5171-1.6113-11.1855-.0771-.2806-.145-.3646-.4495-.2791-.6877.1951-1.4009.1743-2.1056.118-.515-.0416-.8411-.4433-.801-.9059.0401-.4626.4417-.771.9552-.7517.1905.0077.3809.0378.5937.0601-.0563-.2829-.2013-.3793-.4719-.3855a7.7921 7.7921 0 0 1-1.5597-.2513c-.5682-.1373-.9113-.6523-.7833-1.1395.1326-.5012.6615-.7818 1.2251-.6446.2359.0571.4695.1257.7101.1904.0717-.1896.0331-.2891-.1743-.3338-.3631-.0771-.7239-.1719-1.0793-.276-.6577-.1935-.9615-.6384-.7949-1.1403.1719-.5181.6939-.6985 1.3469-.4626.3169.1164.6299.2429.9822.3801-.0162-.0956-.01-.1457-.03-.1611-.99-.7433-1.542-1.8088-2.0817-2.8743a1.1397 1.1397 0 0 1 .4911-1.5234c.5451-.2691 1.2405-.034 1.5296.5697.4935 1.0293.9877 2.064 1.0124 3.242 0 .0771-.0155.1596.0925.1781.1364.0232.1333-.0771.1542-.1665.0925-.3855.1734-.7764.2837-1.1565.1735-.6006.6669-.9113 1.1819-.7664.5397.1504.7949.6939.6168 1.2976a10.1518 10.1518 0 0 1-.6222 1.6175c-.0647.1334-.1827.2722.0339.4048.1951-.2822.3855-.5728.5898-.8481.3778-.5011 1.0447-.6276 1.4996-.296.4672.34.5598.9907.1935 1.5096a9.8482 9.8482 0 0 1-1.2821 1.4864c-.1465.1388-.2421.2652-.0825.4626.175-.1488.3431-.3084.5258-.4441.4302-.3253.9668-.2852 1.2829.0856a.9129.9129 0 0 1 .2003.6858.914.914 0 0 1-.3545.6203c-.707.5728-1.4116 1.1626-2.3268 1.3877-.2367.0579-.1411.2059-.1072.3269.377 1.3485.6392 2.7224.8743 4.1001.1612.9476.2876 1.9005.4541 2.8527.1288-.6893.1812-1.3878.3315-2.0732.2491-1.1256.6084-2.2019 1.3223-3.1287.8072-1.0477 1.8905-1.592 3.1971-1.6961.936-.0771 1.851 0 2.689.4734 2.013 1.1248 2.267 4.0446.463 5.3969-.699.5258-1.496.6761-2.337.5019a2.06 2.06 0 0 1-1.373-.9772 2.0477 2.0477 0 0 1-.27-.8179 2.0568 2.0568 0 0 1 .087-.8571 1.446 1.446 0 0 1 1.72-.9422.8488.8488 0 0 1 .43.2444c.226.2498.262.5282.077.8088a.5673.5673 0 0 1-.161.1667.5644.5644 0 0 1-.445.0841.568.568 0 0 1-.21-.0966c-.237-.1634-.446-.1981-.658 0-.227.2105-.181.4626-.063.7085.212.441.835.6993 1.432.6045.833-.1318 1.375-.6877 1.493-1.5335.123-.8843-.302-1.6838-1.095-2.0616-1.756-.8365-3.7071.2945-3.9106 2.2497-.1403 1.3408.3323 2.4926 1.0996 3.5466.352.488.764.9336 1.131 1.4132 1.455 1.8989 2.261 4.0369 2.345 6.4377 0 .087.018.1729.054.2521.848-1.2173 1.703-2.4224 2.853-3.3746a11.0204 11.0204 0 0 1 3.953-2.1009c-.097.3084-.309.4256-.456.589-.86.9553-1.399 2.0269-1.255 3.353.09.8481.435 1.6045.86 2.3292.643 1.101 1.45 2.0871 2.205 3.1078.658.889 1.295 1.7903 1.757 2.8003.059.1264.092.2251.272.1287 2.236-1.2043 4.508-.9506 6.777-.1087 2.294.8481 4.332 2.1657 6.333 3.5466 2.698 1.8565 5.272 3.8857 8.002 5.6968 1.96 1.3014 3.974 2.5057 6.23 3.2381 1.598.5189 3.22.771 4.886.3423 1.098-.2845 1.999-.8041 2.344-1.9845.37-1.2659-.16-2.4671-1.249-2.821-1.061-.3416-2.005.1457-2.219 1.1457-.195.9082.581 1.6522 1.477 1.4086.326-.0887.545-.2953.557-.6523.009-.3007-.199-.4325-.455-.276-.185.1141-.346.1742-.519.0123a.4781.4781 0 0 1-.158-.2387.4742.4742 0 0 1 .004-.2863c.067-.2051.24-.2868.445-.3123.79-.0987 1.319.4626 1.172 1.2475-.14.7502-.72 1.276-1.45 1.3153-.965.0516-1.773-.4765-2.029-1.3238-.449-1.5026.694-3.1009 2.262-3.1695 2.081-.0918 3.429 1.0123 3.675 3.0068.077.2537-.033.5228.066.7749v.0771c-.199.1542-.135.3924-.195.5905-.563 1.8735-1.857 2.8797-3.751 3.1796l-.606.0979c-.133.0548-.283-.0077-.415.0555h-1.487c-.181-.0771-.377.0085-.559-.057-1.505-.1172-2.957-.4811-4.395-.9352a38.867 38.867 0 0 1-5.913-2.4672c-1.46-.7455-2.848-1.6191-4.24-2.4779-1.492-.9252-3.002-1.8119-4.581-2.5767-1.292-.6314-2.637-1.1441-4.054-1.4302-.174-.0347-.359-.1064-.548-.0771-.155-.0771-.324.0062-.478-.0578a6.993 6.993 0 0 0-1.238 0c-.154.0625-.331-.0154-.487.0563-.694.0131-1.343.2375-1.997.4341-.748.2402-1.517.4119-2.297.5127a8.9514 8.9514 0 0 1-1.459 0l-.373-.0185c-.124-.0771-.272 0-.398-.0602a9.3495 9.3495 0 0 1-3.075-.8326c-.856-.404-1.628-.9599-2.39-1.5243-1.344-1.0023-2.749-1.8981-4.273-2.6051-1.6041-.7448-3.2509-1.3439-4.9903-1.7078-.8658-.1812-1.7324-.3199-2.6051-.4433-.1542-.0771-.3246.0069-.478-.0586l-.5104-.02a17.6628 17.6628 0 0 0-2.3731 0c-1.5482.0971-3.0547.36-4.4926.9861-.8666.377-1.6144.9521-2.4486 1.3723a16.0584 16.0584 0 0 1-2.6522 1.0316c-.916.2721-1.8589.3917-2.7933.5613-.1303.0601-.2791-.0108-.4086.0578l-.4403.0223c-.1842.061-.3855-.02-.5659.0548H73.933c-.1835-.0771-.3816.0062-.5659-.0555l-.4402-.0216c-.1296-.0686-.2784 0-.4087-.0578a16.7357 16.7357 0 0 1-3.9736-.9252 15.2449 15.2449 0 0 1-2.7871-1.4024 9.7606 9.7606 0 0 0-3.4448-1.3192c-.724-.1334-1.4456-.2652-2.1819-.3015a17.7963 17.7963 0 0 0-2.3731 0l-.5096.0209c-.1542.0655-.3261-.0201-.4788.0586a15.095 15.095 0 0 0-2.2158.3199 26.6713 26.6713 0 0 0-2.9799.8088c-2.5612.8797-4.8965 2.1803-7.0329 3.8333a10.6904 10.6904 0 0 1-4.7948 2.1256 2.8284 2.8284 0 0 1-.3038.0193c-.1264.0632-.2744-.0162-.3986.0601l-.3731.0186a8.9575 8.9575 0 0 1-1.4595 0c-1.2336-.0663-2.3692-.5744-3.5612-.8312-.2413-.0524-.488-.0771-.7324-.1156-.1542-.0725-.3292.0062-.4865-.0563a6.9952 6.9952 0 0 0-1.2382 0c-.1542.0632-.3269-.02-.4803.0571-.9769.0616-1.8936.3708-2.7995.7077-2.1819.8126-4.1749 1.9876-6.1517 3.1996-1.8026 1.1041-3.5913 2.2359-5.511 3.1356-1.9537.9136-3.9398 1.7432-6.0322 2.3014a23.2458 23.2458 0 0 1-3.2382.6214c-.1588.0602-.3323-.0146-.4903.0555H4.9336c-.1327-.0632-.2815 0-.4156-.0555-.751-.0894-1.4888-.2182-2.1842-.5474-1.1419-.5397-1.8134-1.4648-2.1904-2.6275-.0717-.2205-.077-.4626-.111-.6939a3.4695 3.4695 0 0 1 0-.9198c.3932-2.6622 2.6375-3.2188 4.1988-2.8488 1.3106.3084 2.1294 1.7818 1.74 3.0716-.2165.7171-.723 1.1434-1.4447 1.2922-.6245.1295-1.202.0316-1.653-.478a1.619 1.619 0 0 1-.4102-.9761 1.0203 1.0203 0 0 1 .8473-1.0789 1.0205 1.0205 0 0 1 .495.0389c.279.0964.394.3431.2853.6168-.118.2929-.3262.3716-.6107.2058-.1333-.0771-.2575-.1395-.3855-.0308-.128.1087-.1403.2706-.0963.4271a.7058.7058 0 0 0 .4942.4958 1.1837 1.1837 0 0 0 1.494-.739 1.1833 1.1833 0 0 0 .0425-.608c-.1541-.8681-.9251-1.4163-1.8087-1.2891C2 55.144 1.2528 56.1887 1.4556 57.4592c.162 1.0131.694 1.7456 1.6623 2.1442 1.6067.6607 3.2381.5759 4.8726.1542 2.01-.5189 3.8241-1.4719 5.5796-2.5443 2.5443-1.5589 4.9081-3.3731 7.3244-5.1163 2.1549-1.5558 4.3175-3.1032 6.7076-4.2874 1.5266-.7556 3.1032-1.3477 4.831-1.4479 1.2189-.071 2.3831.1272 3.4656.6939.3192.1665.3809.0771.4564-.2175.2313-.8951.6939-1.6792 1.1966-2.4417.458-.6939.9336-1.3831 1.3924-2.0816a6.1251 6.1251 0 0 0 .606-1.1565c.431-1.1133.1989-1.9892-.7355-2.7378-.1974-.1542-.4087-.2999-.6384-.4672 2.7285.0216 4.7855 1.1927 5.3915 3.0924.417-.7671.7544-1.575 1.0069-2.4109.4626-1.5265.6291-3.0639.1172-4.6174-.3169-.9607-.8805-1.7602-1.6152-2.4672 1.0377-.0169 3.1232 1.4557 4.225 2.9706 1.057 1.4534 1.6692 3.1033 2.1318 4.8264.0454-.7586.0138-1.5157.0894-2.2728.2799-2.7756 1.3731-5.1872 3.1688-7.2967.8372-.9837 1.6028-2.0045 1.9706-3.2705a4.7697 4.7697 0 0 0-.0848-2.9868c-.7193-2.0439-3.5049-2.3584-4.7801-1.3269-.7595.6168-.973 1.4271-.7818 2.3508.165.7987.6592 1.3261 1.4579 1.5227.512.1256 1.0231.0971 1.4888-.1874.3138-.192.5096-.4626.5397-.8419a.5397.5397 0 0 0-.2938-.5397.4925.4925 0 0 0-.5728.0324c-.4202.2868-.8728.2005-1.0886-.1866-.2159-.387-.0417-.8404.3855-1.0686.8773-.4626 2.0816.1411 2.3129 1.1627.3778 1.6815-.9321 3.1479-2.6984 3.0222-1.5489-.1102-2.6761-.9845-3.1295-2.4286-.4895-1.5589-.0131-3.2034 1.2113-4.1725 1.0123-.8003 2.1865-1.0309 3.4416-.9599 2.6561.1542 4.2351 1.6653 5.1017 4.0608.4757 1.3284.6985 2.72.784 4.1348a.7803.7803 0 0 1 .0556.1812.4575.4575 0 0 1-.0101.1881c.0409-.0941 0-.2128.0872-.2922.3084-2.5882.6938-5.1618 1.3731-7.6821.0678-.2506.0771-.364-.2421-.4626-.9884-.3084-1.7895-.943-2.5327-1.6361-.3816-.3554-.3685-.9614-.0493-1.3369.3191-.3754.9205-.4471 1.3638-.1341.239.1688.448.3793.6723.5721.1242-.2236.064-.3771-.1125-.5397a11.5637 11.5637 0 0 1-1.3546-1.5752c-.4418-.5998-.3678-1.3638.1588-1.754.5266-.3901 1.2744-.2313 1.7154.3794.1434.1981.2668.4071.4171.6006.0771.0987.1049.3261.2591.2567.1981-.0902.0524-.259-.0108-.3924a11.6857 11.6857 0 0 1-.6708-1.7586 1.77 1.77 0 0 1-.0709-.3377c-.0509-.5667.2814-1.0517.7887-1.1627a1.0724 1.0724 0 0 1 1.2259.6993c.148.451.2602.9129.3354 1.3816.0177.0995-.0085.2637.1542.266.2112 0 .1387-.1766.1387-.2883.0089-.36.0676-.717.1743-1.0609.2375-.839.5621-1.6509.9683-2.4225.3531-.6746 1.1133-.9483 1.7232-.6383.6098.3099.8612 1.1009.5058 1.764-.606 1.1326-1.1997 2.2775-2.2691 3.0677-.0555.0409-.1141.0818-.0709.1488.0432.0671.1133.044.1758.0201.3477-.1326.6939-.2768 1.0424-.3955.6252-.2128 1.2104.0323 1.3638.5566.1596.5397-.1611 1.0524-.8002 1.2374-.4063.118-.8181.2175-1.2336.3038-.1866.0393-.3539.1033-.2914.3084.0578.1874.2127.0231.3191 0 .239-.0432.4719-.1311.7124-.1542.5605-.0555 1.0609.3084 1.1442.8095a1.0504 1.0504 0 0 1-.7641 1.182 9.0996 9.0996 0 0 1-1.8981.3014c-.2799.0154-.4179.1242-.485.3855.2005.0463.3855 0 .5775-.0139.6044-.0516 1.0863.2953 1.1464.8296.0571.5066-.3469.9507-.9429 1.0023-.8226.0702-1.6476.0578-2.4432-.1812-.3046-.091-.3609.0178-.4256.2606a35.0838 35.0838 0 0 0-.754 3.491 83.4863 83.4863 0 0 0-.9592 9.0322v.1542c-.0894.2644.0263.5396-.0215.7571a.4007.4007 0 0 1 .0932-.209c1.3061-4.0353 4.158-6.551 7.9705-8.12.084-.0347.1658-.0732.2753-.0193-.0155.1658-.162.2421-.2583.3462-1.4294 1.5528-2.2274 3.3445-2.03 5.4948.1503 1.6337.8373 3.057 1.811 4.3492 1.3153 1.7439 2.9868 3.0623 4.922 4.0577.0439.0223.091.0377.1758.0724-.0818-.7648-.1828-1.4957-.2313-2.232-.2791-4.4231.9861-8.339 3.841-11.7298.9298-1.1048 1.8203-2.2281 2.3192-3.6059.4317-1.1765.5312-2.37.2004-3.5905-.5227-1.9482-2.2744-3.0908-4.282-2.784-1.2776.1951-2.259.771-2.6214 2.0932-.4179 1.5204.3616 2.9606 1.7779 3.2968.5759.1364 1.1495.1056 1.6869-.1789.4086-.2159.6777-.5397.7525-1.0077a.6631.6631 0 0 0-.3292-.7201c-.2514-.1542-.4881-.1542-.7432.0424-.4287.3323-.963.2498-1.256-.1542-.293-.404-.1796-.966.2637-1.286 1.0023-.7224 2.6321-.0331 2.9621 1.2529.4672 1.818-.8095 3.5712-2.6853 3.7238-3.0254.2452-4.8703-2.2443-4.5951-4.9104.2089-2.0254 1.3724-3.3823 3.2852-3.9536 2.4463-.7309 4.7647-.4009 6.7376 1.3508 1.1156.9899 1.744 2.2998 2.1919 3.7007.1542.4857.2799.9807.374 1.3161 0-.8481.0362-1.8504-.0077-2.848-.0717-1.6029-.2151-3.2012-.5189-4.7802-.1002-.5188-.0933-.5204-.5968-.444-.8743.1318-1.7447.0532-2.6082-.0841a1.0075 1.0075 0 0 1-.8334-1.1195 1.0286 1.0286 0 0 1 1.1564-.8388c.2522.0324.5027.0771.7857.1265-.0663-.2899-.1612-.4534-.4834-.4927a10.0296 10.0296 0 0 1-1.8689-.4441c-.6939-.2251-1.0532-.8527-.8481-1.4603.1951-.579.8535-.848 1.5358-.6314.1827.0586.3616.131.5459.1866.0987.0293.2313.185.2991-.0123.0586-.175-.0478-.2707-.2313-.317a8.994 8.994 0 0 1-1.488-.5165c-.4448-.1989-.7139-.643-.6715-1.0709a.9867.9867 0 0 1 .737-.848 1.114 1.114 0 0 1 .7895.0686c.3855.1811.761.3693 1.1403.5574.0733.0354.1427.067.2036-.0139.0609-.081-.0108-.1118-.0579-.1496-.7347-.5867-1.151-1.4024-1.5705-2.2112-.212-.4094-.4001-.8326-.5728-1.2605-.3631-.8975.0146-1.6738.9383-1.9637a.6213.6213 0 0 1 .3893-.0116ZM110.939 89.1753c.672-.1088 1.156-.485 1.48-1.0694.16-.2899.32-.5875.346-.9306a2.332 2.332 0 0 0 0-.8812c-.354-1.2267-1.453-2.1071-2.717-2.313-1.753-.2845-3.161.4379-4.504 1.4071-1.094.7872-1.92 1.8272-2.721 2.8904-.468.6222-1.07 1.0886-1.72 1.4996-1.2333.7833-2.6018 1.2143-4.032 1.4648-.3732.064-.7394.1735-1.1218.1743-.1542.0663-.3277-.0185-.4803.0586l-.4449.0192c-.2367.0702-.4857-.0239-.7209.0571h-2.6383c-.2613-.0825-.5343.0123-.7964-.0555l-.5944-.0216c-.1542-.0725-.3285 0-.485-.0555l-.4379-.0224c-.1303-.0655-.2791 0-.4109-.0555l-.293-.0193c-.1257-.077-.2737 0-.4009-.0593-1.0023-.0578-1.9807-.3269-2.983-.4048-.1542-.0725-.3292.0046-.4865-.0563a9.3746 9.3746 0 0 0-1.6244 0c-.1311.0548-.2791-.0108-.4094.0548-2.1973.2228-3.9629 1.1202-4.5651 3.5465a2.8651 2.8651 0 0 0-.04.4549 4.086 4.086 0 0 0 0 1.1264c.0508 1.5026 1.2621 2.8704 2.885 3.0616.8997.1056 1.6892-.1288 2.3477-.7193a2.2702 2.2702 0 0 0 .6861-1.2275c.1596-.7586.0956-1.4648-.515-2.033-.4934-.4572-1.535-.6939-2.1927-.3786-.4487.2143-.6939.6106-.66 1.0994.0155.2074.0995.3778.2845.4626.1681.0771.3084 0 .4495-.121.2421-.2113.5305-.2575.8065-.0833a.8045.8045 0 0 1 .377.8604.7038.7038 0 0 1-.5674.596c-1.074.2352-2.0648-.1858-2.2097-1.3192a2.005 2.005 0 0 1 0-.6885c.2089-1.4332 1.4132-2.4255 3.0069-2.2574 1.7146.1804 2.7963 1.2822 3.0346 2.875.037.3052.037.6138 0 .919-.1542.8612-.4549 1.6615-1.0355 2.3338-.7432.8554-1.6807 1.3404-2.8095 1.4264-1.1888.087-2.3499-.035-3.4224-.612a5.3448 5.3448 0 0 1-2.2181-2.2361 6.3917 6.3917 0 0 1-.7209-2.2975c-.0578-.1326.0085-.2822-.0563-.4141v-1.1025c.0687-.1287 0-.2752.0556-.4063a7.0966 7.0966 0 0 1 1.3631-3.4756c1.0277-1.3878 2.4155-2.1711 4.0762-2.5226.3485-.0771.7031-.1257 1.0547-.1874.128-.0555.2745.0162.4009-.0563l.4464-.0193a21.5518 21.5518 0 0 1 2.2305 0l.6746.0209c.1804.0771.3778-.0085.5589.057l.4341.0216c.1318.064.2814 0 .414.0555l.3616.0216c.1303.0671.2791 0 .4102.0571l.2883.0192c.128.0694.2761 0 .4056.0579l.2883.0192c.1272.0702.276 0 .4056.0586a9.1779 9.1779 0 0 0 1.6753.1727c.128.0679.2753 0 .4056.0548l.434.0231c.1581.0702.3331-.0054.4919.0571l.5135.0192c.313.0856.6376-.0162.9514.0571h.9298c.2359-.0671.4842.0254.7186-.0555 2.0446-.128 3.9073-.6939 5.4241-2.165 1.182-1.1487 2.443-2.2104 3.915-2.9744a9.616 9.616 0 0 1 3.667-1.0501 5.0376 5.0376 0 0 1 1.073 0 5.856 5.856 0 0 1 3.455 1.6191c.643.6168 1.017 1.3877 1.187 2.2551.055.1334-.009.2822.055.414v.3269c-.064.1303 0 .2776-.053.4094-.18.8751-.488 1.6885-1.148 2.3238-.996.9575-2.151 1.2019-3.475.818-.876-.2545-1.486-.7533-1.797-1.6191-.044-.1234-.016-.2521-.083-.3624-.062-.1318.009-.2814-.059-.4117v-.1727c.067-.131 0-.2814.059-.414.226-1.0948.79-1.673 1.782-1.7432.771-.0547 1.696.1658 2.021 1.3585.038.202.038.4094 0 .6114-.341.828-.763 1.0701-1.461.8404-.171-.0556-.322-.135-.412-.2999a.6321.6321 0 0 1-.006-.3801c.198-.3855.525-.4372.791-.125.068.0771.115.2213.263.1581.147-.0632.269-.1642.289-.3277.044-.3323-.094-.5682-.385-.744-.809-.4857-1.667-.1133-1.793.7918a1.0657 1.0657 0 0 0 0 .5767c.064.6939.683 1.2452 1.458 1.2907.189.0481.387.0454.575-.0077ZM38.3473 86.7798c.2012-1.0902 1.0247-1.4364 2.0215-1.3515 1.0339.0871 1.5243.811 1.7802 1.7362.0617.1326-.0069.283.0594.414v.1743c-.0671.1303 0 .2798-.0586.4117-.1542.5027-.3662.9629-.7617 1.3415-.5143.4919-1.1565.7093-1.8118.7949-1.1079.1457-2.1226-.1542-2.8928-1.0139-.5774-.6461-.9583-1.3985-1.037-2.2805-.0508-.1326.0108-.2799-.0532-.411v-.3253c.064-.1319 0-.2807.0556-.414.3299-1.946 1.6383-2.9791 3.3746-3.6083.4086-.148.8411-.1942 1.2682-.2636a5.0394 5.0394 0 0 1 1.0732 0c2.1812.195 4.0392 1.1349 5.7339 2.4671.8265.6492 1.5581 1.404 2.363 2.0755.9954.8304 2.1866 1.2266 3.4309 1.4803.485.0979.9745.1997 1.4765.1681.2351.0771.4834-.0116.7193.0547h.9306c.3138-.0732.6376.0285.9506-.057l.5142-.0193c.1589-.0625.3339.0131.4919-.0571l.4341-.0231c.1303-.054.2768.0131.4055-.0547.5644 0 1.1195-.0887 1.6754-.1727.1287-.0617.2775.0115.4055-.0586l.2884-.0193c.1295-.0601.2775.0116.4055-.0578l.2884-.0193c.131-.0594.2798.01.4101-.0571l.3608-.0216c.1334-.0547.2822.0085.4148-.0555l.4333-.0215c.182-.0656.3794.0223.5598-.0571l.6746-.0208a21.4806 21.4806 0 0 1 2.2297 0l.4471.0193c.1265.0724.2722 0 .401.0562 1.2451.2105 2.4494.5089 3.5234 1.2382 1.5982 1.0864 2.4671 2.6214 2.8765 4.4602.0355.1619.0625.3253.0941.4872.0547.1303-.0131.2776.0555.4063v1.1026c-.0648.1318 0 .2814-.0571.4132-.1881.963-.4541 1.8997-1.0123 2.7231-.8712 1.2845-2.067 2.0952-3.6036 2.3432-1.1495.185-2.289.216-3.3753-.362-1.0864-.578-1.7494-1.4947-2.0987-2.6535a5.257 5.257 0 0 1-.1125-.663 3.738 3.738 0 0 1 0-.919c.1272-1.202.6792-2.1334 1.8218-2.5936 1.2644-.5097 2.5366-.4703 3.4926.532.3855.407.5813.9136.7255 1.444a1.966 1.966 0 0 1 0 .6885c-.34 1.2189-1.1527 1.441-2.1102 1.3639-.3739-.0301-.6808-.263-.7317-.6369a.9143.9143 0 0 1 .3701-.8589c.2806-.2097.5798-.1256.8311.1049.1388.128.2984.165.4557.0771.2251-.1287.2914-.3485.2729-.5991-.0524-.71-.596-1.0377-1.2683-1.0855-.781-.0555-1.4887.1696-1.8927.8951-.4395.7872-.3524 1.6044.0932 2.3615.6855 1.1642 2.1796 1.6075 3.4957 1.0424 1.1426-.4903 1.9228-1.2945 2.0971-2.5828.0123-.0948.1179-.1696.0771-.2829a4.0198 4.0198 0 0 0 0-1.1257c-.1496-1.1672-.6662-2.1587-1.5705-2.8919a4.6963 4.6963 0 0 0-2.165-.9614c-.2898-.0517-.5805-.0972-.8712-.145-.1287-.0671-.2768 0-.4071-.0555a9.3838 9.3838 0 0 0-1.6252 0c-.1542.0609-.33-.0162-.4857.0563-.4988.0578-1.0023.0871-1.4949.1835-.492.0986-.9887.1725-1.4881.2212-.1272.0625-.2752-.0146-.4009.0594l-.2937.0193c-.1318.0563-.2799-.01-.4102.0555l-.4379.0224c-.1542.0593-.3292-.017-.4849.0555l-.5945.0216c-.2621.0678-.5358-.0263-.7972.0555h-2.6421c-.2313-.0818-.485.0131-.7209-.0571l-.4449-.0193c-.1542-.0771-.3261.0077-.4803-.0586a13.3157 13.3157 0 0 1-3.3476-.7278c-1.2382-.4371-2.3685-1.0678-3.2867-2.0307-.4549-.4781-.7887-1.0501-1.2197-1.5489a11.0442 11.0442 0 0 0-2.6877-2.2929c-1.0354-.6168-2.1387-1.0478-3.3507-.879-1.2559.175-2.3422.6939-2.8596 1.9845a.8222.8222 0 0 0-.0647.3732 2.378 2.378 0 0 0 0 .8828c.0578.9907.9437 1.959 1.8272 1.9991.1908.0521.3921.0521.5829 0 .754-.1264 1.2875-.5027 1.4571-1.2898a1.0648 1.0648 0 0 0 0-.5775c-.195-.8943-.9791-1.1673-1.6576-.9082-.4317.165-.6592.5975-.515.9606.1025.2583.2529.2514.4418.1111.4626-.3408.5296-.3354.8943.0832.0178.1288.0679.2591-.0308.3778a1.532 1.532 0 0 1-.5875.3338c-.6014.1835-1.195-.1989-1.2606-.8719a1.6304 1.6304 0 0 1-.0023-.6145Z" fill="#2BA84A"/><path d="M61.8878 65.8513c-.0069-.1187-.0146-.2374-.0216-.3562-.0724-.2868.0286-.5859-.057-.8719l-.0201-1.441c-.0771-.4696.0309-.9468-.0562-1.4163l-.0216-1.5135c-.0725-.5728.0308-1.1518-.0555-1.7247.0624-.2567-.0463-.4934-.1149-.7239-.0771-.2568-.3277-.2868-.5574-.2514-.3154.0486-.4372-.0871-.4302-.3855-.0401-.1225 0-.2513-.0247-.3731-.0509-.303.0509-.4719.3762-.4626l1.3624-.0208c.2074-.0679.4294.0254.636-.0571l.4433-.0193c.2375-.0686.4873.0232.7232-.0562l1.3415-.0054c.1018.3299.0525.6638.0262.9976l-.0208.1288c-.1411.1372-.3338.0092-.4849.0948-.1719-.0308-.2313.0486-.2228.2136.0455 1.5512-.0563 3.1032.0331 4.6544.064.1851-.0185.3855.0555.5682 0 .1034-.0439.2853.1434.1057a19.9493 19.9493 0 0 0 1.6499-1.7456c.4056-.4965.805-1.0022 1.0794-1.5936a4.8775 4.8775 0 0 0 0-1.2181c.0378-.3431-.1465-.6515-.1542-.9892 0-.0948-.1164-.1635-.2382-.128-.377.037-.377.037-.4526-.5035v-.2536c.0702-.1426-.0439-.4017.2529-.4032l.3593-.0247c.1542-.0571.3284.0185.4842-.054l.8257-.0208c.3924-.0725.7933.0293 1.1858-.0555.5044.0254 1.01.0177 1.5134-.0231.128-.0093.2645-.0848.377.0439v.0972c-.0709.1542 0 .3292-.0547.488.03.4017-.1349.5744-.5551.5327-.3223-.0316-.5551.0617-.4133.4811.0555.1635.0301.3547.0417.5336a21.1118 21.1118 0 0 1 0 2.2304v.1596c.064.182-.0224.3793.0562.5605l.0209.596c.067.2367-.0247.485.0555.7209l.0208.8982c.0732.3654-.0293.7401.0563 1.1056l.0208 1.2073c.0725.3647-.0293.7386.057 1.1025.0062.2745.0131.5498.0193.825.0694.2375-.0231.4873.0563.724-.0147.5088-.0147.5003.4903.515.2414.0069.5683-.1195.6107.303.0293.2822.0593.5643-.0178.8481l-.2313.0138c-.2351.0687-.4826-.0254-.717.0563l-1.5952.0201c-.1858.064-.3854-.017-.5705.0562l-.5096.0216c-.1812.0663-.3778-.0231-.5582.0571a.5017.5017 0 0 0-.0771-.0116c-.5566.0077-.5566.0085-.6106-.5242-.0571-.1319.01-.2799-.0563-.411.0193-.1149.0478-.1881.1997-.2143.1896-.0324.4086-.0054.5628-.1673.0604-.307.063-.6226.0077-.9306l-.0208-.8982c-.0686-.2375.0231-.4873-.0563-.7232l-.0208-1.2814c-.0771-.4695.0308-.9467-.0563-1.417.0486-.4333-.0948-.852-.0971-1.2814-.0525-.1542-.0108-.3169-.0262-.4749-.0078-.0771.0239-.192-.1265-.145-.6939.8111-1.2814 1.7077-1.9274 2.5543-.1165.1542-.2105.3269-.3501.451-.4202.3632-.4795.8157-.4024 1.3176.0709.3393-.0262.6877.0563 1.027l.0215.7463c.0679.2313-.0269.4811.0563.7147 0 .2598-.0832.5736.3624.5243.1257.0771.2937-.0347.4109.0886l.0162.1373c.0702.2097-.0216.4348.0578.6437.0185.2737-.1372.3663-.3808.3693-.1542.061-.3308-.0161-.4873.0556l-1.0539.0216c-.6168.0547-1.2298.0077-1.8442.0246-.1388.0046-.2822-.0277-.4179.0316-.222 0-.4464-.01-.6677.0085-.1896.0162-.2367-.0771-.2428-.2351a.6716.6716 0 0 1 0-.3801c.0771-.2043-.1388-.5775.3238-.5559.1542-.0632.3253.0208.478-.0578.3022-.1697.2806-.4842.2976-.7541.0254-.3924-.0108-.7879-.0201-1.1819-.0663-.1804.0232-.3778-.0578-.5566l-.0185-.3686c-.0509-.1326.01-.2822-.0509-.4148ZM57.7245 57.4769c-.0701.4202-.4502.3145-.6938.3616-.2198.0416-.2853.0956-.337.3084-.2575 1.0593-.626 2.0654-1.4425 2.8488-.3577.343-.6746.6992-1.2104.7995-.5767.1071-1.1318.313-1.5482.771-.1048.1156-.192.1834-.0432.3654a.79.79 0 0 1 .1026.8967c-.108.2043-.0139.2621.1457.3323a9.5558 9.5558 0 0 0 3.0069.791.9096.9096 0 0 1 .6106.2729c.4849.4996.8419 1.0871 1.1696 1.6962.3909.7278.771 1.4649 1.2636 2.131.1704.2313.3323.3446.6369.2606.1781-.0486.3986-.118.5797.0424.0579.1588-.0154.3323.054.4903a.8713.8713 0 0 0-.0062.1889c.0671.3732-.084.5189-.4556.4626a.82.82 0 0 0-.2259.0278c-.1288.0601-.2768-.0139-.4032.0578l-1.0617.0956c-.1542.0671-.3261-.0201-.478.0594l-.3708.0208c-.1296.0555-.2761-.0147-.4033.0555-.2313-.0586-.4441.0671-.6723.0771-.2282.01-.3708-.0363-.3731-.293a1.1006 1.1006 0 0 0-.0771-.3608c-.1265-.3277-.138-.5274.3006-.5189.1427 0 .1735-.0979.1118-.2444a344.1 344.1 0 0 1-1.3006-3.1325c-.1249-.303-.4318-.2413-.6469-.2822-.6607-.1264-1.2767-.3647-1.9352-.653.0278.4109.0532.7957.0771 1.1796.0602.1542-.0177.3292.0556.4842.0077.121.0146.2428.0215.3639.0594.1264-.0177.2737.0586.3978.0417.7247.1234 1.4433.3254 2.1441a.694.694 0 0 0 .4757.007c.6122.0162.6523.0578.6546.6861 0 .3755-.1296.495-.5143.5205-.3145.02-.6268.0724-.9398.111-.1303.0555-.2776-.0131-.4063.0555l-.3639.02c-.1542.0633-.3293-.0169-.4842.0571l-.4418.0216c-.1542.0617-.3261-.0201-.4788.057l-.3685.0185c-.1542.064-.3277-.0192-.4811.0579l-.532.0038c-.0617-.1257.0177-.2729-.0594-.3963-.0208-.0825-.0462-.1634-.0601-.2467-.0547-.3331.0254-.5574.4225-.5697a.9853.9853 0 0 0 .5582-.1905.6547.6547 0 0 0 .0062-.4626c-.0062-.148-.0131-.296-.0193-.4441-.0655-.1827.0208-.3801-.0571-.562-.0069-.1719-.0131-.3446-.02-.5173-.0678-.209.0231-.4318-.0571-.6392l-.02-.5944c-.0702-.2313.027-.4803-.0578-.7132l-.0208-.6746c-.0633-.2112.0223-.4356-.0548-.6461-.3685-.1596-.636-.4078-.717-.8195a1.629 1.629 0 0 1 0-.6107.5397.5397 0 0 1 .2899-.4579c.1981-.1195.2482-.266.1719-.4719-.0617-.1287.0139-.2767-.0586-.4032l-.0177-.2907c-.0586-.1326.0069-.2829-.0571-.4147l-.0215-.357c-.0586-.1295.0123-.2776-.0571-.4063l-.0185-.2868c-.0632-.128.0139-.276-.0594-.4025-.0501-.323-.0701-.6553-.158-.9683-.0879-.3131-.3647-.2845-.6222-.2313a.7707.7707 0 0 1-.3793 0c-.1604-.2753-.0047-.5852-.0933-.8682-.0432-.131-.044-.2467.1172-.2976.2559.0224.4988-.0516.7463-.0963.1287-.0625.2775.0115.4055-.0586l.3662-.0224c.1311-.0532.2791.0116.4087-.054.5651.0124 1.1164-.1102 1.673-.1773.1318-.0532.2791.0116.4094-.054.6168.0132.586.017.6754.6346.0547.3808-.0162.5682-.4279.606-.367.0339-.5243.2313-.3855.626.0833.2313.084.4988.1218.7494.0594.1288-.0131.2768.0578.404l.0216.367c.0548.1311-.0123.2783.0548.4071l.0208.3639c.0832.0832-.0771.2652.1233.3014.4626-.4202.9252-.8396 1.4703-1.1433.2691-.1496.5173-.303.5289-.6438.0077-.2244.1473-.4241.1064-.6538a2.981 2.981 0 0 0 0-.9722c-.0062-.0108-.0131-.0316-.0177-.0316-.5598.0655-.6168-.3015-.6168-.7171-.0185-.1542-.0771-.3122.0401-.4541.7964-.01 1.579-.1596 2.3669-.2521.2313-.0663.4788.0286.7109-.0555.2845.027.5543-.0632.8311-.0979.1542-.0247.3084-.0632.4572.027a.0771.0771 0 0 0 .0139.0671c.0397.2515.0407.5076.003.7594ZM27.0909 69.0471c0-.6939.1958-1.3531.347-2.0192.0902-.3956.3469-.7186.5543-1.0609.862-1.4186 1.7185-2.8411 2.4772-4.3175.2135-.4164.3037-.8628.3492-1.3238.0201-.2067.0671-.3855.3493-.3855.1881 0 .377-.0548.5659-.0856a2.6206 2.6206 0 0 1 .7648 0c.7903.2151 1.5666.4626 2.1302 1.1087a6.5848 6.5848 0 0 1 1.0324 1.6399c.2976.6638-.1542 1.6136-.8388 1.8326-.1542.0509-.3154.0994-.4734.1488a2.364 2.364 0 0 1-.7656 0c-.4734-.4911-.5798-1.1565-.8373-1.754a3.2035 3.2035 0 0 0-.8381-1.1935c-.1943.5821-.3654 1.1434-.5697 1.6962-.367.9815-.7525 1.956-1.1264 2.9382-.0717.1889-.145.3855-.1064.5952-.0818.1789.0084.3755-.0579.5559v.8535c.0617.1542-.0231.3238.0579.4741.0331.9846.4124 1.8573.8974 2.6869a7.4974 7.4974 0 0 0 1.1511 1.4795c.1881.1913.3122.2252.5705.0856.6037-.3261 1.1187-.7432 1.3238-1.397.1673-.5343.3631-1.1025-.0663-1.6592-.3439-.4448-.2228-1.1341.5011-1.2652.7864-.1434 1.5929-.2112 2.3222-.5867.2136-.1102.1612.091.1774.1704.141.6939.067 1.3809-.1257 2.0478-.5112 1.7732-1.6106 3.0993-3.1695 4.0677-.3161.1966-.66.3184-.9869.4834-.5489.276-1.0794.121-1.599-.0925-1.4911-.6107-2.7031-1.562-3.4957-2.9784a4.2315 4.2315 0 0 1-.5165-1.9798 2.5717 2.5717 0 0 1 .0015-.7656ZM37.9626 67.1968c-.0162-.9322.2737-1.8072.5929-2.6545.1896-.5043.579-.9376.8951-1.3878.8558-1.2274 1.6746-2.478 2.4132-3.7779a2.3396 2.3396 0 0 0 .2814-.8773c.0516-.448.2213-.6831.69-.6415a3.1787 3.1787 0 0 1 .8427 0c1.2906.2529 2.2759.9152 2.8357 2.1364.202.4387.5165.8257.4163 1.3801-.1488.8242-.643 1.3045-1.4926 1.3438-.724.0339-1.0146-.2174-1.1997-.9714-.1889-.771-.4302-1.5189-1.0362-2.1426-.1542.4109-.2852.8118-.4525 1.1966-.4788 1.104-.973 2.2011-1.4603 3.3013a2.5602 2.5602 0 0 0-.2367 1.2151c-.0771.2082.0108.4317-.0563.6407v.3909c.0633.1835-.02.3816.0556.5643.057 1.3261.6352 2.4433 1.3962 3.4872.0378.0517.0771.1018.1211.1504.6167.71.4263.7524 1.2829.2158.6753-.424 1.1179-1.013 1.1472-1.8503.0416-.2313.0663-.4626-.0085-.6939-.5559-.579-.3708-1.2267.4055-1.4163.1473-.0363.2976-.0617.4464-.0918.182-.0632.3786.0224.5598-.0555.5266 0 1.0023-.1974 1.4772-.3855.1634.4017.0601.8165.054 1.2259-.5713 2.8812-2.3084 4.6783-5.104 5.4917a.633.633 0 0 1-.3801-.0061c-.7709-.2128-1.4479-.6107-2.0816-1.0717a6.297 6.297 0 0 1-2.1256-2.6792 3.9041 3.9041 0 0 1-.2799-1.5026 1.2615 1.2615 0 0 1 .0008-.5343ZM74.3516 61.3373c.0825-1.1604.5343-2.2128.9506-3.2775.5004-1.2829 1.5543-1.9275 2.7455-2.4217.3577-.148.7447-.1465 1.1279-.1542.1087 0 .219.0054.256.1188.1712.515.6168.8033.963 1.1696.4895.5165 1.0793.9467 1.3985 1.6121.404.8334.0979 1.4548-.8149 1.6306-.0979.0193-.1935.0725-.2899.0733-.2313 0-.4965.0539-.6769-.0448-.2213-.1225 0-.4333-.1095-.6422-.064-.1773.0285-.3716-.0578-.5474-.3169-.7247-1.0517-1.0154-1.5829-1.5181-.0986-.0932-.2066.0309-.2868.1134-.5659.5813-.7709 1.2952-.7625 2.0816a5.2158 5.2158 0 0 0 0 1.283c-.0061.1989-.0855.4695.0771.5659.1627.0963.3501-.1211.5204-.2167.4303-.2413.8589-.3323 1.3631-.1711a6.0794 6.0794 0 0 1 1.4865.7517c.3084.2035.4695.535.5597.8835.1936.7494.1427.8211-.6114.99-.1488.0331-.2999.0616-.4518.0771-.3083.0385-.6013.0878-.727-.3362-.0609-.2051-.2459-.3762-.3855-.5551-.2166-.2783-.4263-.3346-.8041-.1781-.626.2598-.855.6129-.6638 1.2667.0586.2013.0162.4318.02.6492-.0686.1287 0 .2752-.0547.4055-.2221 1.3107-.6384 2.5443-1.4001 3.6514.1141.0856.2128.0471.3084.0378.1333-.054.2814.0093.4132-.054 1.1673-.0393 2.5335-.9807 2.8889-2.0724.1372-.4209.3492-.5851.7609-.636.5829-.0717 1.1604-.1859 1.7471-.2313.2151-.0178.2675.0547.2845.2729.0771.9822-.3339 1.6715-1.1418 2.2158-1.33.8959-2.7841 1.4448-4.3453 1.7463a2.3204 2.3204 0 0 1-.3038.02c-.1542.064-.3284-.0185-.4826.0579h-1.1819c-.2614-.0818-.5359.0146-.798-.0556h-.0817c-.2637.071-.5397-.0254-.8003.0571-.1187-.0316-.1156-.1365-.1364-.2267a1.6453 1.6453 0 0 1 0-.6114c-.0201-.2613.0686-.3855.3631-.3855.8627.0155 1.1727-.6167 1.2752-1.269.0493-.3138.1503-.6445.0578-.9745-.0624-.1241.0201-.2714-.0609-.3925-.175-.8689-.4017-1.7277-.478-2.6144-.0617-.1264.0154-.2744-.0594-.3993l-.0208-.3716a8.621 8.621 0 0 1 .0031-1.3739ZM90.6194 68.7387c.0069-.0979.0131-.1966.02-.2945.0771-.1249-.0038-.2729.0602-.3994.0069-.094.0131-.1873.02-.2806.064-.1318 0-.2806.0555-.4132l.0209-1.0509c.077-.2359-.0132-.4857.057-.7224l.02-.5119c.071-.1542-.0046-.3316.0563-.4904l.0208-.4356c.0648-.1311 0-.2791.0548-.4125l.0231-.434c.0632-.1319 0-.2807.0548-.4141l.0223-.4317c.0625-.1334 0-.2822.054-.4164l.0208-.4456c.0771-.1788-.0077-.3755.0563-.5566.0077-.2221.0146-.4449.0223-.6669.0702-.5104.0124-1.0231.0324-1.5343.0054-.1403-.0223-.2822.0239-.4202.0972-.3685-.259-.2482-.3855-.2999-.276-.1133-.5929-.1318-.8943-.1812-.2544-.0416-.3917.0432-.3161.3269a7.9578 7.9578 0 0 1 0 1.3824l-.0902.3084a.5153.5153 0 0 1-.3855.01c-.2976-.0432-.5898-.0948-.6885-.4448a.7812.7812 0 0 0-.0054-.4981c-.2351-.5551-.6168-1.0555-.6345-1.6923-.0532-.1303.0131-.2768-.0548-.4056.0532-.6792.0532-.6784.7795-.6545.0871 0 .175-.0054.2629-.0077.1835.0771.3855-.0077.5667.0555l.5111.0216c.1327.0632.2807 0 .4141.0539.5042.0602 1.0022.1982 1.5126.1781.1326.0632.2822 0 .4156.0555l.5158.0201c.286.0848.5844-.0147.8712.0563l1.1303.0216c.1542.0701.3299-.0001.4888.0539l.4363.0232c.1311.0655.2799 0 .4125.057l.3616.0193c.1542.0732.3292-.0062.4865.0578l1.2058.1704c.1928.027.2413.0771.2205.3207-.0663.7803-.451 1.3215-1.0686 1.7563a1.8982 1.8982 0 0 0-.7316 1.0023c-.1157.3855-.3917.175-.5999.212-.239.0432-.2729-.1542-.2983-.3084-.0818-.5165.0131-1.0269.0933-1.535a.5564.5564 0 0 0 0-.2953c-.4896-.0879-.983-.0185-1.4749-.0385-.1411-.0062-.1542.0871-.1612.2004-.0061.202.0278.4056-.0216.606l-.0215.9021c-.0818.2313.0123.4818-.0563.717-.007.1958-.0139.3924-.0216.5883-.0694.158.0038.3315-.0547.4911l-.0216.4379c-.0656.1303 0 .2783-.0556.4102-.0555.3276-.1233.6538-.0963.9891-.0771.1242.0038.273-.0609.3994a40.5488 40.5488 0 0 1-.0193.2806c-.064.1311 0 .2799-.0555.4125l-.0208.5898c-.0717.8019-.0278 1.6044-.0278 2.4063 0 .6222-.0516 1.2467.0339 1.8673.1581.1542.3593.0887.5397.0856.2313-.0039.357.0771.4017.2991.047.3069.0434.6195-.0108.9252l-.4348-.01c-.1311-.064-.2783 0-.411-.054l-.4417-.0223c-.2853-.0849-.5829.0154-.8697-.0563l-.5112-.0216c-.1318-.0632-.2798 0-.4132-.054l-.4395-.0223c-.1295-.0663-.2775 0-.4086-.0548l-.3701-.0208c-.1264-.0725-.2729 0-.4009-.0555-.0501-.0077-.0994-.0177-.1495-.0224-.4418-.0401-.4865-.0524-.3747-.4672.0632-.2313-.0525-.5751.2929-.6977.2575-.0663.5258.0285.7818-.0571.0463 0 .0702-.0231.0671-.0701.0809-.1203.0015-.2676.0609-.3925ZM24.5721 69.8897c-.027.1874-.0501.3755-.0817.5613-.0185.1102-.0108.1858.1118.239.3708.1588.5613.4865.737.8242a.9182.9182 0 0 1 .0039.4572c-.0894.2598-.1735.5227-.4626.7208.2128.0532.3547.0956.4981.1234.9652.1881 1.6051.8874 1.6129 1.8827.0069.8651-.4087 1.6299-1.4495 1.9753-.121.0409-.2483.0625-.3724.0933a1.2561 1.2561 0 0 1-.5335 0c-1.2922-.1288-1.9876-1.1357-1.8311-2.3808a1.7556 1.7556 0 0 1 .633-1.1033c.1542-.1257.2313-.1881-.0139-.3654-.5613-.4017-.7024-.8905-.458-1.5705.0902-.2506-.0108-.3531-.1804-.4626-.6599-.4302-1.343-.8257-1.8696-1.434-1.1226-1.2945-2.3353-2.5104-3.3808-3.8711-.2544-.33-.5651-.3269-.8974-.2175-.1789.0594-.2012 0-.2537-.1503-.2914-.8627-.3037-.8774.5397-1.1357.9345-.2845 1.8974-.4695 2.818-.8033.0994-.0355.2236-.1404.2737.0979.1403.6738.572 1.178 1.0277 1.6645.7109.7571 1.4148 1.5204 2.1248 2.2775.0663.071.1226.1951.2352.175.1426-.0269.0678-.165.0879-.2552.2313-1.0516.4687-2.1024.7008-3.1548.3084-1.4032 1.195-2.296 2.4888-2.8419.1657-.0701.1819.017.2043.1095.0354.148.0485.3022.0709.4541.0555.993.0092 1.9868.0231 2.9806 0 .1242-.0069.2437-.1881.1912a4.488 4.488 0 0 0-.5135-.0902c-.4549-.0817-.6491.2969-.8296.6037-.3901.6638-.5319 1.4148-.6615 2.1634-.0516.2991-.1195.5998-.0871.9082-.0678.1295 0 .2776-.0563.4079l-.0216.4348c-.0616.1588.0116.3323-.0493.4911ZM138.325 65.8066c1.513.3685 2.93.9822 4.385 1.4595.144.047.231.1072.133.2722a.7516.7516 0 0 0-.035.148c-.231.6939-.236.7201-.925.488-.273-.0925-.238.0894-.285.1997a68.661 68.661 0 0 0-2.476 6.8741c-.361 1.1889-.762 2.3654-1.146 3.5466-.066.2028-.065.3701.182.4418.047.0189.093.0403.138.064.59.2374.682.6561.246 1.151-.082.0926-.166.1249-.318.071-1.174-.4202-2.355-.8188-3.534-1.2259-.399-.138-.413-.1866-.201-.552.064-.1095.148-.2213.165-.34.038-.2768.175-.3084.398-.209.224.0995.342-.0077.43-.2174.34-.7926.564-1.6191.817-2.4432.527-1.7109 1.101-3.4078 1.643-5.1148.308-.9714.597-1.9483.882-2.9298.044-.1541.02-.2991-.195-.3854-.559-.2313-.576-.2684-.404-.8605.042-.1403.068-.2868.1-.4379ZM91.0311 81.8879c-.0069-.2213-.0147-.4434-.0216-.6646-.0663-.209.0239-.4318-.0563-.6392v-.5566l-.0871-.0247c-.5073.9429-1.0138 1.8851-1.5751 2.9297-.4426-1.0022-.8481-1.9313-1.2837-2.9166-.2167.3716-.1958.7456-.2937 1.0794-.098.3338-.145.6677-.2252 1.0023-.0624.2613 0 .5019.0964.7401-.1843-.0771-.3855.0085-.5682-.0563l-.5991-.0601c.6168-.219.65-.707.7564-1.1418.1542-.6338.2752-1.276.4394-1.9074a.5878.5878 0 0 0-.131-.596h.7355c.1542.084.3438-.0385.4872.0925-.1919.0771-.1865.2259-.121.377.2853.6608.5775 1.3184.8974 2.0454.4163-.717.8481-1.3368 1.185-2.0192.0679-.1356-.0408-.1333-.0439-.1981.0617-.192.2035-.0964.3207-.0894.2614.0431.5351 0 .7949.128-.1249.1464-.1288.323-.0841.5065.054.1334-.0092.2814.0548.4132l.0231.4349c.0532.1326-.0108.2806.054.4109l.0231.4371c.054.1319-.0116.2791.0548.4094.0138.3685-.0679.7533.2976 1.0377.1017.0771-.0856.0371-.1134.0856-.1804-.0771-.377.007-.5589-.0555l-.751-.0771c.128-.101.2575-.1172.2868-.2444a2.3257 2.3257 0 0 0 .0062-.8827ZM76.5365 100.729c-.377.992-.838 1.31-1.71 1.31-.6939 0-1.3507-.688-1.4039-1.31a1.3621 1.3621 0 0 1 0-.533c.0979-.7273.6722-1.223 1.3877-1.2994.6762-.0709 1.3939.3755 1.6268 1.0123.0339.0951.0647.1911.0971.2871.0363.175.037.357.0023.533ZM70.2021 30.1601a1.5833 1.5833 0 0 1-1.5866 1.5536c-.8581-.0116-1.5705-.7456-1.5543-1.5921a1.5878 1.5878 0 0 1 1.5936-1.5497 1.5775 1.5775 0 0 1 1.5473 1.5882ZM78.1695 78.7662l.4372-.0077c.0825.636.0131 1.276.0385 1.9136.0108.2667-.0424.5396.0339.8002.0409.5197.3308.6878.7926.4757.6168-.2821.9036-.7663.9198-1.4271.0069-.2814 0-.5635 0-.848-.0039-.33-.0833-.6207-.4233-.7664.0702-.1079.1812-.0424.2599-.0856.1542-.0624.3307.0162.4857-.057l.4371-.0085c.0833.6121.0139 1.2274.0378 1.8411.0177.4472-.0416.8959.0332 1.3415-.0463.276.1241.4094.3407.5652a3.8027 3.8027 0 0 0-.4402 0c-.4186.0485-.7348-.0047-.7378-.5436 0-.2413-.1442-.0887-.2259-.0277-.3971.2968-.7864.5921-1.3107.6522-.4965.0571-.9961-.3654-.9915-.8704.0054-.6168-.0077-1.2336.0077-1.8435.01-.3855-.0393-.7386-.4317-.9961l.2498-.0555c.158-.0578.3322.0208.4872-.0524ZM60.1277 79.2288c.535-.0039.5343 0 .67.5628.0238.0698.0532.1376.0879.2028.0447.0909.0354.1542-.081.175-.2444-.2706-.5227-.4773-.9059-.4919a1.176 1.176 0 0 0-.5944 0c-.4565.037-.5775.1573-.5775.5489.0648.1843-.0193.3855.0563.5659.0061.1712.0128.3424.02.5135.0648.1851-.0177.3855.0563.569.0093.431-.1149.9075.4996 1.1635l-.4171.0524c-.1827.0632-.3801-.0216-.5621.0555h-.7941c.4927-.1704.4742-.5158.4981-.8435-.064-.185.0177-.3855-.0563-.569a77.0625 77.0625 0 0 0-.0223-.5875c-.0633-.1819.0223-.3793-.0556-.5597-.0092-.4302-.0663-.8381-.5042-1.0663.1288-.2143.3632-.0316.5212-.1372l.5181-.0209c.1835-.064.3809.0209.5628-.0562l.5166-.0209c.185-.0639.3824.0209.5636-.0562ZM41.7373 36.0767a.9394.9394 0 0 1 .943-.9568.9379.9379 0 0 1 .8814.5843.94.94 0 0 1 .0692.3655.9597.9597 0 0 1-.2727.6748.9597.9597 0 0 1-.6679.289.9569.9569 0 0 1-.953-.9568ZM89.0474 34.7406a1.2187 1.2187 0 0 1-.4763-.0979 1.217 1.217 0 0 1-.738-1.1673 1.2223 1.2223 0 0 1 1.2289-1.2104 1.2487 1.2487 0 0 1 1.2459 1.2451 1.242 1.242 0 0 1-.3746.8771 1.243 1.243 0 0 1-.8859.3534ZM105.596 33.9957c0 .2528-.1.4953-.277.6753a.9647.9647 0 0 1-.671.2869.9813.9813 0 0 1-.674-.286.9796.9796 0 0 1-.29-.6723.9723.9723 0 0 1 .284-.6734.9721.9721 0 0 1 .674-.2842.9554.9554 0 0 1 .954.9537ZM83.8771 16.6963a.9641.9641 0 0 1 .9738.9383.968.968 0 0 1-.9367.9777.983.983 0 0 1-.9784-.9422.9708.9708 0 0 1 .9413-.9738ZM116.515 72.8219c.292-.3084.241-.7255.325-1.0878.242-1.0494.544-2.0817.777-3.1333.415-1.872 1.002-3.6954 1.46-5.5511.074-.3523.127-.7086.16-1.0671.025-.2012-.11-.2768-.282-.3423-.726-.2783-.718-.2822-.474-1.0331.077-.2313.198-.3285.434-.266 1.641.4294 3.332.6561 4.939 1.2336.816.2922 1.214.9051 1.465 1.6676-.067.1295 0 .2783-.057.4094-.175.7656-.342 1.5327-.534 2.2952-.083.3323-.254.4673-.545.5444-.515.1357-1.028.2752-1.542.4224a1.7337 1.7337 0 0 0-.309.1542c-.284.1542-.274.2676-.008.4688.474.3577 1.01.5836 1.542.8234a.4779.4779 0 0 1 .219.1599.4768.4768 0 0 1 .096.2534c.192 1.1187.26 2.2536.444 3.3723.089.5396.171 1.0793.257 1.619.109.68-.032 1.3161-.351 1.9152-.14.2644-.32.3245-.654.2451-1.025-.2428-2.053-.4687-3.073-.7332-.771-.1989-1.529-.4248-2.3-.606-.953-.2236-1.912-.4109-2.868-.6168-.213-.0454-.454-.0848-.25-.4024a.4898.4898 0 0 0 .044-.2167c.027-.4502.267-.6083.694-.5134.136.03.265.0616.391-.0147Zm3.19.5675c-.012.1449.041.2097.187.2235.738.0694 1.465.2622 2.219.1689.236-.0285.279-.1164.298-.3323.11-1.212-.053-2.4093-.168-3.6105a.412.412 0 0 0-.145-.2999c-.6-.507-1.172-1.0462-1.713-1.6153-.34 1.8651-.524 3.6645-.678 5.4656Zm3.007-8.2581a.3417.3417 0 0 0 .104-.195c.124-.5228.249-1.0463.283-1.5852.007-.1256.03-.2567-.098-.3492-.238-.172-.469-.3562-.713-.5204-.243-.1643-.411-.1458-.507.1989-.335 1.215-.699 2.4224-1.079 3.7292.723-.4587 1.369-.8612 2.01-1.2783ZM114.006 67.9624c-.088.7362-.255 1.4648-.254 2.2112-.065.1302 0 .2783-.055.4101-.006.1481-.013.2961-.02.4441-.057.4168-.055.8397.006 1.2559.145.1936.385.1473.579.2098.179.0585.286.1341.339.3037-.069.1288.005.2791-.059.4086-.186.522-.298.5444-1.072.3624a18.1673 18.1673 0 0 0-2.239-.3708c-.37-.0394-.73-.1596-1.096-.2383-.104-.0223-.172-.0578-.13-.1765.085-.2437.166-.4888.263-.7278.036-.0902.099-.1812.231-.1542.515.0948.501-.256.498-.5952.077-.1542-.006-.3269.057-.4827.007-.1734.013-.3462.02-.5196a7.3655 7.3655 0 0 0-.007-1.6191c-.451-.0524-.828.1951-1.233.3177-1.079.3276-1.828 1.1217-2.579 1.9004-.173.1789-.308.3979.14.394.126.0113.251.0385.37.081.172.0447.249.1403.205.3299-.053.2213-.089.4472-.123.6731-.027.1827-.133.2313-.296.1959-1.018-.2128-2.043-.3817-3.072-.5328-.315-.0463-.616-.1627-.936-.2066-.224-.0309-.272-.1542-.245-.3269.04-.2433.096-.4838.166-.7201.044-.1542.184-.1265.291-.0895.771.266 1.209-.168 1.68-.7046.653-.7433 1.262-1.542 2.074-2.1334.065-.047.154-.0994.154-.205a2.5195 2.5195 0 0 1 0-.7656c.139-1.6407 1.085-2.7802 2.293-3.7856.61-.5088 1.249-.9961 1.768-1.609.127-.1466.216-.3222.259-.5114.044-.1891.04-.386-.01-.5734-.182-.0771-.367-.0447-.552-.0093-.231.2413-.286.5582-.353.8651-.154.6939-.576 1.1063-1.253 1.276-.314.0771-.863-.3747-.898-.7379-.065-.6831.102-.9899.716-1.2706.197-.0894.138-.1727.064-.3215-.165-.3299-.367-.6484-.114-1.0562a.7885.7885 0 0 1 .239-.2534.7912.7912 0 0 1 .324-.1267.7272.7272 0 0 1 .379 0c1.118.3007 2.269.4171 3.402.633.708.1341 1.416.2652 2.126.3978-.077.3084-.146.5898-.21.8712-.059.2575-.216.3046-.45.2367-.521-.1496-.524-.1465-.653.3585-.119.468-.225.9375-.21 1.4248-.068.1295 0 .2776-.057.4079l-.021.3577c-.07.1542.006.3323-.056.4903l-.02.4395c-.073.1542.004.3284-.056.4857l-.021.4387c-.067.1295 0 .2776-.056.4094-.007.0979-.013.1951-.02.293-.077.1257 0 .2737-.058.4009l-.021.357c-.064.1318 0 .2806-.056.414-.007.1218-.013.2444-.02.3662-.072.1257-.003.2722-.062.4025Zm-3.777-2.5744c-.182.3962-.291.822-.321 1.2567-.026.3431.053.5444.455.475.239-.0417.482-.0494.724-.0771.179-.0178.261-.1141.287-.2976.054-.3794.144-.7533.198-1.1334.112-.791.356-1.5659.328-2.4525-.728.6808-1.286 1.3916-1.671 2.2289ZM134.515 74.9783c-.006.2252-.013.4498-.02.6739-.077.1542 0 .3261-.056.4826-.082.4888-.174.9761-.245 1.4649-.082.5674-.512.8558-.911 1.1688-.099.0771-.213-.0108-.308-.044-1.878-.663-3.772-1.2744-5.688-1.8187-.514-.1457-1.02-.3161-1.534-.4626-.277-.0771-.426-.182-.263-.4934.033-.0652.061-.1327.084-.202.183-.5613.193-.5844.738-.3717.351.1365.47.0139.571-.2999.477-1.4818.983-2.9544 1.452-4.4385.358-1.1303.76-2.2436 1.134-3.3677.282-.848.458-1.7262.654-2.5974.069-.3022-.129-.421-.351-.4626-.377-.0771-.378-.2806-.274-.5736.241-.6785.244-.6939.925-.4526 1.181.4248 2.383.7764 3.582 1.1411.225.0686.273.1341.144.3246a1.0617 1.0617 0 0 0-.084.1696c-.274.626-.279.643-.942.4749-.193-.0486-.244.0524-.293.1504a25.114 25.114 0 0 0-1.245 2.9443c-.082.2313 0 .2853.245.2259.668-.1596 1.311-.1094 1.917.2622.396.2428.573.5851.514 1.0269a1.1428 1.1428 0 0 1-.245.5947 1.146 1.146 0 0 1-.526.3698 1.142 1.142 0 0 1-.149.037.635.635 0 0 1-.381 0c-.358-.0439-.574-.2744-.736-.5713-.053-.0979-.077-.2482-.226-.2012a.331.331 0 0 0-.134.1028.342.342 0 0 0-.067.1555c-.131.5397.065.9976.569 1.2945.463.2721.972.414 1.493.5319.603.1373.601.1481.653.7587.041.6667.042 1.3354.003 2.0022Zm-2.04-1.2575c0-.1256.031-.2521-.117-.333-.581-.3177-1.045-.7833-1.525-1.2267-.155-.1441-.246-.1595-.309.0772-.323 1.2659-.633 2.5349-.866 3.8217-.028.1542.007.239.169.2753.749.1688 1.486.4001 2.27.3523.173-.0108.24-.0548.266-.2313.077-.5235.053-1.0501.109-1.5751.003-.3894.003-.7749.003-1.1604ZM14.3041 65.4111c1.2452.4426 1.8157 1.3878 2.0107 2.6399.1727 1.1087-.0138 2.1842-.2313 3.2628a.3991.3991 0 0 1-.3392.3539 40.6485 40.6485 0 0 0-1.6615.4549c-.8319.249-1.0092.4479-.5882 1.5419.1002-.192.1835-.3777.2891-.5497a.8755.8755 0 0 1 .9198-.4248c.431.0648.7386.3516.8997.7563.1388.3478.0625.6577-.1997.9491-.4996.5544-1.1564.7047-1.8773.7571a19.6314 19.6314 0 0 0 1.2598 2.8773c.1017.192.2598.2614.4811.1365.2513-.1419.4086-.0771.5397.2128.3423.7532.3585.7386-.4526 1.0023-1.0393.3377-2.0416.7802-3.0917 1.094-.3361.101-.5497.1164-.6414-.2775-.027-.1165-.108-.2198-.1542-.3331-.0918-.219-.0609-.3685.1873-.4865.5952-.2853.6029-.3192.4218-.9391-.3331-1.1364-.7818-2.2297-1.2298-3.326-.4626-1.1264-.8527-2.2821-1.2829-3.4216-.3855-1.0092-.717-2.0339-1.0454-3.0608-.0895-.2807-.2768-.3485-.5667-.2475-.5443.1912-.5559.1804-.7217-.3539-.0593-.1904-.2713-.397-.1611-.5597.0956-.1403.35-.1843.5397-.246 1.8958-.6168 3.7485-1.3646 5.6968-1.8133.1542-.0663.3338.0131.4919-.0586h.0902c.1334.0655.2853-.0039.4171.0593Zm-.902 5.4023c.5674-.1781.8372-.5196.885-1.1202.0594-.7355.1504-1.4603-.3276-2.1025-.1211-.1627-.2429-.333-.4888-.3215-.7286.0363-1.458.0632-2.1865.1002-.1851.0101-.2938.0602-.2406.3084.2837 1.3292.7664 2.5913 1.259 3.9236a2.1483 2.1483 0 0 1 1.0995-.788ZM103.739 65.1798c.171.0638.324.1697.444.3081s.204.3047.243.4837c.176.6777-.173 1.1325-.997 1.3106a2.017 2.017 0 0 1-.688 0c-.1-.0087-.2-.0247-.298-.0478-.643-.1989-.642-.2012-.637.4696-.077.1827.007.3816-.057.5659-.013.5204-.04 1.04-.034 1.5604.007.6692.018.6692.69.6831.142.3439.041.7016.053 1.0524.005.172-.14.1427-.257.111l-.29-.0185c-.127-.0709-.274 0-.403-.0562l-.974-.0995c-.132-.064-.282 0-.414-.0571l-.2935-.0177c-.1256-.0771-.2729 0-.4009-.0586a12.2982 12.2982 0 0 1-1.3515-.185c-.108-.0177-.1103-.0725-.1311-.1396a2.0618 2.0618 0 0 1 .0046-.6877c.0448-.1611.0124-.3462.2845-.3701.6885-.0609.7209-.0693.8574-.7447.1287-.6422.1781-1.3007.2629-1.9514.0771-.1542-.0046-.3253.0563-.4803.0077-.1727.0146-.3462.0216-.5189.0771-.1812-.007-.3778.0547-.5605.0077-.1727.0152-.3454.0224-.5181.0678-.1287 0-.276.0547-.4063.0077-.1485.0149-.2968.0216-.4448.0771-.1542-.0054-.3262.0578-.4811l.0208-.3632c.0679-.1295 0-.2775.0563-.4078.0825-.8111.1419-1.6253.2552-2.4317.0772-.579.1192-1.1727.2532-1.7347.105-.4456-.169-.4117-.3758-.4626-.6129-.1457-.5142-.1349-.5243-.7448-.0123-.7293.4626-.414.7661-.4826.129.0678.276 0 .407.0547 1.57.3015 3.166.4218 4.741.6985 1.321.2313 2.245.8296 2.443 2.249.04.3051.04.6139 0 .919-.277 1.2744-.958 2.3407-1.727 3.363-.208.2768-.437.3809-.812.2814-.586-.1542-1.193-.2382-1.795-.3261-.602-.0879-.917.3662-.825 1.1604.249-.1812.432-.4488.753-.4788a.8702.8702 0 0 1 .461.0054Zm-.125-2.1357c.698.1357 1.086-.1958 1.417-.7447.33-.549.638-1.1102.565-1.7933-.034-.3146-.14-.559-.457-.6893-.628-.256-1.25-.5258-1.873-.7949-.198-.0856-.298-.0339-.349.1789-.316 1.3107-.462 2.6445-.594 4.0708.447-.2298.877-.3056 1.291-.2275ZM73.3647 82.4738c-.525-.0925-1.0608.0331-1.5882-.0995a1.7537 1.7537 0 0 1-1.3361-1.4834c-.202-1.3877.771-2.2358 2.0539-2.2821.2891-.01.579.0702.8658-.0123a1.1028 1.1028 0 0 0 .0108-.6284c.0401-.3145-.2552-.3323-.4395-.4918.3624-.1381.7356-.1404 1.0941-.2082.1657-.0308.1611.1218.1611.2382 0 .2814.0139.5636-.0038.8435-.0155.2382.057.3084.3022.2829.6461-.0771 1.269.0039 1.8357.3578.4896.3084.7031.7848.8334 1.3168a.924.924 0 0 1 0 .4572c-.1811 1.2336-1.0716 1.6784-2.1903 1.6846-.8103.0046-.8173.0054-.771.8203.0169.2699-.071.6222.3716.6646.0316.0586.01.1018-.0517.1033a38.0944 38.0944 0 0 1-1.4579 0c-.0617 0-.0825-.0447-.0463-.1025a.485.485 0 0 0 .3586-.4479 2.9762 2.9762 0 0 0-.0024-1.0131Zm.0448-2.1349v-.6538c0-.7779 0-.7779-.7949-.6939-.7949.0841-1.3169.66-1.3439 1.4649-.03.9252.4164 1.5289 1.2336 1.6715.5235.0917.8828-.1873.9005-.7155.0124-.3592 0-.7185 0-1.0793l.0047.0061Zm2.1094-1.185c-.3262-.1765-.6893-.1711-1.0501-.1758-.2128 0-.2899.0671-.286.2876.0115.7047 0 1.4094.0054 2.1148.0038.586.3854.8743.9652.7325.7517-.1851 1.1681-.7225 1.1565-1.5752.044-.572-.2151-1.0716-.791-1.3839ZM86.3281 81.224c-.2706 1.0671-1.0385 1.4495-2.0778 1.4441-.2861 0-.5798.0717-.8627-.0378-.0941.1372.0046.3022-.064.4433.0123.3955-.1874.8481.3939 1.1511h-1.3022c-.0771-.1079-.2976.0918-.3215-.1426a.463.463 0 0 0 .3732-.448c.0848-.2575-.0108-.5281.0578-.7864.0067-.3762.0139-.7527.0216-1.1295.0856-.3654-.0177-.7401.0563-1.1063l.0347-.8751c.0131-.3616.0169-.7186-.4271-.8936h.9182c.3647.0864.7386-.0154 1.1033.0555.2752.0455.5543.0771.8249.138.714.1681 1.0655.6885 1.2698 1.3431.0433.2797.0439.5644.0016.8442Zm-2.9375-.5798c-.0169.3331-.0393.6654-.0493 1.0023-.0131.4325.138.6052.5651.6685.7016.1048 1.2737-.2313 1.5142-.8967.4025-1.1164-.1881-2.3045-1.8257-2.1981-.1734.0108-.1742.1249-.1757.2367-.0054.3971 0 .7941 0 1.1912l-.0286-.0039ZM62.0073 84.4577h-.6229c.1156-.1689.3269-.2236.3462-.4264a2.3255 2.3255 0 0 0 0-.8327l-.0209-.7417c-.0717-.2598.0278-.532-.057-.791l-.0201-.6739c-.0717-.2606.0278-.5335-.057-.7933.0092-.4025.0046-.798-.458-.9799.0671-.2314.2868-.0386.4002-.1442l.7478-.0216c.2359-.0663.4834.0254.7186-.0555.3577.0054.7178.0108 1.0655.0948.7579.1835 1.128.7325 1.3107 1.4433a3.1829 3.1829 0 0 1-.0031.8427c-.3084.9861-1.0647 1.3392-2.0185 1.404-.1981.0493-.3993.0169-.599.0216-.1542 0-.2514.0408-.1773.2212 0 .2044.0084.4087.0054.6168-.0054.3246.0956.5852.4625.7186l-.2313.0432c-.2605.0686-.5327-.0316-.7918.054Zm.3809-3.8064c.0293.4358.0578.8709.0856 1.3053.0162.2536.148.3924.3963.4464.5397.1179.9969-.0178 1.3508-.4349.4356-.5127.4695-1.3878.101-1.9491-.347-.5258-1.2413-.8272-1.8612-.643-.1496.0447-.1234.1419-.1195.2375.0139.3462.0347.6939.0524 1.0378h-.0054ZM93.0866 80.5348c.0393-.269.0771-.5397.1218-.8434.3955.1896.7517-.0478 1.1287-.0972a3.3473 3.3473 0 0 1 .9206 0c.882.313 1.0093.4626 1.0023 1.1465v.3801c-.0732.1542.0062.3292-.0571.4857l-.0185.3686c-.0771.1542.0047.3246-.057.4795-.0409.4187-.1149.8481.495 1.0748h-.6376c-.1542-.0771-.33.0085-.4858-.0594-.1272-.4487-.3222-.5482-.7548-.2621-.3809.2529-.8697.2205-1.3107.138-.5027-.0941-.9067-.5173-.8481-.916a1.2734 1.2734 0 0 1 .8242-1.0431c.4881-.1928 1.0062-.2714 1.5181-.3747.1974-.0401.4973.0231.505-.3084.0077-.3493-.1912-.5544-.5243-.6446-.7216-.1943-1.2798.0532-1.7224.6245-.1503.0193-.1203-.0678-.0994-.1488Zm1.7077 2.2837c.4765-.35.5127-.892.5891-1.4109.0208-.1411-.108-.1172-.1905-.1079-.5327.057-1.0354.1989-1.4379.5751-.2051.1912-.3469.421-.2228.7201a.6512.6512 0 0 0 .5752.4017c.323.0093.5181-.0547.6869-.1781ZM54.5257 83.5316a1.6631 1.6631 0 0 1-.6168-.1079c-.5543-.2313-.7039-1.0023-.2891-1.4587.4148-.4564.9514-.7139 1.5288-.899.0972-.0316.1951-.0632.2907-.1002.1658-.064.4464-.0347.4302-.2776-.0162-.2428-.0555-.5335-.3724-.6245a1.713 1.713 0 0 0-.7324 0c-.5682.0771-.9059.4626-1.2081 1.0123v-.9598c0-.0471-.0455-.1403.0616-.1388.522.0092.9376-.3369 1.4433-.414 1.0023-.1542 1.4125.0771 1.6615 1.0501.064.1542-.017.3292.057.4841l.0224.441c.0524.1342-.0093.2822.054.4141.0084.2166-.0116.4386.0339.6468.0594.2699.2082.4911.5397.5035-.1056.1819-.2853.0825-.414.1411-.1542.064-.3316-.0154-.4873.0578a.386.386 0 0 1-.2745-.239c-.0771-.2313-.185-.3084-.3939-.0856-.2475.2645-.5775.4063-.9252.4981-.1311.0578-.2799-.0116-.4094.0562Zm1.4255-2.2173c0-.148-.0616-.1635-.1912-.1218-.5065.1626-.9814.377-1.3168.811-.1804.2313-.2922.4996-.0979.7764.1943.2768.4949.3393.8195.2483.5397-.1542.7818-.5567.7864-1.3307 0-.128-.0054-.256 0-.3832ZM67.9917 78.6891c.2691.0771.5521.0586.8242.1395.771.2313 1.1943.7563 1.2961 1.5304.1094.8265-.1982 1.5065-.9175 1.9213-.8373.4842-1.7124.5003-2.535-.0656-.421-.2891-.6723-.6938-.6824-1.2335-.0053-.3292-.0138-.6546.0879-.9761.2383-.7478.7911-1.1055 1.5189-1.2574.1295-.0625.2791.0108.4078-.0586Zm1.0347 1.0192c-.2267-.4202-.5829-.6515-1.0647-.6168-.4819.0347-.8589.2729-1.0154.751-.219.6692-.1542 1.3245.2359 1.9143.0855.1328.1995.245.3337.3284a1.0656 1.0656 0 0 0 1.3062-.1434c.34-.323.4264-.7463.4487-1.2073-.0193-.3485-.0702-.7039-.2444-1.0262ZM113.905 41.6841a3.2754 3.2754 0 0 1-1.696-.4626 3.4289 3.4289 0 0 1-1.685-2.9552c0-.454.092-.9033.268-1.3215.167-.4082.414-.7789.726-1.0902.311-.307.677-.5528 1.079-.7247a3.3055 3.3055 0 0 1 2.598-.0077c.403.1708.769.4194 1.077.7317.633.6436.987 1.511.984 2.4139.003.4522-.084.9004-.254 1.3192a3.3493 3.3493 0 0 1-.721 1.094 3.3843 3.3843 0 0 1-1.091.7409 3.176 3.176 0 0 1-1.285.2622Zm0-.4827a2.67 2.67 0 0 0 1.403-.394 2.899 2.899 0 0 0 1.04-1.0755c.255-.4459.388-.9512.385-1.4649a2.9306 2.9306 0 0 0-.378-1.4579 2.8881 2.8881 0 0 0-1.038-1.0724 2.7077 2.7077 0 0 0-1.225-.3913 2.7108 2.7108 0 0 0-1.268.2178c-.348.1493-.662.366-.925.6376a2.9948 2.9948 0 0 0-.627.9514c-.171.412-.246.8577-.218 1.303.029.4453.159.8781.38 1.2652.184.3333.432.6268.73.8633.298.2365.64.4114 1.006.5144.239.0685.486.1033.735.1033Zm-.758-2.885v1.7895l-.134-.0278h-.111l-.245.0278v-3.6746h1.195c.832 0 1.248.2737 1.248.8211a.8093.8093 0 0 1-.084.3774.7971.7971 0 0 1-.249.2957 1.8775 1.8775 0 0 1-.823.3446l1.156 1.3994.272.296.105.1404-.176-.0278h-.292l-.171.0185-.35-.4657-.67-.8157-.449-.4965-.222-.0023Zm0-1.5944v1.3022h.617a.9271.9271 0 0 0 .612-.1943.6363.6363 0 0 0 .175-.2297.6174.6174 0 0 0 .056-.2838c0-.3973-.213-.596-.638-.596l-.822.0016Z" fill="#2BA84A"/></svg>