<svg height="439.3001" width="564.507" xmlns="http://www.w3.org/2000/svg"><path d="M248.6384 164.5534c0 66.2521-33.1934 119.9601-74.1395 119.9601-40.946 0-74.1394-53.708-74.1394-119.9601 0-66.2522 33.1933-119.9601 74.1394-119.9601 40.9461 0 74.1395 53.708 74.1395 119.96z" style="fill:#f79f1a;fill-opacity:1;fill-rule:evenodd;stroke:none" transform="matrix(2.35465 0 0 1.45801 -20.95 -65.0175)"/><path d="M248.6384 164.5534c0 66.2521-33.1934 119.9601-74.1395 119.9601-40.946 0-74.1394-53.708-74.1394-119.9601 0-66.2522 33.1933-119.9601 74.1394-119.9601 40.9461 0 74.1395 53.708 74.1395 119.96z" style="fill:#ea001b;fill-opacity:1;fill-rule:evenodd;stroke:none" transform="matrix(2.35465 0 0 1.45801 -236.3117 -65.0175)"/><path d="M287.4063 61.6563c-33.5167 26.347-55.0313 67.2887-55.0313 113.2812 0 45.9925 21.5146 86.9655 55.0313 113.3125 33.5166-26.347 55.0312-67.32 55.0312-113.3125 0-45.9925-21.5146-86.9342-55.0313-113.2813z" style="fill:#ff5f01;fill-opacity:1;fill-rule:evenodd;stroke:none" transform="translate(-67.0259 -37.7116) scale(1.21528)"/><g style="fill:#f79f1a;fill-opacity:1"><path d="M9.3356 8.353V4.3098H8.2799L7.0655 7.0904 5.8511 4.3097H4.7954v4.0434h.7452V5.3033l1.1385 2.6289h.7728l1.1385-2.6358v3.0567zm-6.686 0V4.9998h1.3523v-.683H.559v.683h1.3524v3.3534z" style="font-size:13.80000019px;font-style:normal;font-weight:700;text-align:start;text-anchor:start;fill:#f79f1a;fill-opacity:1;font-family:MarkProTest Font" transform="matrix(1.54392 0 0 1.54392 549.767 254.8107)"/></g><g><path d="M87.1078 390.0664h-8.1514v-38.0397h7.9915v4.635s7.0192-5.6648 11.1882-5.594c8.106.1377 12.9463 7.0325 12.9463 7.0325s3.9264-7.0325 12.7865-7.0325c13.102 0 15.024 11.9873 15.024 11.9873v26.8516h-7.8317v-23.655s.0281-7.1924-8.471-7.1924c-8.789 0-9.5898 7.1924-9.5898 7.1924v23.655h-8.1514v-23.8148s-.783-7.512-8.1514-7.512c-9.5696 0-9.7497 7.6718-9.7497 7.6718zM335 351.0625c-4.169-.0708-11.1875 5.5938-11.1875 5.5938v-4.625h-8v38.0312h8.1563l-.1563-23.8125s.1804-7.6563 9.75-7.6563c1.7773 0 3.1576.4305 4.25 1.0938v-.0312l2.6563-7.4063c-1.603-.6746-3.4258-1.1528-5.4688-1.1875zM449.8257 351.0625c-4.169-.0708-11.1875 5.5938-11.1875 5.5938v-4.625h-8v38.0312h8.1563l-.1563-23.8125s.1804-7.6563 9.75-7.6563c1.7773 0 3.1576.4305 4.25 1.0938v-.0312l2.6563-7.4063c-1.603-.6745-3.4258-1.1528-5.4688-1.1875zM165.25 350.9063c-12.199 0-18.6549 10.9643-18.6875 20.125-.0335 9.3895 7.3494 20.2187 19.0313 20.2187 6.815 0 12.4138-5.0313 12.4138-5.0313l-.0148 3.875h8.0235v-38.0774h-8.0518v4.7962s-5.2577-5.9063-12.7145-5.9063zm1.5625 7.75c6.5542 0 11.875 5.701 11.875 12.7187 0 7.0176-5.3208 12.6875-11.875 12.6875s-11.8438-5.6699-11.8438-12.6875 5.2896-12.7188 11.8438-12.7188zM399.2423 350.9063c-12.1991 0-18.655 10.9643-18.6875 20.125-.0335 9.3895 7.3493 20.2187 19.0312 20.2187 6.8151 0 12.4138-5.0313 12.4138-5.0313l-.0148 3.875h8.0236v-38.0774h-8.0518v4.7962s-5.2577-5.9063-12.7145-5.9063zm1.5625 7.75c6.5542 0 11.875 5.701 11.875 12.7187 0 7.0176-5.3208 12.6875-11.875 12.6875s-11.8438-5.6699-11.8438-12.6875 5.2896-12.7188 11.8438-12.7188zM476.2807 350.9063c-12.199 0-18.6549 10.9643-18.6875 20.125-.0335 9.3895 7.3494 20.2187 19.0313 20.2187 6.815 0 12.4138-5.0313 12.4138-5.0313l-.0148 3.875h8.0235V336.985h-8.0518v19.8276s-5.2577-5.9063-12.7145-5.9063zm1.5625 7.75c6.5542 0 11.875 5.701 11.875 12.7187 0 7.0176-5.3208 12.6875-11.875 12.6875s-11.8438-5.6699-11.8438-12.6875 5.2896-12.7188 11.8438-12.7188zM210.4971 391.345c-8.311 0-15.983-5.1145-15.983-5.1145l3.5162-5.4343s7.2594 3.3565 12.4668 3.3565c3.3834 0 9.0421-1.0926 9.1104-4.4753.0722-3.5752-9.51-4.6351-9.51-4.6351s-14.3048-.1951-14.3048-11.9873c0-7.4162 7.1442-12.1471 16.3028-12.1471 5.2918 0 15.1839 4.635 15.1839 4.635l-3.9958 6.2334s-7.6377-3.0513-11.6676-3.1966c-3.403-.1226-7.512 1.5067-7.512 4.4753 0 8.0653 23.8147-.6284 23.8147 15.6634 0 10.6883-9.699 12.6266-17.4216 12.6266zM241.1563 341v11.0625h-7.0938v8h7.0938v19.125s-.6279 12.9375 13.2812 12.9375c3.8455 0 11.375-2.8438 11.375-2.8438l-3.2188-8.3125s-2.9942 2.5542-6.375 2.4688c-6.428-.1623-6.25-4.2813-6.25-4.2813v-19.0937h13.25v-8h-13.25V341h-8.8125zM289.4375 351.375c-13.0806 0-19.6162 10.7741-19.5625 20.125.0552 9.6164 5.9514 20.4375 20.3438 20.4375 6.16 0 14.8125-5.4063 14.8125-5.4063l-3.7188-6.4687s-5.9043 4.1875-11.0938 4.1875c-10.3899 0-11.0625-10.1563-11.0625-10.1563h27.8125s2.075-22.7187-17.5312-22.7187zm-1.1875 7.4688c.3084-.0175.6391 0 .9688 0 9.7883 0 9.7187 9.25 9.7187 9.25h-19.7813s-.4679-8.7065 9.0938-9.25zM372.1664 379.9646l3.7296 7.4592s-5.9112 3.8425-12.545 3.8425c-13.734 0-21.3603-10.3363-21.3603-20.117 0-15.3717 12.1364-19.8911 20.3432-19.8911 7.4492 0 13.9011 4.2946 13.9011 4.2946l-4.1816 7.4592s-2.5352-3.9556-9.9456-3.9556c-7.398 0-11.3017 6.3784-11.3017 12.4319 0 6.7838 4.5438 12.545 11.4148 12.545 5.3901 0 9.9455-4.0687 9.9455-4.0687z" style="fill:#000;stroke:none" transform="translate(-67.0259 -37.7116) scale(1.21528)"/><g style="fill:#000"><path d="M3.2154 4.0751c-.8296.0203-1.513.2955-2.0502.8254-.5372.53-.8152 1.1933-.834 1.9898.0188.7905.2968 1.452.834 1.9846.5372.5326 1.2206.8094 2.0502.8306.8106-.0212 1.4853-.298 2.0242-.8306.539-.5326.8187-1.1941.8392-1.9846-.0201-.7965-.299-1.4597-.8366-1.9898-.5376-.53-1.2132-.805-2.0268-.8254zm0 5.0094c-.6321-.0155-1.1533-.2294-1.5637-.6417-.4104-.4123-.6229-.9298-.6374-1.5525.0145-.6254.227-1.1426.6374-1.5516.4104-.409.9316-.6209 1.5637-.6357.6188.0148 1.132.2267 1.5395.6357.4075.409.6188.9262.634 1.5516-.0152.6227-.2265 1.1402-.634 1.5525-.4075.4123-.9207.6262-1.5395.6417zm.1656-3.512H2.1735v2.615h.5589v-.9798h.2553l.7935.9798h.6692l-.8555-.9867c.2672-.0335.4727-.12.6166-.2596.144-.1396.2167-.3175.2182-.5339-.0018-.2582-.093-.4611-.2734-.609-.1804-.1477-.4388-.223-.7753-.2259zm-.007.4898c.15.0002.2676.0292.3528.0871.0853.058.1287.144.1303.258-.0016.1172-.045.2052-.1303.2638-.0852.0587-.2028.088-.3527.088h-.6417v-.6969z" style="font-size:13.80000019px;font-style:normal;font-weight:700;text-align:start;text-anchor:start;fill:#000;font-family:MarkProTest Font" transform="translate(552.1516 423.2436) scale(1.65438)"/></g></g></svg>