<svg width="36" height="51" fill="none" xmlns="http://www.w3.org/2000/svg"><path d="M32.7461 4.8984h-.6348V3.2352a2.2485 2.2485 0 0 0-2.2461-2.245h-.2929a2.249 2.249 0 0 0-2.2461 2.2461v1.6633h-3.0274V3.2352a2.2485 2.2485 0 0 0-2.2461-2.245h-.2929a2.249 2.249 0 0 0-2.2461 2.2461v1.6633h-3.0274V3.2352a2.2485 2.2485 0 0 0-2.2461-2.245h-.2929a2.249 2.249 0 0 0-2.2461 2.2461v1.6633H8.6738V3.2352a2.2489 2.2489 0 0 0-2.246-2.245h-.293a2.2488 2.2488 0 0 0-2.2461 2.2461v1.6633h-.6348A3.0308 3.0308 0 0 0 .2266 7.927v42.3829a.6835.6835 0 0 0 .6836.6804h34.1796a.6836.6836 0 0 0 .6836-.6836V7.9258a3.0305 3.0305 0 0 0-3.0273-3.0274Zm-4.0527-1.6632a.8802.8802 0 0 1 .8789-.879h.2929a.8803.8803 0 0 1 .8789.879v5.6312h-2.0507V3.2352Zm-7.8125 0a.8802.8802 0 0 1 .8789-.879h.2929a.8803.8803 0 0 1 .8789.879v5.6312h-2.0507V3.2352Zm-7.8125 0a.8802.8802 0 0 1 .8789-.879h.2929a.8803.8803 0 0 1 .8789.879v5.6312h-2.0507V3.2352Zm-7.8125 0a.88.88 0 0 1 .8789-.879h.293a.88.88 0 0 1 .8788.879v5.6312H5.256V3.2352ZM1.5938 7.9258a1.6621 1.6621 0 0 1 1.6601-1.6602h.6348V9.55a.6837.6837 0 0 0 .6836.6836h3.418a.6836.6836 0 0 0 .6835-.6836V6.2656h3.0274V9.55a.6837.6837 0 0 0 .6836.6836h3.4179a.6836.6836 0 0 0 .6836-.6836V6.2656h3.0274V9.55a.6837.6837 0 0 0 .6836.6836h3.4179a.6836.6836 0 0 0 .6836-.6836V6.2656h3.0274V9.55a.6837.6837 0 0 0 .6836.6836h3.4179a.6836.6836 0 0 0 .6836-.6836V6.2656h.6348a1.6621 1.6621 0 0 1 1.6601 1.6602v4.9082H1.5938V7.9258ZM34.4061 49.623H1.5938V14.2012h32.8124V49.623Z" fill="#2BA84A"/><path d="m6.3035 20.8703-.327 1.9066a.6839.6839 0 0 0 .6245.7975.6832.6832 0 0 0 .3674-.0768l1.7129-.8984 1.7125.8984a.683.683 0 0 0 .7199-.052.6841.6841 0 0 0 .2719-.6687l-.327-1.9066 1.3855-1.3508a.6831.6831 0 0 0-.0365-1.0121.6825.6825 0 0 0-.3424-.1539l-1.914-.2785-.857-1.7332a.6841.6841 0 0 0-.2522-.2782.6841.6841 0 0 0-.722 0 .6841.6841 0 0 0-.252.2782l-.8563 1.7348-1.914.2785a.6834.6834 0 0 0-.379 1.166l1.3848 1.3492Zm1.4621-1.4941a.6827.6827 0 0 0 .5149-.3739l.4027-.8152.402.8152a.6818.6818 0 0 0 .5148.3739l.8984.1308-.6511.6348a.6845.6845 0 0 0-.1953.6051l.1539.8961-.8047-.4231a.686.686 0 0 0-.6364 0l-.8046.4231.1535-.8961a.684.684 0 0 0-.1953-.6051l-.6543-.6359.9015-.1297ZM15.6227 20.8703l-.327 1.9066a.6837.6837 0 0 0 .9918.7207l1.7125-.9 1.7125.8985a.6841.6841 0 0 0 .7199-.0521.6836.6836 0 0 0 .2719-.6686l-.3269-1.9067 1.3855-1.3508a.6832.6832 0 0 0-.0365-1.0121.6841.6841 0 0 0-.3424-.1539l-1.9141-.2785-.857-1.7316a.683.683 0 0 0-1.2258 0l-.8562 1.7347-1.9141.2786a.6833.6833 0 0 0-.5519.4652.6835.6835 0 0 0 .173.7008l1.3848 1.3492Zm1.4601-1.4942a.6818.6818 0 0 0 .5149-.3738L18 18.1871l.4024.8152a.6806.6806 0 0 0 .2111.2506.6807.6807 0 0 0 .3037.1232l.8984.1309-.6511.6348a.6838.6838 0 0 0-.1953.605l.1535.8961-.8043-.423a.6845.6845 0 0 0-.6367 0l-.8043.423.1535-.8961a.6847.6847 0 0 0-.1953-.605l-.6524-.636.8996-.1297ZM24.9414 20.8703l-.327 1.9066a.684.684 0 0 0 .2719.6687.6833.6833 0 0 0 .7199.052l1.7125-.8984 1.7129.8984a.6833.6833 0 0 0 .9513-.3475.684.684 0 0 0 .0405-.3732l-.327-1.9066 1.3856-1.3508a.6837.6837 0 0 0-.3789-1.166l-1.9141-.2785-.857-1.7332a.6841.6841 0 0 0-.2521-.2782.6844.6844 0 0 0-.722 0 .6848.6848 0 0 0-.2521.2782l-.8543 1.7332-1.914.2785a.6833.6833 0 0 0-.3789 1.166l1.3828 1.3508Zm1.4605-1.4941a.682.682 0 0 0 .5149-.3739l.4019-.8152.4027.8152a.683.683 0 0 0 .5149.3739l.8984.1308-.6511.6348a.6829.6829 0 0 0-.1954.6051l.1536.8961-.8047-.4231a.685.685 0 0 0-.6364 0l-.8046.4231.1539-.8961a.685.685 0 0 0-.1954-.6051l-.6523-.6359.8996-.1297ZM5.2723 27.8449h25.4554a.6836.6836 0 1 0 0-1.3672H5.2723a.6836.6836 0 1 0 0 1.3672ZM7.9902 30.7469a.6836.6836 0 1 0 0 1.3672h20.0196a.6834.6834 0 0 0 .6836-.6836.6837.6837 0 0 0-.6836-.6836H7.9902ZM5.2723 36.3809h25.4554a.6837.6837 0 0 0 .4834-1.167.6836.6836 0 0 0-.4834-.2002H5.2723a.6836.6836 0 1 0 0 1.3672ZM7.9902 39.284a.6836.6836 0 1 0 0 1.3672h20.0196a.6834.6834 0 0 0 .6836-.6836.6837.6837 0 0 0-.6836-.6836H7.9902ZM5.2723 44.9203h25.4554a.6836.6836 0 1 0 0-1.3672H5.2723a.6845.6845 0 0 0-.4834.2002.6844.6844 0 0 0-.2002.4834.6834.6834 0 0 0 .6836.6836Z" fill="#2BA84A"/></svg>