<svg width="48" height="16" fill="none" xmlns="http://www.w3.org/2000/svg"><path d="m20.0756.6875-2.369 14.7422h3.7866L23.8607.6875h-3.7851Zm11.4217 6.0052c-1.3232-.6535-2.1344-1.0945-2.1344-1.7629.0162-.6076.686-1.2302 2.1817-1.2302 1.2302-.0309 2.1344.2582 2.8204.5459l.3436.1534.5148-3.0845c-.7479-.289-1.9338-.6076-3.3986-.6076-3.7394 0-6.3724 1.9441-6.3888 4.7247-.0309 2.052 1.8852 3.1906 3.3191 3.8737 1.4648.7006 1.9634 1.1549 1.9634 1.7775-.0162.9558-1.1844 1.3968-2.2746 1.3968-1.5104 0-2.3217-.2271-3.5534-.7597l-.4986-.2271-.5296 3.2054c.8895.3954 2.5254.7434 4.2233.7612 3.9739 0 6.5597-1.9147 6.5923-4.8781.0129-1.6257-.9974-2.8708-3.1806-3.8886ZM44.931.733h-2.9296c-.9028 0-1.5887.2597-1.9796 1.186l-5.6246 13.5106h3.9739l1.0945-2.9251h4.446l.5679 2.9369h3.5049L44.931.7331Zm-4.3633 8.8196c.0766.0074 1.5253-4.775 1.5253-4.775l1.1535 4.775h-2.6788ZM14.5425.6875l-3.7099 10.016-.4041-1.9753c-.686-2.279-2.8366-4.7556-5.2367-5.9859L8.589 15.415h4.0065L18.549.6891h-4.0065V.6875Z" fill="#2394BC"/><path d="M9.1805 2.5896C8.8914 1.4654 7.9694.7072 6.7171.6911H.8418L.7813.9639c4.5832 1.13 8.4301 4.6067 9.6781 7.877L9.1805 2.5896Z" fill="#EFC75E"/></svg>