<svg width="55" height="54" fill="none" xmlns="http://www.w3.org/2000/svg"><path d="M54 20.0001h-6.214l2.9835-2.9836a1.0004 1.0004 0 0 0 .293-.7071c0-.2653-.1055-.5195-.293-.7072L37.4599 2.2928c-.3905-.3903-1.0239-.3903-1.4141 0l-2.0857 2.0857c-.0097-.006-.0176-.014-.0276-.0198L26.6155.134a1 1 0 0 0-1.366.366L14.134 19.7527c-.0457.0793-.0752.1627-.0973.2472H1c-.5523 0-1 .4478-1 1V53c0 .5522.4477.9999 1 .9999h53c.5523 0 1-.4477 1-.9999V21c0-.5522-.4477-.9999-1-.9999ZM36.7529 4.4142l11.8954 11.8952-3.6907 3.6907H21.1672L36.7529 4.4142Zm-10.2715-2.048 6.0173 3.474L18.3387 20h-2.0382l10.1809-17.634ZM53 41H39.9947c-1.6511 0-2.9946-1.344-2.9946-2.9959v-4.0084c0-1.6518 1.3435-2.9959 2.9946-2.9959H53V41Zm0-12H39.9947c-2.7542 0-4.9946 2.2411-4.9946 4.9958v4.0084c0 2.7547 2.2405 4.9958 4.9946 4.9958H53v9.0001H2V22h42.9697c.1098.0397.2243.0624.3396.0624.1152 0 .2298-.0226.3397-.0624H53v7Z" fill="#fff"/><path d="M41 37.9998c1.1046 0 2-.8954 2-1.9999 0-1.1046-.8954-2-2-2-1.1045 0-2 .8954-2 2 0 1.1045.8955 1.9999 2 1.9999Z" fill="#fff"/></svg>